Neuton-Bold.ufo
<glyph name="exclam" format="1">
  <advance width="429"/>
  <unicode hex="0021"/>
  <outline>
    <contour>
      <point x="47" y="110" type="curve" smooth="yes"/>
      <point x="47" y="176"/>
      <point x="99" y="245"/>
      <point x="213" y="245" type="curve" smooth="yes"/>
      <point x="333" y="245"/>
      <point x="384" y="176"/>
      <point x="384" y="110" type="curve" smooth="yes"/>
      <point x="384" y="32"/>
      <point x="331" y="-31"/>
      <point x="212" y="-31" type="curve" smooth="yes"/>
      <point x="90" y="-31"/>
      <point x="47" y="38"/>
    </contour>
    <contour>
      <point x="69" y="1220" type="curve" smooth="yes"/>
      <point x="69" y="1272"/>
      <point x="138" y="1299"/>
      <point x="237" y="1299" type="curve" smooth="yes"/>
      <point x="303" y="1299"/>
      <point x="347" y="1286"/>
      <point x="347" y="1234" type="curve" smooth="yes"/>
      <point x="347" y="1031"/>
      <point x="309" y="636"/>
      <point x="279" y="360" type="curve"/>
      <point x="153" y="384" type="line"/>
      <point x="123" y="649"/>
      <point x="69" y="1084"/>
    </contour>
  </outline>
</glyph>
<glyph name="numbersign" format="1">
  <advance width="1170"/>
  <unicode hex="0023"/>
  <outline>
    <contour>
      <point x="241" y="-26" type="line"/>
      <point x="418" y="1148" type="line"/>
      <point x="582" y="1158" type="line"/>
      <point x="406" y="-19" type="line"/>
    </contour>
    <contour>
      <point x="114" y="680" type="line"/>
      <point x="159" y="854" type="line"/>
      <point x="1127" y="854" type="line"/>
      <point x="1085" y="680" type="line"/>
    </contour>
    <contour>
      <point x="43" y="296" type="line"/>
      <point x="87" y="470" type="line"/>
      <point x="1052" y="470" type="line"/>
      <point x="1010" y="296" type="line"/>
    </contour>
    <contour>
      <point x="571" y="-26" type="line"/>
      <point x="747" y="1148" type="line"/>
      <point x="913" y="1156" type="line"/>
      <point x="736" y="-19" type="line"/>
    </contour>
  </outline>
</glyph>
<glyph name="dollar" format="1">
  <advance width="952"/>
  <unicode hex="0024"/>
  <outline>
    <contour>
      <point x="47" y="129" type="curve"/>
      <point x="70" y="428" type="line"/>
      <point x="210" y="407" type="line"/>
      <point x="260" y="200" type="line"/>
      <point x="297" y="147"/>
      <point x="369" y="107"/>
      <point x="447" y="107" type="curve" smooth="yes"/>
      <point x="543" y="107"/>
      <point x="650" y="163"/>
      <point x="650" y="288" type="curve" smooth="yes"/>
      <point x="650" y="497"/>
      <point x="72" y="525"/>
      <point x="72" y="889" type="curve" smooth="yes"/>
      <point x="72" y="1144"/>
      <point x="285" y="1268"/>
      <point x="518" y="1268" type="curve" smooth="yes"/>
      <point x="626" y="1268"/>
      <point x="729" y="1235"/>
      <point x="820" y="1178" type="curve"/>
      <point x="820" y="1162"/>
      <point x="796" y="861"/>
      <point x="796" y="861" type="curve"/>
      <point x="660" y="882" type="line"/>
      <point x="628" y="1079" type="line"/>
      <point x="605" y="1109"/>
      <point x="522" y="1145"/>
      <point x="462" y="1145" type="curve" smooth="yes"/>
      <point x="385" y="1145"/>
      <point x="320" y="1102"/>
      <point x="320" y="1001" type="curve" smooth="yes"/>
      <point x="320" y="745"/>
      <point x="907" y="746"/>
      <point x="907" y="376" type="curve" smooth="yes"/>
      <point x="907" y="104"/>
      <point x="629" y="-24"/>
      <point x="421" y="-24" type="curve" smooth="yes"/>
      <point x="277" y="-24"/>
      <point x="111" y="49"/>
    </contour>
    <contour>
      <point x="327" y="-181" type="line"/>
      <point x="351" y="9" type="line"/>
      <point x="411" y="76" type="line"/>
      <point x="431" y="618" type="line"/>
      <point x="444" y="695" type="line"/>
      <point x="465" y="1206" type="line"/>
      <point x="417" y="1240" type="line"/>
      <point x="404" y="1392" type="line"/>
      <point x="630" y="1417" type="line"/>
      <point x="600" y="1240" type="line"/>
      <point x="538" y="1202" type="line"/>
      <point x="518" y="674" type="line"/>
      <point x="509" y="597" type="line"/>
      <point x="488" y="66" type="line"/>
      <point x="548" y="30" type="line"/>
      <point x="556" y="-161" type="line"/>
    </contour>
  </outline>
</glyph>
<glyph name="percent" format="1">
  <advance width="1465"/>
  <unicode hex="0025"/>
  <outline>
    <contour>
      <point x="44" y="897" type="curve" smooth="yes"/>
      <point x="44" y="1049"/>
      <point x="208" y="1210"/>
      <point x="358" y="1210" type="curve" smooth="yes"/>
      <point x="374" y="1210"/>
      <point x="374" y="1209"/>
      <point x="384" y="1207" type="curve"/>
      <point x="394" y="1114" type="line"/>
      <point x="385" y="1117"/>
      <point x="371" y="1122"/>
      <point x="361" y="1122" type="curve" smooth="yes"/>
      <point x="299" y="1122"/>
      <point x="280" y="1013"/>
      <point x="280" y="897" type="curve" smooth="yes"/>
      <point x="280" y="780"/>
      <point x="294" y="672"/>
      <point x="363" y="672" type="curve" smooth="yes"/>
      <point x="430" y="672"/>
      <point x="446" y="777"/>
      <point x="446" y="897" type="curve" smooth="yes"/>
      <point x="446" y="1039"/>
      <point x="435" y="1138"/>
      <point x="422" y="1203" type="curve"/>
      <point x="1080" y="1208" type="line"/>
      <point x="1090" y="1124" type="line"/>
      <point x="584" y="1121" type="line"/>
      <point x="655" y="1059"/>
      <point x="674" y="947"/>
      <point x="674" y="897" type="curve" smooth="yes"/>
      <point x="674" y="723"/>
      <point x="505" y="580"/>
      <point x="363" y="580" type="curve" smooth="yes"/>
      <point x="189" y="580"/>
      <point x="44" y="701"/>
    </contour>
    <contour>
      <point x="132" y="12" type="line"/>
      <point x="614" y="588" type="line"/>
      <point x="1080" y="1208" type="line"/>
      <point x="1314" y="1206" type="line"/>
      <point x="1314" y="1154" type="line"/>
      <point x="842" y="591" type="line"/>
      <point x="410" y="-26" type="line"/>
    </contour>
    <contour>
      <point x="788" y="276" type="curve" smooth="yes"/>
      <point x="788" y="445"/>
      <point x="964" y="590"/>
      <point x="1110" y="590" type="curve" smooth="yes"/>
      <point x="1273" y="590"/>
      <point x="1418" y="452"/>
      <point x="1418" y="274" type="curve" smooth="yes"/>
      <point x="1418" y="105"/>
      <point x="1251" y="-36"/>
      <point x="1112" y="-36" type="curve" smooth="yes"/>
      <point x="942" y="-36"/>
      <point x="788" y="86"/>
    </contour>
    <contour>
      <point x="1025" y="272" type="curve" smooth="yes"/>
      <point x="1025" y="155"/>
      <point x="1044" y="60"/>
      <point x="1112" y="60" type="curve" smooth="yes"/>
      <point x="1176" y="60"/>
      <point x="1190" y="153"/>
      <point x="1190" y="274" type="curve" smooth="yes"/>
      <point x="1190" y="394"/>
      <point x="1166" y="504"/>
      <point x="1110" y="504" type="curve" smooth="yes"/>
      <point x="1040" y="504"/>
      <point x="1025" y="386"/>
    </contour>
  </outline>
</glyph>
<glyph name="ampersand" format="1">
  <advance width="1398"/>
  <unicode hex="0026"/>
  <outline>
    <contour>
      <point x="50" y="296" type="curve" smooth="yes"/>
      <point x="50" y="483"/>
      <point x="174" y="592"/>
      <point x="343" y="683" type="curve"/>
      <point x="271" y="747"/>
      <point x="218" y="856"/>
      <point x="218" y="954" type="curve" smooth="yes"/>
      <point x="218" y="1140"/>
      <point x="398" y="1272"/>
      <point x="570" y="1272" type="curve" smooth="yes"/>
      <point x="734" y="1272"/>
      <point x="856" y="1192"/>
      <point x="856" y="1018" type="curve" smooth="yes"/>
      <point x="856" y="892"/>
      <point x="784" y="802"/>
      <point x="663" y="724" type="curve"/>
      <point x="663" y="710" type="line"/>
      <point x="852" y="506" type="line"/>
      <point x="1005" y="730" type="line"/>
      <point x="889" y="770" type="line"/>
      <point x="906" y="888" type="line"/>
      <point x="1354" y="888" type="line"/>
      <point x="1338" y="770" type="line"/>
      <point x="1166" y="722" type="line"/>
      <point x="952" y="405" type="line"/>
      <point x="1081" y="268"/>
      <point x="1203" y="151"/>
      <point x="1280" y="120" type="curve" smooth="yes"/>
      <point x="1319" y="106" type="line"/>
      <point x="1296" y="3" type="line"/>
      <point x="1264" y="-7"/>
      <point x="1194" y="-18"/>
      <point x="1146" y="-18" type="curve" smooth="yes"/>
      <point x="1022" y="-18"/>
      <point x="932" y="50"/>
      <point x="862" y="124" type="curve" smooth="yes"/>
      <point x="801" y="187" type="line"/>
      <point x="705" y="60"/>
      <point x="581" y="-24"/>
      <point x="414" y="-24" type="curve" smooth="yes"/>
      <point x="212" y="-24"/>
      <point x="50" y="67"/>
    </contour>
    <contour>
      <point x="310" y="393" type="curve" smooth="yes"/>
      <point x="310" y="264"/>
      <point x="382" y="154"/>
      <point x="502" y="154" type="curve" smooth="yes"/>
      <point x="586" y="154"/>
      <point x="657" y="219"/>
      <point x="702" y="288" type="curve"/>
      <point x="431" y="588" type="line"/>
      <point x="418" y="591" type="line"/>
      <point x="360" y="547"/>
      <point x="310" y="482"/>
    </contour>
    <contour>
      <point x="433" y="1026" type="curve" smooth="yes"/>
      <point x="433" y="950"/>
      <point x="509" y="860"/>
      <point x="565" y="810" type="curve"/>
      <point x="616" y="854"/>
      <point x="648" y="897"/>
      <point x="648" y="980" type="curve" smooth="yes"/>
      <point x="648" y="1080"/>
      <point x="607" y="1145"/>
      <point x="534" y="1145" type="curve" smooth="yes"/>
      <point x="474" y="1145"/>
      <point x="433" y="1090"/>
    </contour>
  </outline>
</glyph>
<glyph name="quotesingle" format="1">
  <advance width="357"/>
  <unicode hex="0027"/>
  <outline>
    <contour>
      <point x="54" y="1302" type="line"/>
      <point x="301" y="1282" type="line"/>
      <point x="253" y="912" type="line"/>
      <point x="119" y="893" type="line"/>
    </contour>
  </outline>
</glyph>
<glyph name="parenright" format="1">
  <advance width="532"/>
  <unicode hex="0029"/>
  <outline>
    <contour>
      <point x="49" y="1160" type="curve"/>
      <point x="138" y="1255" type="line"/>
      <point x="203" y="1200"/>
      <point x="476" y="960"/>
      <point x="476" y="436" type="curve" smooth="yes"/>
      <point x="476" y="-78"/>
      <point x="188" y="-328"/>
      <point x="139" y="-376" type="curve"/>
      <point x="39" y="-298" type="line"/>
      <point x="106" y="-194"/>
      <point x="233" y="40"/>
      <point x="233" y="454" type="curve" smooth="yes"/>
      <point x="233" y="878"/>
      <point x="135" y="1048"/>
    </contour>
  </outline>
</glyph>
<glyph name="asterisk" format="1">
  <advance width="667"/>
  <unicode hex="002A"/>
  <outline>
    <contour>
      <point x="89" y="1102" type="line"/>
      <point x="198" y="1184" type="line"/>
      <point x="301" y="990" type="line"/>
      <point x="419" y="1210" type="line"/>
      <point x="527" y="1132" type="line"/>
      <point x="372" y="963" type="line"/>
      <point x="621" y="934" type="line"/>
      <point x="581" y="806" type="line"/>
      <point x="377" y="888" type="line"/>
      <point x="421" y="654" type="line"/>
      <point x="284" y="654" type="line"/>
      <point x="308" y="864" type="line"/>
      <point x="89" y="756" type="line"/>
      <point x="47" y="888" type="line"/>
      <point x="266" y="926" type="line"/>
    </contour>
  </outline>
</glyph>
<glyph name="plus" format="1">
  <advance width="702"/>
  <unicode hex="002B"/>
  <outline>
    <contour>
      <point x="52" y="392" type="line"/>
      <point x="62" y="526" type="line"/>
      <point x="276" y="526" type="line"/>
      <point x="276" y="764" type="line"/>
      <point x="425" y="752" type="line"/>
      <point x="425" y="526" type="line"/>
      <point x="648" y="526" type="line"/>
      <point x="635" y="392" type="line"/>
      <point x="425" y="392" type="line"/>
      <point x="426" y="158" type="line"/>
      <point x="276" y="166" type="line"/>
      <point x="276" y="392" type="line"/>
    </contour>
  </outline>
</glyph>
<glyph name="period" format="1">
  <advance width="455"/>
  <unicode hex="002E"/>
  <outline>
    <contour>
      <point x="61" y="110" type="curve" smooth="yes"/>
      <point x="61" y="174"/>
      <point x="111" y="242"/>
      <point x="225" y="242" type="curve" smooth="yes"/>
      <point x="345" y="242"/>
      <point x="395" y="174"/>
      <point x="395" y="110" type="curve" smooth="yes"/>
      <point x="395" y="34"/>
      <point x="342" y="-28"/>
      <point x="225" y="-28" type="curve" smooth="yes"/>
      <point x="105" y="-28"/>
      <point x="61" y="40"/>
    </contour>
  </outline>
</glyph>
<glyph name="slash" format="1">
  <advance width="720"/>
  <unicode hex="002F"/>
  <outline>
    <contour>
      <point x="37" y="-368" type="line"/>
      <point x="499" y="1230" type="line"/>
      <point x="680" y="1244" type="line"/>
      <point x="214" y="-356" type="line"/>
    </contour>
  </outline>
</glyph>
<glyph name="zero" format="1">
  <advance width="1003"/>
  <unicode hex="0030"/>
  <outline>
    <contour>
      <point x="55" y="584" type="curve" smooth="yes"/>
      <point x="55" y="1039"/>
      <point x="291" y="1205"/>
      <point x="511" y="1205" type="curve" smooth="yes"/>
      <point x="751" y="1205"/>
      <point x="944" y="1044"/>
      <point x="944" y="584" type="curve" smooth="yes"/>
      <point x="944" y="118"/>
      <point x="705" y="-27"/>
      <point x="499" y="-27" type="curve" smooth="yes"/>
      <point x="276" y="-27"/>
      <point x="55" y="93"/>
    </contour>
    <contour>
      <point x="359" y="587" type="curve" smooth="yes"/>
      <point x="359" y="253"/>
      <point x="386" y="106"/>
      <point x="507" y="106" type="curve" smooth="yes"/>
      <point x="609" y="106"/>
      <point x="640" y="256"/>
      <point x="640" y="590" type="curve" smooth="yes"/>
      <point x="640" y="928"/>
      <point x="609" y="1062"/>
      <point x="495" y="1062" type="curve" smooth="yes"/>
      <point x="389" y="1062"/>
      <point x="359" y="927"/>
    </contour>
  </outline>
</glyph>
<glyph name="one" format="1">
  <advance width="887"/>
  <unicode hex="0031"/>
  <outline>
    <contour>
      <point x="44" y="-2" type="line"/>
      <point x="56" y="99" type="line"/>
      <point x="300" y="156" type="line"/>
      <point x="300" y="973" type="line"/>
      <point x="67" y="973" type="line"/>
      <point x="76" y="1095" type="line"/>
      <point x="534" y="1186" type="line"/>
      <point x="594" y="1186" type="line"/>
      <point x="594" y="146" type="line"/>
      <point x="843" y="108" type="line"/>
      <point x="832" y="-2" type="line"/>
    </contour>
  </outline>
</glyph>
<glyph name="two" format="1">
  <advance width="983"/>
  <unicode hex="0032"/>
  <outline>
    <contour>
      <point x="49" y="158" type="line"/>
      <point x="276" y="335" type="line" smooth="yes"/>
      <point x="410" y="442"/>
      <point x="567" y="602"/>
      <point x="567" y="778" type="curve" smooth="yes"/>
      <point x="567" y="943"/>
      <point x="518" y="1049"/>
      <point x="396" y="1049" type="curve" smooth="yes"/>
      <point x="345" y="1049"/>
      <point x="301" y="1021"/>
      <point x="279" y="986" type="curve"/>
      <point x="227" y="666" type="line"/>
      <point x="109" y="685" type="line"/>
      <point x="70" y="1013" type="line"/>
      <point x="156" y="1127"/>
      <point x="364" y="1210"/>
      <point x="527" y="1210" type="curve" smooth="yes"/>
      <point x="773" y="1210"/>
      <point x="894" y="1064"/>
      <point x="894" y="878" type="curve" smooth="yes"/>
      <point x="894" y="582"/>
      <point x="599" y="368"/>
      <point x="419" y="248" type="curve" smooth="yes"/>
      <point x="347" y="200" type="line"/>
      <point x="712" y="200" type="line"/>
      <point x="820" y="410" type="line"/>
      <point x="935" y="396" type="line"/>
      <point x="886" y="0" type="line"/>
      <point x="55" y="0" type="line"/>
    </contour>
  </outline>
</glyph>
<glyph name="three" format="1">
  <advance width="958"/>
  <unicode hex="0033"/>
  <outline>
    <contour>
      <point x="47" y="42" type="curve"/>
      <point x="111" y="414" type="line"/>
      <point x="243" y="398" type="line"/>
      <point x="263" y="150" type="line"/>
      <point x="285" y="126"/>
      <point x="332" y="104"/>
      <point x="378" y="104" type="curve" smooth="yes"/>
      <point x="501" y="104"/>
      <point x="593" y="175"/>
      <point x="593" y="307" type="curve" smooth="yes"/>
      <point x="593" y="439"/>
      <point x="480" y="551"/>
      <point x="274" y="537" type="curve"/>
      <point x="249" y="634" type="line"/>
      <point x="405" y="670"/>
      <point x="561" y="757"/>
      <point x="561" y="898" type="curve" smooth="yes"/>
      <point x="561" y="1013"/>
      <point x="483" y="1091"/>
      <point x="373" y="1091" type="curve" smooth="yes"/>
      <point x="339" y="1091"/>
      <point x="304" y="1079"/>
      <point x="279" y="1061" type="curve"/>
      <point x="227" y="770" type="line"/>
      <point x="101" y="782" type="line"/>
      <point x="60" y="1104" type="line"/>
      <point x="108" y="1154"/>
      <point x="298" y="1218"/>
      <point x="445" y="1218" type="curve" smooth="yes"/>
      <point x="681" y="1218"/>
      <point x="866" y="1146"/>
      <point x="866" y="962" type="curve" smooth="yes"/>
      <point x="866" y="800"/>
      <point x="669" y="703"/>
      <point x="549" y="661" type="curve"/>
      <point x="549" y="646" type="line"/>
      <point x="763" y="638"/>
      <point x="907" y="538"/>
      <point x="909" y="370" type="curve" smooth="yes"/>
      <point x="912" y="152"/>
      <point x="665" y="-24"/>
      <point x="335" y="-24" type="curve" smooth="yes"/>
      <point x="213" y="-24"/>
      <point x="103" y="10"/>
    </contour>
  </outline>
</glyph>
<glyph name="four" format="1">
  <advance width="1127"/>
  <unicode hex="0034"/>
  <outline>
    <contour>
      <point x="47" y="448" type="line"/>
      <point x="741" y="1218" type="line"/>
      <point x="836" y="1193" type="line"/>
      <point x="830" y="1073"/>
      <point x="825" y="863"/>
      <point x="825" y="682" type="curve" smooth="yes"/>
      <point x="825" y="496" type="line"/>
      <point x="1080" y="496" type="line"/>
      <point x="1064" y="331" type="line"/>
      <point x="825" y="331" type="line"/>
      <point x="825" y="147" type="line"/>
      <point x="1041" y="102" type="line"/>
      <point x="1031" y="-1" type="line"/>
      <point x="324" y="-1" type="line"/>
      <point x="329" y="90" type="line"/>
      <point x="571" y="150" type="line"/>
      <point x="571" y="334" type="line"/>
      <point x="71" y="334" type="line"/>
    </contour>
    <contour>
      <point x="297" y="496" type="line"/>
      <point x="569" y="496" type="line"/>
      <point x="569" y="864" type="line"/>
    </contour>
  </outline>
</glyph>
<glyph name="five" format="1">
  <advance width="865"/>
  <unicode hex="0035"/>
  <outline>
    <contour>
      <point x="46" y="40" type="curve"/>
      <point x="98" y="408" type="line"/>
      <point x="216" y="380" type="line"/>
      <point x="247" y="136" type="line"/>
      <point x="276" y="100"/>
      <point x="322" y="84"/>
      <point x="376" y="84" type="curve" smooth="yes"/>
      <point x="477" y="84"/>
      <point x="564" y="152"/>
      <point x="564" y="269" type="curve" smooth="yes"/>
      <point x="564" y="431"/>
      <point x="421" y="550"/>
      <point x="131" y="560" type="curve"/>
      <point x="252" y="1168" type="line"/>
      <point x="761" y="1198" type="line"/>
      <point x="726" y="952" type="line"/>
      <point x="334" y="938" type="line"/>
      <point x="310" y="766" type="line"/>
      <point x="684" y="754"/>
      <point x="815" y="572"/>
      <point x="815" y="368" type="curve" smooth="yes"/>
      <point x="815" y="131"/>
      <point x="560" y="-38"/>
      <point x="305" y="-38" type="curve" smooth="yes"/>
      <point x="204" y="-38"/>
      <point x="114" y="-18"/>
    </contour>
  </outline>
</glyph>
<glyph name="six" format="1">
  <advance width="970"/>
  <unicode hex="0036"/>
  <outline>
    <contour>
      <point x="53" y="420" type="curve" smooth="yes"/>
      <point x="53" y="816"/>
      <point x="431" y="1128"/>
      <point x="731" y="1214" type="curve"/>
      <point x="783" y="1140" type="line"/>
      <point x="563" y="1032"/>
      <point x="391" y="832"/>
      <point x="351" y="636" type="curve"/>
      <point x="367" y="636" type="line"/>
      <point x="417" y="692"/>
      <point x="497" y="732"/>
      <point x="591" y="732" type="curve" smooth="yes"/>
      <point x="779" y="732"/>
      <point x="919" y="600"/>
      <point x="919" y="386" type="curve" smooth="yes"/>
      <point x="919" y="118"/>
      <point x="694" y="-20"/>
      <point x="478" y="-20" type="curve" smooth="yes"/>
      <point x="190" y="-20"/>
      <point x="53" y="186"/>
    </contour>
    <contour>
      <point x="340" y="386" type="curve" smooth="yes"/>
      <point x="340" y="246"/>
      <point x="381" y="92"/>
      <point x="484" y="92" type="curve" smooth="yes"/>
      <point x="588" y="92"/>
      <point x="633" y="181"/>
      <point x="633" y="329" type="curve" smooth="yes"/>
      <point x="633" y="425"/>
      <point x="613" y="580"/>
      <point x="489" y="580" type="curve" smooth="yes"/>
      <point x="425" y="580"/>
      <point x="371" y="546"/>
      <point x="347" y="514" type="curve"/>
      <point x="345" y="484"/>
      <point x="340" y="425"/>
    </contour>
  </outline>
</glyph>
<glyph name="seven" format="1">
  <advance width="949"/>
  <unicode hex="0037"/>
  <outline>
    <contour>
      <point x="48" y="746" type="line"/>
      <point x="67" y="1183" type="line"/>
      <point x="904" y="1183" type="line"/>
      <point x="904" y="1094" type="line"/>
      <point x="460" y="-33" type="line"/>
      <point x="158" y="-2" type="line"/>
      <point x="677" y="952" type="line"/>
      <point x="237" y="952" type="line"/>
      <point x="149" y="726" type="line"/>
    </contour>
  </outline>
</glyph>
<glyph name="eight" format="1">
  <advance width="942"/>
  <unicode hex="0038"/>
  <outline>
    <contour>
      <point x="47" y="275" type="curve" smooth="yes"/>
      <point x="47" y="392"/>
      <point x="112" y="488"/>
      <point x="270" y="566" type="curve"/>
      <point x="270" y="578" type="line"/>
      <point x="168" y="653"/>
      <point x="92" y="743"/>
      <point x="92" y="871" type="curve" smooth="yes"/>
      <point x="92" y="1039"/>
      <point x="242" y="1200"/>
      <point x="498" y="1200" type="curve" smooth="yes"/>
      <point x="712" y="1200"/>
      <point x="849" y="1071"/>
      <point x="849" y="926" type="curve" smooth="yes"/>
      <point x="849" y="822"/>
      <point x="767" y="708"/>
      <point x="651" y="660" type="curve"/>
      <point x="650" y="647" type="line"/>
      <point x="815" y="533"/>
      <point x="894" y="449"/>
      <point x="894" y="316" type="curve" smooth="yes"/>
      <point x="894" y="128"/>
      <point x="722" y="-27"/>
      <point x="436" y="-27" type="curve" smooth="yes"/>
      <point x="192" y="-27"/>
      <point x="47" y="105"/>
    </contour>
    <contour>
      <point x="312" y="326" type="curve" smooth="yes"/>
      <point x="312" y="184"/>
      <point x="394" y="88"/>
      <point x="510" y="88" type="curve" smooth="yes"/>
      <point x="586" y="88"/>
      <point x="642" y="136"/>
      <point x="642" y="214" type="curve" smooth="yes"/>
      <point x="642" y="310"/>
      <point x="511" y="392"/>
      <point x="375" y="494" type="curve"/>
      <point x="331" y="446"/>
      <point x="312" y="416"/>
    </contour>
    <contour>
      <point x="353" y="970" type="curve" smooth="yes"/>
      <point x="353" y="894"/>
      <point x="424" y="795"/>
      <point x="544" y="724" type="curve"/>
      <point x="598" y="757"/>
      <point x="615" y="800"/>
      <point x="615" y="882" type="curve" smooth="yes"/>
      <point x="615" y="1015"/>
      <point x="544" y="1094"/>
      <point x="464" y="1094" type="curve" smooth="yes"/>
      <point x="390" y="1094"/>
      <point x="353" y="1036"/>
    </contour>
  </outline>
</glyph>
<glyph name="nine" format="1">
  <advance width="949"/>
  <unicode hex="0039"/>
  <outline>
    <contour>
      <point x="49" y="780" type="curve" smooth="yes"/>
      <point x="49" y="1054"/>
      <point x="257" y="1214"/>
      <point x="473" y="1214" type="curve" smooth="yes"/>
      <point x="767" y="1214"/>
      <point x="895" y="1022"/>
      <point x="895" y="772" type="curve" smooth="yes"/>
      <point x="895" y="363"/>
      <point x="634" y="25"/>
      <point x="241" y="-26" type="curve"/>
      <point x="205" y="68" type="line"/>
      <point x="463" y="154"/>
      <point x="567" y="314"/>
      <point x="591" y="521" type="curve"/>
      <point x="581" y="526" type="line"/>
      <point x="525" y="469"/>
      <point x="435" y="444"/>
      <point x="351" y="444" type="curve" smooth="yes"/>
      <point x="187" y="444"/>
      <point x="49" y="560"/>
    </contour>
    <contour>
      <point x="329" y="856" type="curve" smooth="yes"/>
      <point x="329" y="706"/>
      <point x="363" y="599"/>
      <point x="463" y="599" type="curve" smooth="yes"/>
      <point x="509" y="599"/>
      <point x="561" y="620"/>
      <point x="593" y="660" type="curve"/>
      <point x="599" y="700"/>
      <point x="602" y="769"/>
      <point x="602" y="817" type="curve" smooth="yes"/>
      <point x="602" y="979"/>
      <point x="551" y="1098"/>
      <point x="461" y="1098" type="curve" smooth="yes"/>
      <point x="359" y="1098"/>
      <point x="329" y="1016"/>
    </contour>
  </outline>
</glyph>
<glyph name="semicolon" format="1">
  <advance width="449"/>
  <unicode hex="003B"/>
  <outline>
    <contour>
      <point x="84" y="755" type="curve" smooth="yes"/>
      <point x="84" y="812.6"/>
      <point x="129" y="873.8"/>
      <point x="231.6" y="873.8" type="curve" smooth="yes"/>
      <point x="339.6" y="873.8"/>
      <point x="384.6" y="812.6"/>
      <point x="384.6" y="755" type="curve" smooth="yes"/>
      <point x="384.6" y="686.6"/>
      <point x="336.899" y="630.8"/>
      <point x="231.6" y="630.8" type="curve" smooth="yes"/>
      <point x="123.6" y="630.8"/>
      <point x="84" y="692"/>
    </contour>
    <contour>
      <point x="84" y="-102.8" type="line"/>
      <point x="195.6" y="-70.4004"/>
      <point x="239.699" y="-0.200195"/>
      <point x="239.699" y="56.5" type="curve" smooth="yes"/>
      <point x="239.699" y="106.9"/>
      <point x="201.899" y="144.7"/>
      <point x="148.8" y="144.7" type="curve" smooth="yes"/>
      <point x="137.1" y="144.7"/>
      <point x="123.6" y="142.9"/>
      <point x="111" y="138.4" type="curve"/>
      <point x="98.3994" y="163.6"/>
      <point x="90.2998" y="183.4"/>
      <point x="90.2998" y="210.4" type="curve" smooth="yes"/>
      <point x="90.2998" y="300.4"/>
      <point x="161.399" y="347.2"/>
      <point x="236.1" y="347.2" type="curve" smooth="yes"/>
      <point x="348.6" y="347.2"/>
      <point x="424.199" y="270.7"/>
      <point x="424.199" y="133.9" type="curve" smooth="yes"/>
      <point x="424.199" y="18.7002"/>
      <point x="355.8" y="-137.9"/>
      <point x="113.699" y="-186.5" type="curve"/>
    </contour>
    <contour>
      <point x="109.1" y="1098" type="move"/>
    </contour>
  </outline>
</glyph>
<glyph name="greater" format="1">
  <advance width="825"/>
  <unicode hex="003E"/>
  <outline>
    <contour>
      <point x="40" y="12" type="line"/>
      <point x="444" y="454" type="line"/>
      <point x="56" y="870" type="line"/>
      <point x="157" y="974" type="line"/>
      <point x="777" y="494" type="line"/>
      <point x="777" y="419" type="line"/>
      <point x="144" y="-84" type="line"/>
    </contour>
  </outline>
</glyph>
<glyph name="B" format="1">
  <advance width="1228"/>
  <unicode hex="0042"/>
  <outline>
    <contour>
      <point x="46" y="0" type="line"/>
      <point x="59" y="106" type="line"/>
      <point x="225" y="169" type="line"/>
      <point x="225" y="1056" type="line"/>
      <point x="55" y="1093" type="line"/>
      <point x="65" y="1211" type="line"/>
      <point x="209" y="1231"/>
      <point x="428" y="1257"/>
      <point x="605" y="1257" type="curve" smooth="yes"/>
      <point x="963" y="1257"/>
      <point x="1092" y="1109"/>
      <point x="1092" y="959" type="curve" smooth="yes"/>
      <point x="1092" y="851"/>
      <point x="1019" y="728"/>
      <point x="887" y="682" type="curve"/>
      <point x="887" y="673" type="line"/>
      <point x="1091" y="662"/>
      <point x="1185" y="511"/>
      <point x="1185" y="380" type="curve" smooth="yes"/>
      <point x="1185" y="166"/>
      <point x="1015" y="0"/>
      <point x="627" y="0" type="curve" smooth="yes"/>
    </contour>
    <contour>
      <point x="507" y="141" type="line"/>
      <point x="673" y="141" type="line" smooth="yes"/>
      <point x="811" y="141"/>
      <point x="899" y="230"/>
      <point x="899" y="348" type="curve" smooth="yes"/>
      <point x="899" y="472"/>
      <point x="812" y="583"/>
      <point x="658" y="583" type="curve" smooth="yes"/>
      <point x="507" y="583" type="line"/>
    </contour>
    <contour>
      <point x="507" y="708" type="line"/>
      <point x="723" y="708" type="line"/>
      <point x="787" y="750"/>
      <point x="819" y="811"/>
      <point x="819" y="903" type="curve" smooth="yes"/>
      <point x="819" y="1021"/>
      <point x="757" y="1126"/>
      <point x="573" y="1126" type="curve" smooth="yes"/>
      <point x="553" y="1126"/>
      <point x="530" y="1124"/>
      <point x="507" y="1120" type="curve"/>
    </contour>
  </outline>
</glyph>
<glyph name="C" format="1">
  <advance width="1232"/>
  <unicode hex="0043"/>
  <outline>
    <contour>
      <point x="47" y="586" type="curve" smooth="yes"/>
      <point x="47" y="880"/>
      <point x="233" y="1270"/>
      <point x="765" y="1270" type="curve" smooth="yes"/>
      <point x="896" y="1270"/>
      <point x="1069" y="1237"/>
      <point x="1155" y="1170" type="curve"/>
      <point x="1125" y="792" type="line"/>
      <point x="995" y="810" type="line"/>
      <point x="943" y="1036" type="line"/>
      <point x="897" y="1094"/>
      <point x="804" y="1132"/>
      <point x="705" y="1132" type="curve" smooth="yes"/>
      <point x="491" y="1132"/>
      <point x="351" y="973"/>
      <point x="351" y="682" type="curve" smooth="yes"/>
      <point x="351" y="344"/>
      <point x="535" y="158"/>
      <point x="799" y="158" type="curve" smooth="yes"/>
      <point x="939" y="158"/>
      <point x="1060" y="217"/>
      <point x="1147" y="281" type="curve"/>
      <point x="1195" y="176" type="line"/>
      <point x="1117" y="84"/>
      <point x="926" y="-26"/>
      <point x="695" y="-26" type="curve" smooth="yes"/>
      <point x="309" y="-26"/>
      <point x="47" y="196"/>
    </contour>
  </outline>
</glyph>
<glyph name="D" format="1">
  <advance width="1444"/>
  <unicode hex="0044"/>
  <outline>
    <contour>
      <point x="43" y="0" type="line"/>
      <point x="61" y="106" type="line"/>
      <point x="237" y="185" type="line"/>
      <point x="237" y="1053" type="line"/>
      <point x="65" y="1091" type="line"/>
      <point x="73" y="1208" type="line"/>
      <point x="269" y="1239"/>
      <point x="481" y="1258"/>
      <point x="625" y="1258" type="curve" smooth="yes"/>
      <point x="1241" y="1258"/>
      <point x="1397" y="960"/>
      <point x="1397" y="652" type="curve" smooth="yes"/>
      <point x="1397" y="310"/>
      <point x="1110" y="0"/>
      <point x="599" y="0" type="curve" smooth="yes"/>
    </contour>
    <contour>
      <point x="517" y="153" type="line"/>
      <point x="627" y="153" type="line" smooth="yes"/>
      <point x="983" y="153"/>
      <point x="1089" y="395"/>
      <point x="1089" y="598" type="curve" smooth="yes"/>
      <point x="1089" y="849"/>
      <point x="935" y="1106"/>
      <point x="587" y="1106" type="curve" smooth="yes"/>
      <point x="547" y="1106"/>
      <point x="557" y="1103"/>
      <point x="517" y="1101" type="curve"/>
    </contour>
  </outline>
</glyph>
<glyph name="G" format="1">
  <advance width="1381"/>
  <unicode hex="0047"/>
  <outline>
    <contour>
      <point x="47" y="579" type="curve" smooth="yes"/>
      <point x="47" y="1017"/>
      <point x="403" y="1266"/>
      <point x="756" y="1266" type="curve" smooth="yes"/>
      <point x="978" y="1266"/>
      <point x="1106" y="1219"/>
      <point x="1207" y="1174" type="curve"/>
      <point x="1175" y="794" type="line"/>
      <point x="1037" y="808" type="line"/>
      <point x="999" y="1013" type="line"/>
      <point x="947" y="1065"/>
      <point x="850" y="1124"/>
      <point x="707" y="1124" type="curve" smooth="yes"/>
      <point x="513" y="1124"/>
      <point x="359" y="996"/>
      <point x="359" y="672" type="curve" smooth="yes"/>
      <point x="359" y="370"/>
      <point x="510" y="128"/>
      <point x="765" y="128" type="curve" smooth="yes"/>
      <point x="841" y="128"/>
      <point x="903" y="149"/>
      <point x="943" y="177" type="curve"/>
      <point x="943" y="394" type="line"/>
      <point x="715" y="446" type="line"/>
      <point x="732" y="573" type="line"/>
      <point x="1340" y="573" type="line"/>
      <point x="1323" y="458" type="line"/>
      <point x="1209" y="401" type="line"/>
      <point x="1209" y="86" type="line"/>
      <point x="1100" y="19"/>
      <point x="894" y="-28"/>
      <point x="716" y="-28" type="curve" smooth="yes"/>
      <point x="268" y="-28"/>
      <point x="47" y="211"/>
    </contour>
  </outline>
</glyph>
<glyph name="H" format="1">
  <advance width="1576"/>
  <unicode hex="0048"/>
  <outline>
    <contour>
      <point x="47" y="1131" type="line"/>
      <point x="65" y="1244" type="line"/>
      <point x="697" y="1244" type="line"/>
      <point x="682" y="1131" type="line"/>
      <point x="515" y="1078" type="line"/>
      <point x="515" y="718" type="line"/>
      <point x="1052" y="718" type="line"/>
      <point x="1052" y="1073" type="line"/>
      <point x="870" y="1131" type="line"/>
      <point x="884" y="1244" type="line"/>
      <point x="1521" y="1244" type="line"/>
      <point x="1506" y="1131" type="line"/>
      <point x="1338" y="1078" type="line"/>
      <point x="1338" y="162" type="line"/>
      <point x="1518" y="114" type="line"/>
      <point x="1506" y="0" type="line"/>
      <point x="874" y="0" type="line"/>
      <point x="886" y="106" type="line"/>
      <point x="1052" y="169" type="line"/>
      <point x="1052" y="541" type="line"/>
      <point x="515" y="541" type="line"/>
      <point x="515" y="162" type="line"/>
      <point x="698" y="114" type="line"/>
      <point x="682" y="0" type="line"/>
      <point x="53" y="0" type="line"/>
      <point x="63" y="106" type="line"/>
      <point x="231" y="169" type="line"/>
      <point x="231" y="1073" type="line"/>
    </contour>
  </outline>
</glyph>
<glyph name="I" format="1">
  <advance width="755"/>
  <unicode hex="0049"/>
  <outline>
    <contour>
      <point x="49" y="1131" type="line"/>
      <point x="64" y="1244" type="line"/>
      <point x="700" y="1244" type="line"/>
      <point x="687" y="1126" type="line"/>
      <point x="513" y="1074" type="line"/>
      <point x="513" y="168" type="line"/>
      <point x="694" y="120" type="line"/>
      <point x="682" y="0" type="line"/>
      <point x="54" y="0" type="line"/>
      <point x="62" y="108" type="line"/>
      <point x="234" y="171" type="line"/>
      <point x="234" y="1073" type="line"/>
    </contour>
  </outline>
</glyph>
<glyph name="J" format="1">
  <advance width="763"/>
  <unicode hex="004A"/>
  <outline>
    <contour>
      <point x="35" y="-194" type="line"/>
      <point x="184" y="-63"/>
      <point x="255" y="89"/>
      <point x="255" y="241" type="curve" smooth="yes"/>
      <point x="255" y="1073" type="line"/>
      <point x="75" y="1131" type="line"/>
      <point x="90" y="1244" type="line"/>
      <point x="721" y="1244" type="line"/>
      <point x="706" y="1131" type="line"/>
      <point x="536" y="1078" type="line"/>
      <point x="535" y="410" type="line" smooth="yes"/>
      <point x="536" y="2"/>
      <point x="444" y="-124"/>
      <point x="121" y="-326" type="curve"/>
    </contour>
  </outline>
</glyph>
<glyph name="K" format="1">
  <advance width="1452"/>
  <unicode hex="004B"/>
  <outline>
    <contour>
      <point x="47" y="1131" type="line"/>
      <point x="69" y="1244" type="line"/>
      <point x="699" y="1244" type="line"/>
      <point x="684" y="1131" type="line"/>
      <point x="530" y="1060" type="line"/>
      <point x="530" y="182" type="line"/>
      <point x="722" y="114" type="line"/>
      <point x="711" y="0" type="line"/>
      <point x="51" y="0" type="line"/>
      <point x="65" y="106" type="line"/>
      <point x="251" y="185" type="line"/>
      <point x="251" y="1055" type="line"/>
    </contour>
    <contour>
      <point x="565" y="640" type="line"/>
      <point x="587" y="664"/>
      <point x="645" y="730"/>
      <point x="673" y="769" type="curve" smooth="yes"/>
      <point x="882" y="1062" type="line"/>
      <point x="811" y="1125" type="line"/>
      <point x="829" y="1244" type="line"/>
      <point x="1335" y="1244" type="line"/>
      <point x="1315" y="1131" type="line"/>
      <point x="1114" y="1060" type="line"/>
      <point x="811" y="669" type="line"/>
      <point x="1004" y="428" type="line" smooth="yes"/>
      <point x="1160" y="229"/>
      <point x="1225" y="149"/>
      <point x="1371" y="111" type="curve" smooth="yes"/>
      <point x="1401" y="102" type="line"/>
      <point x="1381" y="2" type="line"/>
      <point x="1335" y="-15"/>
      <point x="1245" y="-24"/>
      <point x="1205" y="-24" type="curve" smooth="yes"/>
      <point x="1005" y="-24"/>
      <point x="877" y="114"/>
      <point x="757" y="304" type="curve" smooth="yes"/>
      <point x="563" y="594" type="line"/>
    </contour>
  </outline>
</glyph>
<glyph name="L" format="1">
  <advance width="1188"/>
  <unicode hex="004C"/>
  <outline>
    <contour>
      <point x="52" y="0" type="line"/>
      <point x="65" y="106" type="line"/>
      <point x="227" y="169" type="line"/>
      <point x="227" y="1058" type="line"/>
      <point x="47" y="1133" type="line"/>
      <point x="63" y="1244" type="line"/>
      <point x="710" y="1244" type="line"/>
      <point x="695" y="1133" type="line"/>
      <point x="511" y="1060" type="line"/>
      <point x="511" y="148" type="line"/>
      <point x="867" y="137" type="line"/>
      <point x="1019" y="398" type="line"/>
      <point x="1145" y="380" type="line"/>
      <point x="1103" y="0" type="line"/>
    </contour>
  </outline>
</glyph>
<glyph name="O" format="1">
  <advance width="1397"/>
  <unicode hex="004F"/>
  <outline>
    <contour>
      <point x="47" y="619" type="curve" smooth="yes"/>
      <point x="47" y="1004"/>
      <point x="293" y="1270"/>
      <point x="727" y="1270" type="curve" smooth="yes"/>
      <point x="1115" y="1270"/>
      <point x="1350" y="1031"/>
      <point x="1350" y="616" type="curve" smooth="yes"/>
      <point x="1350" y="235"/>
      <point x="1082" y="-27"/>
      <point x="657" y="-27" type="curve" smooth="yes"/>
      <point x="249" y="-27"/>
      <point x="47" y="248"/>
    </contour>
    <contour>
      <point x="363" y="674" type="curve" smooth="yes"/>
      <point x="363" y="454"/>
      <point x="444" y="121"/>
      <point x="708" y="121" type="curve" smooth="yes"/>
      <point x="946" y="121"/>
      <point x="1027" y="309"/>
      <point x="1027" y="573" type="curve" smooth="yes"/>
      <point x="1027" y="788"/>
      <point x="949" y="1135"/>
      <point x="679" y="1135" type="curve" smooth="yes"/>
      <point x="434" y="1135"/>
      <point x="363" y="936"/>
    </contour>
  </outline>
</glyph>
<glyph name="Q" format="1">
  <advance width="1399"/>
  <unicode hex="0051"/>
  <outline>
    <contour>
      <point x="47" y="608" type="curve" smooth="yes"/>
      <point x="47" y="994"/>
      <point x="311" y="1270"/>
      <point x="735" y="1270" type="curve" smooth="yes"/>
      <point x="1121" y="1270"/>
      <point x="1352" y="1030"/>
      <point x="1352" y="626" type="curve" smooth="yes"/>
      <point x="1352" y="323"/>
      <point x="1175" y="77"/>
      <point x="903" y="5" type="curve"/>
      <point x="965" y="-123"/>
      <point x="1098" y="-196"/>
      <point x="1336" y="-238" type="curve"/>
      <point x="1336" y="-250"/>
      <point x="1324" y="-334"/>
      <point x="1321" y="-343" type="curve"/>
      <point x="1245" y="-373"/>
      <point x="1167" y="-384"/>
      <point x="1091" y="-384" type="curve" smooth="yes"/>
      <point x="887" y="-384"/>
      <point x="703" y="-266"/>
      <point x="711" y="-24" type="curve"/>
      <point x="697" y="-26"/>
      <point x="675" y="-27"/>
      <point x="659" y="-27" type="curve" smooth="yes"/>
      <point x="265" y="-27"/>
      <point x="47" y="237"/>
    </contour>
    <contour>
      <point x="356" y="675" type="curve" smooth="yes"/>
      <point x="356" y="441.825"/>
      <point x="460" y="137.901"/>
      <point x="777" y="110" type="curve"/>
      <point x="991" y="183.678"/>
      <point x="1033" y="356.922"/>
      <point x="1033" y="568" type="curve" smooth="yes"/>
      <point x="1033" y="797.545"/>
      <point x="935" y="1111"/>
      <point x="677" y="1111" type="curve" smooth="yes"/>
      <point x="457" y="1111"/>
      <point x="356" y="948.456"/>
    </contour>
  </outline>
</glyph>
<glyph name="V" format="1">
  <advance width="1463"/>
  <unicode hex="0056"/>
  <outline>
    <contour>
      <point x="43" y="1128" type="line"/>
      <point x="57" y="1244" type="line"/>
      <point x="705" y="1244" type="line"/>
      <point x="688" y="1128" type="line"/>
      <point x="522" y="1078" type="line"/>
      <point x="796" y="336" type="line"/>
      <point x="1065" y="1076" type="line"/>
      <point x="887" y="1128" type="line"/>
      <point x="898" y="1244" type="line"/>
      <point x="1418" y="1244" type="line"/>
      <point x="1407" y="1128" type="line"/>
      <point x="1274" y="1078" type="line"/>
      <point x="865" y="20" type="line"/>
      <point x="612" y="-24" type="line"/>
      <point x="189" y="1076" type="line"/>
    </contour>
  </outline>
</glyph>
<glyph name="W" format="1">
  <advance width="2019"/>
  <unicode hex="0057"/>
  <outline>
    <contour>
      <point x="43" y="1128" type="line"/>
      <point x="53" y="1244" type="line"/>
      <point x="688" y="1244" type="line"/>
      <point x="663" y="1124" type="line"/>
      <point x="503" y="1078" type="line"/>
      <point x="701" y="378" type="line"/>
      <point x="929" y="1197" type="line"/>
      <point x="1186" y="1230" type="line"/>
      <point x="1413" y="394" type="line"/>
      <point x="1620" y="1078" type="line"/>
      <point x="1446" y="1126" type="line"/>
      <point x="1462" y="1244" type="line"/>
      <point x="1976" y="1244" type="line"/>
      <point x="1958" y="1128" type="line"/>
      <point x="1831" y="1082" type="line"/>
      <point x="1481" y="21" type="line"/>
      <point x="1237" y="-24" type="line"/>
      <point x="1003" y="836" type="line"/>
      <point x="771" y="21" type="line"/>
      <point x="517" y="-24" type="line"/>
      <point x="201" y="1074" type="line"/>
    </contour>
  </outline>
</glyph>
<glyph name="X" format="1">
  <advance width="1363"/>
  <unicode hex="0058"/>
  <outline>
    <contour>
      <point x="46" y="0" type="line"/>
      <point x="64" y="116" type="line"/>
      <point x="192" y="177" type="line"/>
      <point x="538" y="602" type="line"/>
      <point x="198" y="1068" type="line"/>
      <point x="66" y="1116" type="line"/>
      <point x="86" y="1244" type="line"/>
      <point x="666" y="1244" type="line"/>
      <point x="647" y="1121" type="line"/>
      <point x="523" y="1066" type="line"/>
      <point x="727" y="769" type="line"/>
      <point x="942" y="1070" type="line"/>
      <point x="800" y="1125" type="line"/>
      <point x="820" y="1244" type="line"/>
      <point x="1291" y="1244" type="line"/>
      <point x="1275" y="1128" type="line"/>
      <point x="1146" y="1072" type="line"/>
      <point x="825" y="650" type="line"/>
      <point x="1192" y="170" type="line"/>
      <point x="1310" y="130" type="line"/>
      <point x="1291" y="0" type="line"/>
      <point x="718" y="0" type="line"/>
      <point x="738" y="120" type="line"/>
      <point x="864" y="176" type="line"/>
      <point x="641" y="486" type="line"/>
      <point x="414" y="174" type="line"/>
      <point x="568" y="125" type="line"/>
      <point x="546" y="0" type="line"/>
    </contour>
  </outline>
</glyph>
<glyph name="Y" format="1">
  <advance width="1310"/>
  <unicode hex="0059"/>
  <outline>
    <contour>
      <point x="41" y="1128" type="line"/>
      <point x="63" y="1244" type="line"/>
      <point x="647" y="1244" type="line"/>
      <point x="627" y="1128" type="line"/>
      <point x="511" y="1079" type="line"/>
      <point x="724" y="690" type="line"/>
      <point x="931" y="1076" type="line"/>
      <point x="791" y="1128" type="line"/>
      <point x="807" y="1244" type="line"/>
      <point x="1267" y="1244" type="line"/>
      <point x="1249" y="1128" type="line"/>
      <point x="1130" y="1078" type="line"/>
      <point x="799" y="514" type="line"/>
      <point x="799" y="168" type="line"/>
      <point x="965" y="110" type="line"/>
      <point x="953" y="0" type="line"/>
      <point x="349" y="0" type="line"/>
      <point x="363" y="106" type="line"/>
      <point x="517" y="169" type="line"/>
      <point x="517" y="494" type="line"/>
      <point x="177" y="1076" type="line"/>
    </contour>
  </outline>
</glyph>
<glyph name="bracketright" format="1">
  <advance width="538"/>
  <unicode hex="005D"/>
  <outline>
    <contour>
      <point x="41" y="-246" type="line"/>
      <point x="273" y="-226" type="line"/>
      <point x="273" y="1110" type="line"/>
      <point x="45" y="1130" type="line"/>
      <point x="66" y="1255" type="line"/>
      <point x="461" y="1255" type="line"/>
      <point x="463" y="-377" type="line"/>
      <point x="60" y="-376" type="line"/>
    </contour>
  </outline>
</glyph>
<glyph name="underscore" format="1">
  <advance width="961"/>
  <unicode hex="005F"/>
  <outline>
    <contour>
      <point x="60" y="-131" type="line"/>
      <point x="74" y="12" type="line"/>
      <point x="901" y="12" type="line"/>
      <point x="888" y="-131" type="line"/>
    </contour>
  </outline>
</glyph>
<glyph name="a" format="1">
  <advance width="928"/>
  <unicode hex="0061"/>
  <outline>
    <contour>
      <point x="51" y="178" type="curve" smooth="yes"/>
      <point x="51" y="341"/>
      <point x="199" y="488"/>
      <point x="510" y="499" type="curve"/>
      <point x="510" y="574" type="line" smooth="yes"/>
      <point x="510" y="688"/>
      <point x="462" y="787"/>
      <point x="359" y="787" type="curve" smooth="yes"/>
      <point x="285" y="787"/>
      <point x="275" y="728"/>
      <point x="263" y="572" type="curve"/>
      <point x="177" y="572"/>
      <point x="79" y="584"/>
      <point x="79" y="689" type="curve" smooth="yes"/>
      <point x="79" y="801"/>
      <point x="312" y="924"/>
      <point x="485" y="924" type="curve" smooth="yes"/>
      <point x="647" y="924"/>
      <point x="745" y="838"/>
      <point x="745" y="617" type="curve" smooth="yes"/>
      <point x="745" y="302" type="line" smooth="yes"/>
      <point x="745" y="204"/>
      <point x="743" y="171"/>
      <point x="840" y="153" type="curve" smooth="yes"/>
      <point x="879" y="146" type="line"/>
      <point x="860" y="18" type="line"/>
      <point x="817" y="-8"/>
      <point x="779" y="-21"/>
      <point x="701" y="-21" type="curve" smooth="yes"/>
      <point x="589" y="-21"/>
      <point x="557" y="41"/>
      <point x="541" y="111" type="curve" smooth="yes"/>
      <point x="538" y="125" type="line"/>
      <point x="526" y="128" type="line"/>
      <point x="498" y="62"/>
      <point x="394" y="-24"/>
      <point x="259" y="-24" type="curve" smooth="yes"/>
      <point x="139" y="-24"/>
      <point x="51" y="44"/>
    </contour>
    <contour>
      <point x="287" y="247" type="curve" smooth="yes"/>
      <point x="287" y="202"/>
      <point x="320" y="152"/>
      <point x="382" y="152" type="curve" smooth="yes"/>
      <point x="430" y="152"/>
      <point x="480" y="183"/>
      <point x="510" y="211" type="curve"/>
      <point x="510" y="413" type="line"/>
      <point x="339" y="385"/>
      <point x="287" y="317"/>
    </contour>
  </outline>
</glyph>
<glyph name="b" format="1">
  <advance width="1085"/>
  <unicode hex="0062"/>
  <outline>
    <contour>
      <point x="41" y="1154" type="line"/>
      <point x="62" y="1274" type="line"/>
      <point x="389" y="1298" type="line"/>
      <point x="429" y="1259" type="line"/>
      <point x="429" y="864" type="line"/>
      <point x="415" y="760" type="line"/>
      <point x="427" y="758" type="line"/>
      <point x="507" y="848"/>
      <point x="590" y="914"/>
      <point x="702" y="914" type="curve" smooth="yes"/>
      <point x="908" y="914"/>
      <point x="1040" y="738"/>
      <point x="1040" y="484" type="curve" smooth="yes"/>
      <point x="1040" y="166"/>
      <point x="789" y="-23"/>
      <point x="515" y="-23" type="curve" smooth="yes"/>
      <point x="426" y="-23"/>
      <point x="277" y="-2"/>
      <point x="189" y="50" type="curve"/>
      <point x="189" y="1077" type="line"/>
    </contour>
    <contour>
      <point x="429" y="207" type="line"/>
      <point x="471" y="167"/>
      <point x="534" y="144"/>
      <point x="597" y="144" type="curve" smooth="yes"/>
      <point x="695" y="144"/>
      <point x="776" y="244"/>
      <point x="776" y="428" type="curve" smooth="yes"/>
      <point x="776" y="550"/>
      <point x="738" y="706"/>
      <point x="610" y="706" type="curve" smooth="yes"/>
      <point x="562" y="706"/>
      <point x="499" y="691"/>
      <point x="429" y="625" type="curve"/>
    </contour>
  </outline>
</glyph>
<glyph name="c" format="1">
  <advance width="835"/>
  <unicode hex="0063"/>
  <outline>
    <contour>
      <point x="40.8975" y="420" type="curve" smooth="yes"/>
      <point x="40.8975" y="744"/>
      <point x="293.897" y="934"/>
      <point x="521.897" y="934" type="curve" smooth="yes"/>
      <point x="691.897" y="934"/>
      <point x="785.897" y="844"/>
      <point x="785.897" y="736" type="curve" smooth="yes"/>
      <point x="785.897" y="648"/>
      <point x="716.897" y="605"/>
      <point x="620.897" y="596" type="curve"/>
      <point x="576.897" y="722"/>
      <point x="531.897" y="791"/>
      <point x="459.897" y="791" type="curve" smooth="yes"/>
      <point x="356.897" y="791"/>
      <point x="297.897" y="697"/>
      <point x="297.897" y="511" type="curve" smooth="yes"/>
      <point x="297.897" y="349"/>
      <point x="383.897" y="145"/>
      <point x="565.897" y="145" type="curve" smooth="yes"/>
      <point x="669.897" y="145"/>
      <point x="727.897" y="173"/>
      <point x="789.897" y="211" type="curve"/>
      <point x="821.897" y="130" type="line"/>
      <point x="769.897" y="44"/>
      <point x="629.897" y="-30"/>
      <point x="479.897" y="-30" type="curve" smooth="yes"/>
      <point x="182.897" y="-30"/>
      <point x="40.8975" y="164"/>
    </contour>
  </outline>
</glyph>
<glyph name="d" format="1">
  <advance width="1086"/>
  <unicode hex="0064"/>
  <outline>
    <contour>
      <point x="48" y="383" type="curve" smooth="yes"/>
      <point x="48" y="658"/>
      <point x="239" y="906"/>
      <point x="510" y="906" type="curve" smooth="yes"/>
      <point x="558" y="906"/>
      <point x="623" y="890"/>
      <point x="653" y="870" type="curve"/>
      <point x="659" y="870" type="line"/>
      <point x="648" y="970" type="line"/>
      <point x="648" y="1079" type="line"/>
      <point x="485" y="1157" type="line"/>
      <point x="505" y="1276" type="line"/>
      <point x="839" y="1302" type="line"/>
      <point x="879" y="1262" type="line"/>
      <point x="879" y="295" type="line" smooth="yes"/>
      <point x="879" y="191"/>
      <point x="915" y="177"/>
      <point x="1003" y="152" type="curve" smooth="yes"/>
      <point x="1039" y="142" type="line"/>
      <point x="1021" y="16" type="line"/>
      <point x="954" y="-9"/>
      <point x="910" y="-23"/>
      <point x="830" y="-23" type="curve" smooth="yes"/>
      <point x="726" y="-23"/>
      <point x="671" y="34"/>
      <point x="655" y="116" type="curve" smooth="yes"/>
      <point x="652" y="126" type="line"/>
      <point x="641" y="128" type="line"/>
      <point x="586" y="52"/>
      <point x="511" y="-20"/>
      <point x="373" y="-20" type="curve" smooth="yes"/>
      <point x="176" y="-20"/>
      <point x="48" y="143"/>
    </contour>
    <contour>
      <point x="305" y="464" type="curve" smooth="yes"/>
      <point x="305" y="292"/>
      <point x="374" y="179"/>
      <point x="485" y="179" type="curve" smooth="yes"/>
      <point x="543" y="179"/>
      <point x="605" y="210"/>
      <point x="645" y="244" type="curve"/>
      <point x="645" y="638" type="line"/>
      <point x="592" y="714"/>
      <point x="523" y="751"/>
      <point x="471" y="751" type="curve" smooth="yes"/>
      <point x="355" y="751"/>
      <point x="305" y="612"/>
    </contour>
  </outline>
</glyph>
<glyph name="e" format="1">
  <advance width="820"/>
  <unicode hex="0065"/>
  <outline>
    <contour>
      <point x="41" y="429" type="curve" smooth="yes"/>
      <point x="41" y="730.5"/>
      <point x="264.984" y="924.5"/>
      <point x="477" y="924.5" type="curve" smooth="yes"/>
      <point x="649.678" y="924.5"/>
      <point x="763.5" y="792"/>
      <point x="763.5" y="580.5" type="curve" smooth="yes"/>
      <point x="763.5" y="547.768"/>
      <point x="752" y="450.232"/>
      <point x="745" y="416" type="curve"/>
      <point x="294" y="406" type="line"/>
      <point x="301.04" y="275.524"/>
      <point x="367.74" y="160.5"/>
      <point x="528.5" y="160.5" type="curve" smooth="yes"/>
      <point x="603" y="160.5"/>
      <point x="679" y="166"/>
      <point x="766" y="211" type="curve"/>
      <point x="786" y="98" type="line"/>
      <point x="700.5" y="10.5"/>
      <point x="561.207" y="-30.5"/>
      <point x="438" y="-30.5" type="curve" smooth="yes"/>
      <point x="221.432" y="-30.5"/>
      <point x="41" y="124"/>
    </contour>
    <contour>
      <point x="290.5" y="510.5" type="curve"/>
      <point x="525.5" y="533.5" type="line"/>
      <point x="530" y="548.013"/>
      <point x="531.5" y="586.921"/>
      <point x="531.5" y="601" type="curve" smooth="yes"/>
      <point x="531.5" y="691.109"/>
      <point x="500" y="758"/>
      <point x="421" y="758" type="curve" smooth="yes"/>
      <point x="353.07" y="758"/>
      <point x="294.702" y="667.015"/>
    </contour>
  </outline>
</glyph>
<glyph name="f" format="1">
  <advance width="719"/>
  <unicode hex="0066"/>
  <outline>
    <contour>
      <point x="45" y="0" type="line"/>
      <point x="57" y="116" type="line"/>
      <point x="210" y="173" type="line"/>
      <point x="210" y="742" type="line"/>
      <point x="61" y="742" type="line"/>
      <point x="71" y="853" type="line"/>
      <point x="209" y="876" type="line"/>
      <point x="233" y="1155.52"/>
      <point x="426" y="1305"/>
      <point x="621" y="1305" type="curve" smooth="yes"/>
      <point x="727" y="1305"/>
      <point x="855" y="1284"/>
      <point x="855" y="1172" type="curve" smooth="yes"/>
      <point x="855" y="1102"/>
      <point x="775" y="1041"/>
      <point x="717" y="1031" type="curve"/>
      <point x="677" y="1095"/>
      <point x="625" y="1176"/>
      <point x="559" y="1176" type="curve" smooth="yes"/>
      <point x="493" y="1176"/>
      <point x="445" y="1138.18"/>
      <point x="443" y="968" type="curve"/>
      <point x="441" y="870" type="line"/>
      <point x="701" y="870" type="line"/>
      <point x="689" y="742" type="line"/>
      <point x="441" y="742" type="line"/>
      <point x="441" y="180" type="line"/>
      <point x="687" y="128" type="line"/>
      <point x="679" y="0" type="line"/>
    </contour>
  </outline>
</glyph>
<glyph name="g" format="1">
  <advance width="1008"/>
  <unicode hex="0067"/>
  <outline>
    <contour>
      <point x="35" y="-156" type="curve" smooth="yes"/>
      <point x="35" y="-84"/>
      <point x="118" y="-14"/>
      <point x="194" y="12" type="curve"/>
      <point x="194" y="24" type="line"/>
      <point x="132" y="54"/>
      <point x="99" y="99"/>
      <point x="99" y="169" type="curve" smooth="yes"/>
      <point x="99" y="239"/>
      <point x="200" y="318"/>
      <point x="280" y="342" type="curve"/>
      <point x="279" y="354" type="line"/>
      <point x="221" y="374"/>
      <point x="115" y="480"/>
      <point x="115" y="606" type="curve" smooth="yes"/>
      <point x="115" y="768"/>
      <point x="270" y="920"/>
      <point x="472" y="920" type="curve" smooth="yes"/>
      <point x="600" y="920"/>
      <point x="671" y="887"/>
      <point x="717" y="857" type="curve"/>
      <point x="749" y="861"/>
      <point x="942" y="881"/>
      <point x="942" y="881" type="curve"/>
      <point x="967" y="852" type="line"/>
      <point x="925" y="700" type="line"/>
      <point x="900" y="698" type="line"/>
      <point x="793" y="732" type="line"/>
      <point x="791" y="722" type="line"/>
      <point x="799" y="700"/>
      <point x="809" y="660"/>
      <point x="809" y="627" type="curve" smooth="yes"/>
      <point x="809" y="431"/>
      <point x="631" y="317"/>
      <point x="457" y="317" type="curve" smooth="yes"/>
      <point x="426" y="317"/>
      <point x="395" y="323"/>
      <point x="379" y="326" type="curve"/>
      <point x="360" y="306"/>
      <point x="341" y="281"/>
      <point x="341" y="257" type="curve" smooth="yes"/>
      <point x="341" y="223"/>
      <point x="368" y="196"/>
      <point x="481" y="196" type="curve" smooth="yes"/>
      <point x="617" y="196" type="line" smooth="yes"/>
      <point x="804" y="196"/>
      <point x="925" y="146"/>
      <point x="925" y="-27" type="curve" smooth="yes"/>
      <point x="925" y="-204"/>
      <point x="707" y="-386"/>
      <point x="409" y="-386" type="curve" smooth="yes"/>
      <point x="249" y="-386"/>
      <point x="35" y="-340"/>
    </contour>
    <contour>
      <point x="262" y="-94" type="curve" smooth="yes"/>
      <point x="262" y="-200"/>
      <point x="345" y="-243"/>
      <point x="477" y="-243" type="curve" smooth="yes"/>
      <point x="598" y="-243"/>
      <point x="685" y="-205"/>
      <point x="685" y="-102" type="curve" smooth="yes"/>
      <point x="685" y="-22"/>
      <point x="630" y="3"/>
      <point x="482" y="3" type="curve" smooth="yes"/>
      <point x="297" y="3" type="line"/>
      <point x="292" y="-12"/>
      <point x="262" y="-36"/>
    </contour>
    <contour>
      <point x="335" y="626" type="curve" smooth="yes"/>
      <point x="335" y="468"/>
      <point x="442" y="422"/>
      <point x="463" y="422" type="curve" smooth="yes"/>
      <point x="553" y="422"/>
      <point x="589" y="468"/>
      <point x="589" y="609" type="curve" smooth="yes"/>
      <point x="589" y="671"/>
      <point x="553" y="818"/>
      <point x="449" y="818" type="curve" smooth="yes"/>
      <point x="379" y="818"/>
      <point x="335" y="758"/>
    </contour>
  </outline>
</glyph>
<glyph name="h" format="1">
  <advance width="1182"/>
  <unicode hex="0068"/>
  <outline>
    <contour>
      <point x="52" y="-1" type="line"/>
      <point x="66" y="117" type="line"/>
      <point x="214" y="172" type="line"/>
      <point x="214" y="1080" type="line"/>
      <point x="48" y="1157" type="line"/>
      <point x="66" y="1277" type="line"/>
      <point x="406" y="1302" type="line"/>
      <point x="448" y="1262" type="line"/>
      <point x="448" y="874" type="line"/>
      <point x="430" y="754" type="line"/>
      <point x="442" y="752" type="line"/>
      <point x="530" y="846"/>
      <point x="628" y="914"/>
      <point x="740" y="914" type="curve" smooth="yes"/>
      <point x="882" y="914"/>
      <point x="984" y="845"/>
      <point x="984" y="619" type="curve" smooth="yes"/>
      <point x="984" y="170" type="line"/>
      <point x="1131" y="121" type="line"/>
      <point x="1114" y="-1" type="line"/>
      <point x="671" y="-1" type="line"/>
      <point x="677" y="114" type="line"/>
      <point x="744" y="170" type="line"/>
      <point x="746" y="504" type="line" smooth="yes"/>
      <point x="746" y="639"/>
      <point x="682" y="682"/>
      <point x="612" y="682" type="curve" smooth="yes"/>
      <point x="560" y="682"/>
      <point x="512" y="666"/>
      <point x="456" y="612" type="curve"/>
      <point x="456" y="172" type="line"/>
      <point x="586" y="122" type="line"/>
      <point x="566" y="-1" type="line"/>
    </contour>
  </outline>
</glyph>
<glyph name="i" format="1">
  <advance width="664"/>
  <unicode hex="0069"/>
  <outline>
    <contour>
      <point x="48" y="0" type="line"/>
      <point x="58" y="128" type="line"/>
      <point x="211" y="173" type="line"/>
      <point x="211" y="675" type="line"/>
      <point x="62" y="757" type="line"/>
      <point x="84" y="882" type="line"/>
      <point x="412" y="906" type="line"/>
      <point x="452" y="866" type="line"/>
      <point x="452" y="173" type="line"/>
      <point x="613" y="127" type="line"/>
      <point x="602" y="0" type="line"/>
    </contour>
    <contour>
      <point x="143" y="1166" type="curve" smooth="yes"/>
      <point x="143" y="1240"/>
      <point x="210" y="1298"/>
      <point x="318" y="1298" type="curve" smooth="yes"/>
      <point x="430" y="1298"/>
      <point x="498" y="1237"/>
      <point x="498" y="1164" type="curve" smooth="yes"/>
      <point x="498" y="1089"/>
      <point x="436" y="1024"/>
      <point x="318" y="1024" type="curve" smooth="yes"/>
      <point x="198" y="1024"/>
      <point x="143" y="1090"/>
    </contour>
  </outline>
</glyph>
<glyph name="j" format="1">
  <advance width="608"/>
  <unicode hex="006A"/>
  <outline>
    <contour>
      <point x="35" y="-254" type="line"/>
      <point x="143" y="-175"/>
      <point x="274" y="-75"/>
      <point x="274" y="195" type="curve" smooth="yes"/>
      <point x="274" y="668" type="line"/>
      <point x="126" y="752" type="line"/>
      <point x="152" y="883" type="line"/>
      <point x="474" y="905" type="line"/>
      <point x="516" y="866" type="line"/>
      <point x="516" y="150" type="line" smooth="yes"/>
      <point x="516" y="-162"/>
      <point x="318" y="-289"/>
      <point x="148" y="-365" type="curve" smooth="yes"/>
      <point x="100" y="-382" type="line"/>
    </contour>
    <contour>
      <point x="200" y="1161" type="curve" smooth="yes"/>
      <point x="200" y="1239"/>
      <point x="269" y="1302"/>
      <point x="380" y="1302" type="curve" smooth="yes"/>
      <point x="494" y="1302"/>
      <point x="560" y="1237"/>
      <point x="560" y="1160" type="curve" smooth="yes"/>
      <point x="560" y="1082"/>
      <point x="498" y="1012"/>
      <point x="378" y="1012" type="curve" smooth="yes"/>
      <point x="256" y="1012"/>
      <point x="200" y="1083"/>
    </contour>
  </outline>
</glyph>
<glyph name="k" format="1">
  <advance width="1158"/>
  <unicode hex="006B"/>
  <outline>
    <contour>
      <point x="50" y="0" type="line"/>
      <point x="63" y="128" type="line"/>
      <point x="215" y="173" type="line"/>
      <point x="215" y="1072" type="line"/>
      <point x="53" y="1149" type="line"/>
      <point x="76" y="1273" type="line"/>
      <point x="414" y="1298" type="line"/>
      <point x="457" y="1256" type="line"/>
      <point x="457" y="173" type="line"/>
      <point x="591" y="127" type="line"/>
      <point x="573" y="0" type="line"/>
    </contour>
    <contour>
      <point x="479" y="417" type="line"/>
      <point x="485" y="450" type="line"/>
      <point x="707" y="768" type="line"/>
      <point x="573" y="817" type="line"/>
      <point x="589" y="934" type="line"/>
      <point x="1069" y="934" type="line"/>
      <point x="1048" y="822" type="line"/>
      <point x="900" y="769" type="line"/>
      <point x="699" y="495" type="line"/>
      <point x="745" y="434" type="line" smooth="yes"/>
      <point x="881" y="245"/>
      <point x="951" y="153"/>
      <point x="1069" y="109" type="curve" smooth="yes"/>
      <point x="1109" y="92" type="line"/>
      <point x="1090" y="0" type="line"/>
      <point x="1076" y="-2"/>
      <point x="1010" y="-18"/>
      <point x="934" y="-18" type="curve" smooth="yes"/>
      <point x="791" y="-18"/>
      <point x="703" y="82"/>
      <point x="568" y="283" type="curve"/>
    </contour>
  </outline>
</glyph>
<glyph name="l" format="1">
  <advance width="663"/>
  <unicode hex="006C"/>
  <outline>
    <contour>
      <point x="50" y="0" type="line"/>
      <point x="63" y="128" type="line"/>
      <point x="215" y="173" type="line"/>
      <point x="215" y="1076" type="line"/>
      <point x="53" y="1154" type="line"/>
      <point x="76" y="1278" type="line"/>
      <point x="415" y="1302" type="line"/>
      <point x="456" y="1262" type="line"/>
      <point x="456" y="173" type="line"/>
      <point x="614" y="127" type="line"/>
      <point x="601" y="0" type="line"/>
    </contour>
  </outline>
</glyph>
<glyph name="m" format="1">
  <advance width="1713"/>
  <unicode hex="006D"/>
  <outline>
    <contour>
      <point x="51" y="0" type="line"/>
      <point x="64" y="116" type="line"/>
      <point x="210" y="172" type="line"/>
      <point x="210" y="680" type="line"/>
      <point x="59" y="746" type="line"/>
      <point x="77" y="867" type="line"/>
      <point x="431" y="902" type="line"/>
      <point x="459" y="872" type="line"/>
      <point x="439" y="758" type="line"/>
      <point x="451" y="756" type="line"/>
      <point x="529" y="844"/>
      <point x="626" y="912"/>
      <point x="745" y="912" type="curve" smooth="yes"/>
      <point x="847" y="912"/>
      <point x="935" y="868"/>
      <point x="967" y="746" type="curve"/>
      <point x="981" y="744" type="line"/>
      <point x="1058" y="832"/>
      <point x="1159" y="908"/>
      <point x="1277" y="908" type="curve" smooth="yes"/>
      <point x="1433" y="908"/>
      <point x="1518" y="816"/>
      <point x="1518" y="625" type="curve" smooth="yes"/>
      <point x="1518" y="172" type="line"/>
      <point x="1661" y="122" type="line"/>
      <point x="1643" y="0" type="line"/>
      <point x="1213" y="0" type="line"/>
      <point x="1216" y="116" type="line"/>
      <point x="1279" y="172" type="line"/>
      <point x="1279" y="507" type="line" smooth="yes"/>
      <point x="1279" y="619"/>
      <point x="1232" y="681"/>
      <point x="1147" y="681" type="curve" smooth="yes"/>
      <point x="1079" y="681"/>
      <point x="1031" y="650"/>
      <point x="987" y="608" type="curve"/>
      <point x="987" y="172" type="line"/>
      <point x="1126" y="122" type="line"/>
      <point x="1109" y="0" type="line"/>
      <point x="679" y="0" type="line"/>
      <point x="684" y="116" type="line"/>
      <point x="749" y="172" type="line"/>
      <point x="749" y="507" type="line" smooth="yes"/>
      <point x="749" y="623"/>
      <point x="696" y="681"/>
      <point x="617" y="681" type="curve" smooth="yes"/>
      <point x="557" y="681"/>
      <point x="499" y="658"/>
      <point x="453" y="612" type="curve"/>
      <point x="453" y="172" type="line"/>
      <point x="587" y="122" type="line"/>
      <point x="567" y="0" type="line"/>
    </contour>
  </outline>
</glyph>
<glyph name="n" format="1">
  <advance width="1188"/>
  <unicode hex="006E"/>
  <outline>
    <contour>
      <point x="49" y="0" type="line"/>
      <point x="63" y="115" type="line"/>
      <point x="209" y="172" type="line"/>
      <point x="209" y="680" type="line"/>
      <point x="61" y="747" type="line"/>
      <point x="80" y="869" type="line"/>
      <point x="431" y="903" type="line"/>
      <point x="458" y="874" type="line"/>
      <point x="438" y="759" type="line"/>
      <point x="451" y="756" type="line"/>
      <point x="531" y="844"/>
      <point x="626" y="914"/>
      <point x="745" y="914" type="curve" smooth="yes"/>
      <point x="897" y="914"/>
      <point x="989" y="821"/>
      <point x="989" y="628" type="curve" smooth="yes"/>
      <point x="989" y="172" type="line"/>
      <point x="1135" y="122" type="line"/>
      <point x="1119" y="0" type="line"/>
      <point x="676" y="0" type="line"/>
      <point x="681" y="115" type="line"/>
      <point x="750" y="172" type="line"/>
      <point x="750" y="503" type="line" smooth="yes"/>
      <point x="750" y="631"/>
      <point x="695" y="682"/>
      <point x="615" y="682" type="curve" smooth="yes"/>
      <point x="555" y="682"/>
      <point x="499" y="660"/>
      <point x="453" y="614" type="curve"/>
      <point x="453" y="172" type="line"/>
      <point x="589" y="122" type="line"/>
      <point x="567" y="0" type="line"/>
    </contour>
  </outline>
</glyph>
<glyph name="o" format="1">
  <advance width="989"/>
  <unicode hex="006F"/>
  <outline>
    <contour>
      <point x="50" y="446" type="curve" smooth="yes"/>
      <point x="50" y="751"/>
      <point x="292" y="927"/>
      <point x="515" y="927" type="curve" smooth="yes"/>
      <point x="789" y="927"/>
      <point x="944" y="759"/>
      <point x="944" y="466" type="curve" smooth="yes"/>
      <point x="944" y="168"/>
      <point x="754" y="-27"/>
      <point x="492" y="-27" type="curve" smooth="yes"/>
      <point x="176" y="-27"/>
      <point x="50" y="193"/>
    </contour>
    <contour>
      <point x="306" y="512" type="curve" smooth="yes"/>
      <point x="306" y="288"/>
      <point x="365" y="119"/>
      <point x="525" y="119" type="curve" smooth="yes"/>
      <point x="637" y="119"/>
      <point x="686" y="215"/>
      <point x="686" y="358" type="curve" smooth="yes"/>
      <point x="686" y="548"/>
      <point x="645" y="770"/>
      <point x="475" y="770" type="curve" smooth="yes"/>
      <point x="351" y="770"/>
      <point x="306" y="659"/>
    </contour>
  </outline>
</glyph>
<glyph name="p" format="1">
  <advance width="1084"/>
  <unicode hex="0070"/>
  <outline>
    <contour>
      <point x="37" y="-371" type="line"/>
      <point x="49" y="-253" type="line"/>
      <point x="203" y="-199" type="line"/>
      <point x="203" y="684" type="line"/>
      <point x="51" y="747" type="line"/>
      <point x="70" y="870" type="line"/>
      <point x="423" y="902" type="line"/>
      <point x="453" y="874" type="line"/>
      <point x="435" y="768" type="line"/>
      <point x="445" y="765" type="line"/>
      <point x="494" y="835"/>
      <point x="587" y="920"/>
      <point x="719" y="920" type="curve" smooth="yes"/>
      <point x="889" y="920"/>
      <point x="1039" y="794"/>
      <point x="1039" y="478" type="curve" smooth="yes"/>
      <point x="1039" y="161"/>
      <point x="833" y="-19"/>
      <point x="567" y="-19" type="curve" smooth="yes"/>
      <point x="537" y="-19"/>
      <point x="475" y="-18"/>
      <point x="442" y="-6" type="curve"/>
      <point x="439" y="168" type="line"/>
      <point x="489" y="144"/>
      <point x="531" y="135"/>
      <point x="595" y="135" type="curve" smooth="yes"/>
      <point x="713" y="135"/>
      <point x="785" y="232"/>
      <point x="785" y="398" type="curve" smooth="yes"/>
      <point x="785" y="590"/>
      <point x="734" y="706"/>
      <point x="623" y="706" type="curve" smooth="yes"/>
      <point x="559" y="706"/>
      <point x="495" y="672"/>
      <point x="441" y="628" type="curve"/>
      <point x="441" y="-200" type="line"/>
      <point x="641" y="-251" type="line"/>
      <point x="624" y="-371" type="line"/>
    </contour>
  </outline>
</glyph>
<glyph name="q" format="1">
  <advance width="1074"/>
  <unicode hex="0071"/>
  <outline>
    <contour>
      <point x="49" y="399" type="curve" smooth="yes"/>
      <point x="49" y="663"/>
      <point x="274" y="916"/>
      <point x="522" y="916" type="curve" smooth="yes"/>
      <point x="583" y="916"/>
      <point x="651" y="895"/>
      <point x="696" y="875" type="curve"/>
      <point x="839" y="914" type="line"/>
      <point x="879" y="910" type="line"/>
      <point x="879" y="-194" type="line"/>
      <point x="1038" y="-244" type="line"/>
      <point x="1024" y="-364" type="line"/>
      <point x="482" y="-364" type="line"/>
      <point x="496" y="-246" type="line"/>
      <point x="648" y="-194" type="line"/>
      <point x="648" y="622" type="line"/>
      <point x="617" y="686"/>
      <point x="546" y="742"/>
      <point x="476" y="742" type="curve" smooth="yes"/>
      <point x="364" y="742"/>
      <point x="298" y="645"/>
      <point x="298" y="477" type="curve" smooth="yes"/>
      <point x="298" y="277"/>
      <point x="378" y="167"/>
      <point x="479" y="167" type="curve" smooth="yes"/>
      <point x="529" y="167"/>
      <point x="601" y="181"/>
      <point x="640" y="208" type="curve"/>
      <point x="638" y="81" type="line"/>
      <point x="566" y="2"/>
      <point x="445" y="-20"/>
      <point x="373" y="-20" type="curve" smooth="yes"/>
      <point x="191" y="-20"/>
      <point x="49" y="107"/>
    </contour>
  </outline>
</glyph>
<glyph name="r" format="1">
  <advance width="813"/>
  <unicode hex="0072"/>
  <outline>
    <contour>
      <point x="48" y="1" type="line"/>
      <point x="64" y="118" type="line"/>
      <point x="214" y="172" type="line"/>
      <point x="214" y="686" type="line"/>
      <point x="62" y="749" type="line"/>
      <point x="82" y="871" type="line"/>
      <point x="408" y="904" type="line"/>
      <point x="439" y="872" type="line"/>
      <point x="420" y="687" type="line"/>
      <point x="439" y="682" type="line"/>
      <point x="491" y="848"/>
      <point x="586" y="918"/>
      <point x="680" y="918" type="curve" smooth="yes"/>
      <point x="770" y="918"/>
      <point x="822" y="856"/>
      <point x="822" y="782" type="curve" smooth="yes"/>
      <point x="822" y="707"/>
      <point x="784" y="654"/>
      <point x="731" y="610" type="curve"/>
      <point x="684" y="640"/>
      <point x="641" y="654"/>
      <point x="605" y="654" type="curve" smooth="yes"/>
      <point x="530" y="654"/>
      <point x="474" y="580"/>
      <point x="452" y="482" type="curve"/>
      <point x="452" y="186" type="line"/>
      <point x="688" y="138" type="line"/>
      <point x="676" y="1" type="line"/>
    </contour>
  </outline>
</glyph>
<glyph name="s" format="1">
  <advance width="784"/>
  <unicode hex="0073"/>
  <outline>
    <contour>
      <point x="52" y="154" type="curve" smooth="yes"/>
      <point x="52" y="236"/>
      <point x="112" y="292"/>
      <point x="214" y="300" type="curve"/>
      <point x="254" y="162"/>
      <point x="324" y="94"/>
      <point x="400" y="94" type="curve" smooth="yes"/>
      <point x="474" y="94"/>
      <point x="521" y="114"/>
      <point x="521" y="176" type="curve" smooth="yes"/>
      <point x="521" y="312"/>
      <point x="81" y="345"/>
      <point x="81" y="629" type="curve" smooth="yes"/>
      <point x="81" y="743"/>
      <point x="175" y="924"/>
      <point x="429" y="924" type="curve" smooth="yes"/>
      <point x="595" y="924"/>
      <point x="717" y="866"/>
      <point x="717" y="754" type="curve" smooth="yes"/>
      <point x="717" y="668"/>
      <point x="644" y="608"/>
      <point x="552" y="600" type="curve"/>
      <point x="532" y="664" type="line" smooth="yes"/>
      <point x="502" y="781"/>
      <point x="435" y="808"/>
      <point x="381" y="808" type="curve" smooth="yes"/>
      <point x="319" y="808"/>
      <point x="283" y="765"/>
      <point x="283" y="714" type="curve" smooth="yes"/>
      <point x="283" y="560"/>
      <point x="741" y="532"/>
      <point x="741" y="246" type="curve" smooth="yes"/>
      <point x="741" y="72"/>
      <point x="571" y="-35"/>
      <point x="371" y="-35" type="curve" smooth="yes"/>
      <point x="199" y="-35"/>
      <point x="52" y="46"/>
    </contour>
  </outline>
</glyph>
<glyph name="t" format="1">
  <advance width="743"/>
  <unicode hex="0074"/>
  <outline>
    <contour>
      <point x="41" y="723" type="line"/>
      <point x="41" y="824" type="line"/>
      <point x="135" y="888"/>
      <point x="226" y="982"/>
      <point x="296" y="1082" type="curve"/>
      <point x="404" y="1082" type="line"/>
      <point x="404" y="862" type="line"/>
      <point x="682" y="862" type="line"/>
      <point x="672" y="720" type="line"/>
      <point x="401" y="720" type="line"/>
      <point x="399" y="336" type="line" smooth="yes"/>
      <point x="399" y="220"/>
      <point x="439" y="175"/>
      <point x="547" y="175" type="curve" smooth="yes"/>
      <point x="613" y="175"/>
      <point x="675" y="217"/>
      <point x="675" y="217" type="curve"/>
      <point x="700" y="124" type="line"/>
      <point x="646" y="48"/>
      <point x="545" y="-23"/>
      <point x="403" y="-23" type="curve" smooth="yes"/>
      <point x="229" y="-23"/>
      <point x="149" y="49"/>
      <point x="151" y="278" type="curve" smooth="yes"/>
      <point x="154" y="723" type="line"/>
    </contour>
  </outline>
</glyph>
<glyph name="u" format="1">
  <advance width="1102"/>
  <unicode hex="0075"/>
  <outline>
    <contour>
      <point x="41" y="750" type="line"/>
      <point x="65" y="882" type="line"/>
      <point x="381" y="903" type="line"/>
      <point x="421" y="864" type="line"/>
      <point x="421" y="393" type="line" smooth="yes"/>
      <point x="421" y="253"/>
      <point x="463" y="205"/>
      <point x="539" y="205" type="curve" smooth="yes"/>
      <point x="607" y="205"/>
      <point x="647" y="228"/>
      <point x="689" y="268" type="curve"/>
      <point x="689" y="663" type="line"/>
      <point x="551" y="722" type="line"/>
      <point x="573" y="872" type="line"/>
      <point x="899" y="907" type="line"/>
      <point x="936" y="868" type="line"/>
      <point x="936" y="294" type="line" smooth="yes"/>
      <point x="936" y="192"/>
      <point x="971" y="171"/>
      <point x="1059" y="146" type="curve" smooth="yes"/>
      <point x="1095" y="136" type="line"/>
      <point x="1079" y="10" type="line"/>
      <point x="1011" y="-15"/>
      <point x="950" y="-29"/>
      <point x="880" y="-29" type="curve" smooth="yes"/>
      <point x="776" y="-29"/>
      <point x="708" y="22"/>
      <point x="708" y="118" type="curve" smooth="yes"/>
      <point x="708" y="130" type="line"/>
      <point x="695" y="132" type="line"/>
      <point x="630" y="28"/>
      <point x="525" y="-27"/>
      <point x="417" y="-27" type="curve" smooth="yes"/>
      <point x="248" y="-27"/>
      <point x="172" y="55"/>
      <point x="172" y="267" type="curve" smooth="yes"/>
      <point x="172" y="670" type="line"/>
    </contour>
  </outline>
</glyph>
<glyph name="v" format="1">
  <advance width="1055"/>
  <unicode hex="0076"/>
  <outline>
    <contour>
      <point x="41" y="782" type="line"/>
      <point x="57" y="898" type="line"/>
      <point x="556" y="898" type="line"/>
      <point x="542" y="782" type="line"/>
      <point x="423" y="734" type="line"/>
      <point x="574" y="263" type="line"/>
      <point x="736" y="731" type="line"/>
      <point x="614" y="782" type="line"/>
      <point x="634" y="898" type="line"/>
      <point x="1017" y="898" type="line"/>
      <point x="998" y="782" type="line"/>
      <point x="902" y="734" type="line"/>
      <point x="635" y="-8" type="line"/>
      <point x="432" y="-30" type="line"/>
      <point x="158" y="731" type="line"/>
    </contour>
  </outline>
</glyph>
<glyph name="w" format="1">
  <advance width="1356"/>
  <unicode hex="0077"/>
  <outline>
    <contour>
      <point x="41" y="782" type="line"/>
      <point x="58" y="900" type="line"/>
      <point x="508" y="900" type="line"/>
      <point x="492" y="784" type="line"/>
      <point x="387" y="726" type="line"/>
      <point x="476" y="350" type="line"/>
      <point x="492" y="348" type="line"/>
      <point x="608" y="836" type="line"/>
      <point x="792" y="854" type="line"/>
      <point x="918" y="342" type="line"/>
      <point x="936" y="355" type="line"/>
      <point x="1016" y="724" type="line"/>
      <point x="910" y="782" type="line"/>
      <point x="926" y="900" type="line"/>
      <point x="1318" y="900" type="line"/>
      <point x="1300" y="784" type="line"/>
      <point x="1192" y="726" type="line"/>
      <point x="998" y="-10" type="line"/>
      <point x="813" y="-34" type="line"/>
      <point x="674" y="500" type="line"/>
      <point x="548" y="-10" type="line"/>
      <point x="365" y="-34" type="line"/>
      <point x="156" y="724" type="line"/>
    </contour>
  </outline>
</glyph>
<glyph name="x" format="1">
  <advance width="1058"/>
  <unicode hex="0078"/>
  <outline>
    <contour>
      <point x="49" y="0" type="line"/>
      <point x="61" y="115" type="line"/>
      <point x="183" y="162" type="line"/>
      <point x="393" y="441" type="line"/>
      <point x="163" y="748" type="line"/>
      <point x="63" y="788" type="line"/>
      <point x="83" y="906" type="line"/>
      <point x="447" y="906" type="line"/>
      <point x="480" y="812" type="line"/>
      <point x="433" y="776" type="line"/>
      <point x="563" y="592" type="line"/>
      <point x="683" y="753" type="line"/>
      <point x="583" y="803" type="line"/>
      <point x="605" y="906" type="line"/>
      <point x="997" y="906" type="line"/>
      <point x="979" y="791" type="line"/>
      <point x="865" y="750" type="line"/>
      <point x="654" y="486" type="line"/>
      <point x="887" y="168" type="line"/>
      <point x="1002" y="126" type="line"/>
      <point x="986" y="0" type="line"/>
      <point x="608" y="0" type="line"/>
      <point x="573" y="96" type="line"/>
      <point x="627" y="131" type="line"/>
      <point x="487" y="332" type="line"/>
      <point x="369" y="156" type="line"/>
      <point x="490" y="104" type="line"/>
      <point x="473" y="0" type="line"/>
    </contour>
  </outline>
</glyph>
<glyph name="y" format="1">
  <advance width="1104"/>
  <unicode hex="0079"/>
  <outline>
    <contour>
      <point x="40" y="-240" type="curve" smooth="yes"/>
      <point x="40" y="-188"/>
      <point x="50" y="-137"/>
      <point x="110" y="-81" type="curve"/>
      <point x="162" y="-127"/>
      <point x="230" y="-150"/>
      <point x="298" y="-150" type="curve" smooth="yes"/>
      <point x="352" y="-150"/>
      <point x="413" y="-135"/>
      <point x="454" y="-45" type="curve" smooth="yes"/>
      <point x="470" y="-9" type="line"/>
      <point x="172" y="731" type="line"/>
      <point x="46" y="780" type="line"/>
      <point x="64" y="898" type="line"/>
      <point x="551" y="898" type="line"/>
      <point x="536" y="782" type="line"/>
      <point x="428" y="735" type="line"/>
      <point x="601" y="272" type="line"/>
      <point x="786" y="728" type="line"/>
      <point x="662" y="782" type="line"/>
      <point x="683" y="898" type="line"/>
      <point x="1064" y="898" type="line"/>
      <point x="1052" y="782" type="line"/>
      <point x="953" y="731" type="line"/>
      <point x="626" y="-34" type="line" smooth="yes"/>
      <point x="516" y="-292"/>
      <point x="415" y="-381"/>
      <point x="232" y="-381" type="curve" smooth="yes"/>
      <point x="131" y="-381"/>
      <point x="40" y="-315"/>
    </contour>
  </outline>
</glyph>
<glyph name="z" format="1">
  <advance width="866"/>
  <unicode hex="007A"/>
  <outline>
    <contour>
      <point x="61" y="134" type="line"/>
      <point x="502" y="764" type="line"/>
      <point x="260" y="764" type="line"/>
      <point x="181" y="584" type="line"/>
      <point x="62" y="606" type="line"/>
      <point x="79" y="898" type="line"/>
      <point x="801" y="898" type="line"/>
      <point x="798" y="781" type="line"/>
      <point x="336" y="140" type="line"/>
      <point x="607" y="140" type="line"/>
      <point x="716" y="320" type="line"/>
      <point x="821" y="298" type="line"/>
      <point x="780" y="0" type="line"/>
      <point x="67" y="0" type="line"/>
    </contour>
  </outline>
</glyph>
<glyph name="cent" format="1">
  <advance width="880"/>
  <unicode hex="00A2"/>
  <outline>
    <contour>
      <point x="52" y="434" type="curve" smooth="yes"/>
      <point x="52" y="758"/>
      <point x="306" y="976"/>
      <point x="534" y="976" type="curve" smooth="yes"/>
      <point x="720" y="976"/>
      <point x="802" y="866"/>
      <point x="802" y="758" type="curve" smooth="yes"/>
      <point x="802" y="670"/>
      <point x="739" y="619"/>
      <point x="643" y="610" type="curve"/>
      <point x="593" y="751"/>
      <point x="543" y="828"/>
      <point x="464" y="828" type="curve" smooth="yes"/>
      <point x="364" y="828"/>
      <point x="310" y="695"/>
      <point x="310" y="519" type="curve" smooth="yes"/>
      <point x="310" y="357"/>
      <point x="396" y="160"/>
      <point x="578" y="160" type="curve" smooth="yes"/>
      <point x="682" y="160"/>
      <point x="744" y="193"/>
      <point x="806" y="231" type="curve"/>
      <point x="838" y="135" type="line"/>
      <point x="786" y="49"/>
      <point x="641" y="-30"/>
      <point x="491" y="-30" type="curve" smooth="yes"/>
      <point x="194" y="-30"/>
      <point x="52" y="178"/>
    </contour>
    <contour>
      <point x="378" y="1193" type="line"/>
      <point x="565" y="1210" type="line"/>
      <point x="540" y="942" type="line"/>
      <point x="410" y="942" type="line"/>
    </contour>
    <contour>
      <point x="388" y="-266" type="line"/>
      <point x="414" y="0" type="line"/>
      <point x="544" y="0" type="line"/>
      <point x="577" y="-250" type="line"/>
    </contour>
  </outline>
</glyph>
<glyph name="sterling" format="1">
  <advance width="1206"/>
  <unicode hex="00A3"/>
  <outline>
    <contour>
      <point x="43" y="0" type="line"/>
      <point x="51" y="106" type="line"/>
      <point x="217" y="169" type="line"/>
      <point x="251" y="265"/>
      <point x="258" y="312"/>
      <point x="261" y="460" type="curve" smooth="yes"/>
      <point x="263" y="525" type="line"/>
      <point x="79" y="512" type="line"/>
      <point x="93" y="655" type="line"/>
      <point x="265" y="664" type="line"/>
      <point x="268" y="766" type="line"/>
      <point x="278" y="1099"/>
      <point x="523" y="1252"/>
      <point x="791" y="1252" type="curve" smooth="yes"/>
      <point x="881" y="1252"/>
      <point x="967" y="1241"/>
      <point x="1050" y="1208" type="curve"/>
      <point x="1014" y="837" type="line"/>
      <point x="891" y="854" type="line"/>
      <point x="831" y="1068" type="line"/>
      <point x="797" y="1084"/>
      <point x="751" y="1092"/>
      <point x="713" y="1092" type="curve" smooth="yes"/>
      <point x="581" y="1092"/>
      <point x="544" y="1004"/>
      <point x="541" y="704" type="curve"/>
      <point x="541" y="670" type="line"/>
      <point x="791" y="685" type="line"/>
      <point x="781" y="544" type="line"/>
      <point x="537" y="531" type="line"/>
      <point x="535" y="499" type="line"/>
      <point x="529" y="382"/>
      <point x="530" y="252"/>
      <point x="475" y="165" type="curve"/>
      <point x="864" y="138" type="line"/>
      <point x="1029" y="395" type="line"/>
      <point x="1160" y="369" type="line"/>
      <point x="1114" y="0" type="line"/>
    </contour>
  </outline>
</glyph>
<glyph name="currency" format="1">
  <advance width="836"/>
  <unicode hex="00A4"/>
  <outline>
    <contour>
      <point x="45" y="723" type="line"/>
      <point x="171" y="841" type="line"/>
      <point x="279" y="725" type="line"/>
      <point x="317" y="757"/>
      <point x="372" y="776"/>
      <point x="422" y="776" type="curve" smooth="yes"/>
      <point x="470" y="776"/>
      <point x="522" y="761"/>
      <point x="556" y="735" type="curve"/>
      <point x="665" y="844" type="line"/>
      <point x="785" y="720" type="line"/>
      <point x="669" y="616" type="line"/>
      <point x="687" y="583"/>
      <point x="699" y="533"/>
      <point x="699" y="490" type="curve" smooth="yes"/>
      <point x="699" y="444"/>
      <point x="687" y="392"/>
      <point x="663" y="357" type="curve"/>
      <point x="789" y="238" type="line"/>
      <point x="659" y="122" type="line"/>
      <point x="546" y="245" type="line"/>
      <point x="504" y="219"/>
      <point x="453" y="204"/>
      <point x="409" y="204" type="curve" smooth="yes"/>
      <point x="373" y="204"/>
      <point x="328" y="216"/>
      <point x="292" y="238" type="curve"/>
      <point x="181" y="111" type="line"/>
      <point x="55" y="233" type="line"/>
      <point x="175" y="347" type="line"/>
      <point x="150" y="383"/>
      <point x="135" y="437"/>
      <point x="135" y="486" type="curve" smooth="yes"/>
      <point x="135" y="528"/>
      <point x="149" y="575"/>
      <point x="169" y="608" type="curve"/>
    </contour>
    <contour>
      <point x="284" y="492" type="curve" smooth="yes"/>
      <point x="284" y="400"/>
      <point x="341" y="338"/>
      <point x="415" y="338" type="curve" smooth="yes"/>
      <point x="491" y="338"/>
      <point x="549" y="397"/>
      <point x="549" y="486" type="curve" smooth="yes"/>
      <point x="549" y="580"/>
      <point x="492" y="640"/>
      <point x="415" y="640" type="curve" smooth="yes"/>
      <point x="341" y="640"/>
      <point x="284" y="581"/>
    </contour>
  </outline>
</glyph>
<glyph name="yen" format="1">
  <advance width="1151"/>
  <unicode hex="00A5"/>
  <outline>
    <contour>
      <point x="40" y="1128" type="line"/>
      <point x="63" y="1244" type="line"/>
      <point x="563" y="1244" type="line"/>
      <point x="544" y="1128" type="line"/>
      <point x="445" y="1079" type="line"/>
      <point x="627" y="661" type="line"/>
      <point x="819" y="1078" type="line"/>
      <point x="689" y="1128" type="line"/>
      <point x="707" y="1244" type="line"/>
      <point x="1109" y="1244" type="line"/>
      <point x="1093" y="1128" type="line"/>
      <point x="974" y="1080" type="line"/>
      <point x="739" y="604" type="line"/>
      <point x="989" y="604" type="line"/>
      <point x="979" y="485" type="line"/>
      <point x="701" y="485" type="line"/>
      <point x="701" y="388" type="line"/>
      <point x="985" y="388" type="line"/>
      <point x="973" y="274" type="line"/>
      <point x="701" y="274" type="line"/>
      <point x="701" y="158" type="line"/>
      <point x="847" y="110" type="line"/>
      <point x="837" y="0" type="line"/>
      <point x="297" y="0" type="line"/>
      <point x="311" y="101" type="line"/>
      <point x="435" y="166" type="line"/>
      <point x="435" y="274" type="line"/>
      <point x="157" y="274" type="line"/>
      <point x="169" y="388" type="line"/>
      <point x="435" y="388" type="line"/>
      <point x="435" y="485" type="line"/>
      <point x="160" y="485" type="line"/>
      <point x="175" y="604" type="line"/>
      <point x="403" y="604" type="line"/>
      <point x="171" y="1076" type="line"/>
    </contour>
  </outline>
</glyph>
<glyph name="brokenbar" format="1">
  <advance width="317"/>
  <unicode hex="00A6"/>
  <outline>
    <contour>
      <point x="73" y="-358" type="line"/>
      <point x="73" y="419" type="line"/>
      <point x="243" y="399" type="line"/>
      <point x="243" y="-380" type="line"/>
    </contour>
    <contour>
      <point x="73" y="534" type="line"/>
      <point x="73" y="1267" type="line"/>
      <point x="241" y="1248" type="line"/>
      <point x="241" y="517" type="line"/>
    </contour>
  </outline>
</glyph>
<glyph name="section" format="1">
  <advance width="963"/>
  <unicode hex="00A7"/>
  <outline>
    <contour>
      <point x="50" y="-234" type="curve"/>
      <point x="67" y="56" type="line"/>
      <point x="212" y="31" type="line"/>
      <point x="254" y="-164" type="line"/>
      <point x="282" y="-202"/>
      <point x="366" y="-246"/>
      <point x="454" y="-246" type="curve" smooth="yes"/>
      <point x="545" y="-246"/>
      <point x="645" y="-200"/>
      <point x="645" y="-76" type="curve" smooth="yes"/>
      <point x="645" y="176"/>
      <point x="-40" y="130"/>
      <point x="71" y="610" type="curve"/>
      <point x="444" y="424" type="line" smooth="yes"/>
      <point x="703" y="300"/>
      <point x="901" y="238"/>
      <point x="901" y="3" type="curve" smooth="yes"/>
      <point x="901" y="-269"/>
      <point x="625" y="-388"/>
      <point x="417" y="-388" type="curve" smooth="yes"/>
      <point x="273" y="-388"/>
      <point x="114" y="-314"/>
    </contour>
    <contour>
      <point x="69" y="912" type="curve" smooth="yes"/>
      <point x="69" y="1167"/>
      <point x="264" y="1268"/>
      <point x="497" y="1268" type="curve" smooth="yes"/>
      <point x="623" y="1268"/>
      <point x="741" y="1234"/>
      <point x="811" y="1178" type="curve"/>
      <point x="811" y="1162"/>
      <point x="793" y="893"/>
      <point x="793" y="893" type="curve"/>
      <point x="658" y="910" type="line"/>
      <point x="621" y="1079" type="line"/>
      <point x="596" y="1108"/>
      <point x="528" y="1151"/>
      <point x="460" y="1151" type="curve" smooth="yes"/>
      <point x="380" y="1151"/>
      <point x="313" y="1107"/>
      <point x="313" y="995" type="curve" smooth="yes"/>
      <point x="313" y="727"/>
      <point x="1033" y="800"/>
      <point x="891" y="310" type="curve"/>
      <point x="428" y="536" type="line" smooth="yes"/>
      <point x="234" y="630"/>
      <point x="69" y="714"/>
    </contour>
  </outline>
</glyph>
<glyph name="softhyphen" format="1">
  <advance width="587"/>
  <unicode hex="00AD"/>
  <outline>
    <contour>
      <point x="61" y="377" type="line"/>
      <point x="67" y="546" type="line"/>
      <point x="525" y="604" type="line"/>
      <point x="518" y="435" type="line"/>
    </contour>
  </outline>
</glyph>
<glyph name="registered" format="1">
  <advance width="1147"/>
  <unicode hex="00AE"/>
  <outline>
    <contour>
      <point x="268" y="775" type="line"/>
      <point x="275" y="830" type="line"/>
      <point x="353" y="862" type="line"/>
      <point x="353" y="1235" type="line"/>
      <point x="274" y="1254" type="line"/>
      <point x="280" y="1317" type="line"/>
      <point x="345" y="1327"/>
      <point x="479" y="1339"/>
      <point x="546" y="1339" type="curve" smooth="yes"/>
      <point x="708" y="1339"/>
      <point x="805" y="1301"/>
      <point x="805" y="1187" type="curve" smooth="yes"/>
      <point x="805" y="1110"/>
      <point x="737" y="1054"/>
      <point x="679" y="1034" type="curve"/>
      <point x="678" y="1033" type="line"/>
      <point x="737" y="956" type="line" smooth="yes"/>
      <point x="782" y="895"/>
      <point x="827" y="865"/>
      <point x="873" y="841" type="curve" smooth="yes"/>
      <point x="890" y="832" type="line"/>
      <point x="877" y="775" type="line"/>
      <point x="858" y="769"/>
      <point x="827" y="763"/>
      <point x="788" y="763" type="curve" smooth="yes"/>
      <point x="687" y="763"/>
      <point x="626" y="823"/>
      <point x="586" y="918" type="curve" smooth="yes"/>
      <point x="555" y="990" type="line"/>
      <point x="510" y="990" type="line"/>
      <point x="510" y="866" type="line"/>
      <point x="574" y="836" type="line"/>
      <point x="569" y="775" type="line"/>
    </contour>
    <contour>
      <point x="510" y="1071" type="line"/>
      <point x="579" y="1071" type="line"/>
      <point x="616" y="1089"/>
      <point x="636" y="1117"/>
      <point x="636" y="1165" type="curve" smooth="yes"/>
      <point x="636" y="1222"/>
      <point x="602" y="1264"/>
      <point x="533" y="1264" type="curve" smooth="yes"/>
      <point x="522" y="1264"/>
      <point x="514" y="1263"/>
      <point x="510" y="1263" type="curve"/>
    </contour>
    <contour>
      <point x="45" y="1022" type="curve" smooth="yes"/>
      <point x="45" y="1366"/>
      <point x="296" y="1532"/>
      <point x="564" y="1532" type="curve" smooth="yes"/>
      <point x="840" y="1532"/>
      <point x="1099" y="1378"/>
      <point x="1099" y="1026" type="curve" smooth="yes"/>
      <point x="1099" y="696"/>
      <point x="836" y="530"/>
      <point x="554" y="530" type="curve" smooth="yes"/>
      <point x="292" y="530"/>
      <point x="45" y="694"/>
    </contour>
    <contour>
      <point x="158" y="1036" type="curve" smooth="yes"/>
      <point x="158" y="776"/>
      <point x="327" y="626"/>
      <point x="562" y="626" type="curve" smooth="yes"/>
      <point x="814" y="626"/>
      <point x="986" y="784"/>
      <point x="986" y="1016" type="curve" smooth="yes"/>
      <point x="986" y="1280"/>
      <point x="800" y="1436"/>
      <point x="564" y="1436" type="curve" smooth="yes"/>
      <point x="316" y="1436"/>
      <point x="158" y="1300"/>
    </contour>
  </outline>
</glyph>
<glyph name="macron" format="1">
  <advance width="619"/>
  <unicode hex="00AF"/>
  <outline>
    <contour>
      <point x="77" y="1379" type="line"/>
      <point x="94" y="1526" type="line"/>
      <point x="541" y="1526" type="line"/>
      <point x="524" y="1379" type="line"/>
    </contour>
  </outline>
</glyph>
<glyph name="degree" format="1">
  <advance width="494"/>
  <unicode hex="00B0"/>
  <outline>
    <contour>
      <point x="56" y="1107" type="curve" smooth="yes"/>
      <point x="56" y="1210"/>
      <point x="146" y="1304"/>
      <point x="254" y="1304" type="curve" smooth="yes"/>
      <point x="370" y="1304"/>
      <point x="435" y="1237"/>
      <point x="435" y="1128" type="curve" smooth="yes"/>
      <point x="435" y="1013"/>
      <point x="336" y="928"/>
      <point x="230" y="928" type="curve" smooth="yes"/>
      <point x="128" y="928"/>
      <point x="56" y="990"/>
    </contour>
    <contour>
      <point x="167" y="1129" type="curve" smooth="yes"/>
      <point x="167" y="1071"/>
      <point x="190" y="1009"/>
      <point x="248" y="1009" type="curve" smooth="yes"/>
      <point x="293" y="1009"/>
      <point x="318" y="1045"/>
      <point x="318" y="1105" type="curve" smooth="yes"/>
      <point x="318" y="1164"/>
      <point x="290" y="1223"/>
      <point x="238" y="1223" type="curve" smooth="yes"/>
      <point x="191" y="1223"/>
      <point x="167" y="1179"/>
    </contour>
  </outline>
</glyph>
<glyph name="micro" format="1">
  <advance width="1141"/>
  <unicode hex="00B5"/>
  <outline>
    <contour>
      <point x="43" y="754" type="line"/>
      <point x="66" y="886" type="line"/>
      <point x="383" y="908" type="line"/>
      <point x="423" y="868" type="line"/>
      <point x="423" y="392" type="line" smooth="yes"/>
      <point x="423" y="252"/>
      <point x="465" y="200"/>
      <point x="541" y="200" type="curve" smooth="yes"/>
      <point x="609" y="200"/>
      <point x="651" y="229"/>
      <point x="697" y="267" type="curve"/>
      <point x="697" y="668" type="line"/>
      <point x="551" y="726" type="line"/>
      <point x="573" y="876" type="line"/>
      <point x="900" y="912" type="line"/>
      <point x="937" y="872" type="line"/>
      <point x="937" y="293" type="line" smooth="yes"/>
      <point x="937" y="189"/>
      <point x="973" y="169"/>
      <point x="1061" y="144" type="curve" smooth="yes"/>
      <point x="1097" y="135" type="line"/>
      <point x="1081" y="8" type="line"/>
      <point x="1013" y="-17"/>
      <point x="951" y="-30"/>
      <point x="881" y="-30" type="curve" smooth="yes"/>
      <point x="777" y="-30"/>
      <point x="709" y="22"/>
      <point x="709" y="118" type="curve" smooth="yes"/>
      <point x="709" y="128" type="line"/>
      <point x="697" y="132" type="line"/>
      <point x="622" y="28"/>
      <point x="523" y="-28"/>
      <point x="419" y="-28" type="curve" smooth="yes"/>
      <point x="365" y="-28"/>
      <point x="329" y="-15"/>
      <point x="303" y="14" type="curve"/>
      <point x="291" y="12" type="line"/>
      <point x="303" y="-19"/>
      <point x="310" y="-69"/>
      <point x="315" y="-133" type="curve" smooth="yes"/>
      <point x="335" y="-388" type="line"/>
      <point x="135" y="-362" type="line"/>
      <point x="145" y="-266"/>
      <point x="174" y="246"/>
      <point x="174" y="494" type="curve" smooth="yes"/>
      <point x="174" y="674" type="line"/>
    </contour>
  </outline>
</glyph>
<glyph name="paragraph" format="1">
  <advance width="1480"/>
  <unicode hex="00B6"/>
  <outline>
    <contour>
      <point x="47" y="812" type="curve" smooth="yes"/>
      <point x="47" y="1065"/>
      <point x="241" y="1245"/>
      <point x="519" y="1245" type="curve" smooth="yes"/>
      <point x="957" y="1245" type="line"/>
      <point x="957" y="-1" type="line"/>
      <point x="482" y="-1" type="line"/>
      <point x="491" y="105" type="line"/>
      <point x="741" y="168" type="line"/>
      <point x="741" y="1110" type="line"/>
      <point x="689" y="1117"/>
      <point x="631" y="1121"/>
      <point x="601" y="1121" type="curve" smooth="yes"/>
      <point x="416" y="1121"/>
      <point x="323" y="1031"/>
      <point x="323" y="861" type="curve" smooth="yes"/>
      <point x="323" y="716"/>
      <point x="411" y="572"/>
      <point x="621" y="574" type="curve"/>
      <point x="603" y="428" type="line"/>
      <point x="281" y="411"/>
      <point x="47" y="532"/>
    </contour>
    <contour>
      <point x="1053" y="-1" type="line"/>
      <point x="1053" y="1245" type="line"/>
      <point x="1433" y="1245" type="line"/>
      <point x="1419" y="1128" type="line"/>
      <point x="1245" y="1076" type="line"/>
      <point x="1245" y="164" type="line"/>
      <point x="1431" y="114" type="line"/>
      <point x="1421" y="-1" type="line"/>
    </contour>
  </outline>
</glyph>
<glyph name="one.superior" format="1">
  <advance width="654"/>
  <unicode hex="00B9"/>
  <outline>
    <contour>
      <point x="51" y="530" type="line"/>
      <point x="60" y="632" type="line"/>
      <point x="201" y="662" type="line"/>
      <point x="201" y="1098" type="line"/>
      <point x="67" y="1098" type="line"/>
      <point x="75" y="1220" type="line"/>
      <point x="415" y="1260" type="line"/>
      <point x="459" y="1260" type="line"/>
      <point x="459" y="656" type="line"/>
      <point x="603" y="640" type="line"/>
      <point x="597" y="530" type="line"/>
    </contour>
  </outline>
</glyph>
<glyph name="onequarter" format="1">
  <advance width="1652"/>
  <unicode hex="00BC"/>
  <outline>
    <contour>
      <point x="933" y="282" type="line"/>
      <point x="1387" y="722" type="line"/>
      <point x="1471" y="704" type="line"/>
      <point x="1466" y="640"/>
      <point x="1461" y="526"/>
      <point x="1461" y="428" type="curve" smooth="yes"/>
      <point x="1461" y="293" type="line"/>
      <point x="1609" y="293" type="line"/>
      <point x="1600" y="160" type="line"/>
      <point x="1461" y="160" type="line"/>
      <point x="1461" y="73" type="line"/>
      <point x="1571" y="50" type="line"/>
      <point x="1565" y="-30" type="line"/>
      <point x="1115" y="-30" type="line"/>
      <point x="1119" y="44" type="line"/>
      <point x="1237" y="74" type="line"/>
      <point x="1237" y="163" type="line"/>
      <point x="947" y="163" type="line"/>
    </contour>
    <contour>
      <point x="1088" y="274" type="line"/>
      <point x="1245" y="274" type="line"/>
      <point x="1245" y="474" type="line"/>
    </contour>
    <contour>
      <point x="45" y="530" type="line"/>
      <point x="55" y="632" type="line"/>
      <point x="195" y="662" type="line"/>
      <point x="195" y="1098" type="line"/>
      <point x="62" y="1098" type="line"/>
      <point x="69" y="1220" type="line"/>
      <point x="409" y="1260" type="line"/>
      <point x="453" y="1260" type="line"/>
      <point x="453" y="656" type="line"/>
      <point x="598" y="640" type="line"/>
      <point x="591" y="530" type="line"/>
    </contour>
    <contour>
      <point x="263" y="12" type="line"/>
      <point x="745" y="588" type="line"/>
      <point x="1211" y="1208" type="line"/>
      <point x="1451" y="1206" type="line"/>
      <point x="1449" y="1154" type="line"/>
      <point x="979" y="591" type="line"/>
      <point x="547" y="-26" type="line"/>
    </contour>
  </outline>
</glyph>
<glyph name="onehalf" format="1">
  <advance width="1713"/>
  <unicode hex="00BD"/>
  <outline>
    <contour>
      <point x="1049" y="114" type="line"/>
      <point x="1185" y="216" type="line" smooth="yes"/>
      <point x="1306" y="308"/>
      <point x="1373" y="400"/>
      <point x="1373" y="466" type="curve" smooth="yes"/>
      <point x="1373" y="521"/>
      <point x="1353" y="571"/>
      <point x="1283" y="571" type="curve" smooth="yes"/>
      <point x="1249" y="571"/>
      <point x="1224" y="555"/>
      <point x="1207" y="536" type="curve"/>
      <point x="1177" y="386" type="line"/>
      <point x="1088" y="393" type="line"/>
      <point x="1059" y="592" type="line"/>
      <point x="1117" y="664"/>
      <point x="1245" y="708"/>
      <point x="1367" y="708" type="curve" smooth="yes"/>
      <point x="1551" y="708"/>
      <point x="1637" y="617"/>
      <point x="1637" y="520" type="curve" smooth="yes"/>
      <point x="1637" y="367"/>
      <point x="1476" y="258"/>
      <point x="1336" y="180" type="curve" smooth="yes"/>
      <point x="1263" y="141" type="line"/>
      <point x="1498" y="131" type="line"/>
      <point x="1581" y="268" type="line"/>
      <point x="1665" y="254" type="line"/>
      <point x="1639" y="-29" type="line"/>
      <point x="1053" y="-29" type="line"/>
    </contour>
    <contour>
      <point x="45" y="530" type="line"/>
      <point x="55" y="632" type="line"/>
      <point x="195" y="662" type="line"/>
      <point x="195" y="1098" type="line"/>
      <point x="62" y="1098" type="line"/>
      <point x="69" y="1220" type="line"/>
      <point x="409" y="1260" type="line"/>
      <point x="453" y="1260" type="line"/>
      <point x="453" y="656" type="line"/>
      <point x="598" y="640" type="line"/>
      <point x="591" y="530" type="line"/>
    </contour>
    <contour>
      <point x="253" y="12" type="line"/>
      <point x="735" y="588" type="line"/>
      <point x="1201" y="1208" type="line"/>
      <point x="1441" y="1206" type="line"/>
      <point x="1439" y="1154" type="line"/>
      <point x="969" y="591" type="line"/>
      <point x="537" y="-26" type="line"/>
    </contour>
  </outline>
</glyph>
<glyph name="multiply" format="1">
  <advance width="612"/>
  <unicode hex="00D7"/>
  <outline>
    <contour>
      <point x="52" y="319" type="line"/>
      <point x="207" y="462" type="line"/>
      <point x="48" y="618" type="line"/>
      <point x="164" y="708" type="line"/>
      <point x="312" y="554" type="line"/>
      <point x="479" y="720" type="line"/>
      <point x="568" y="602" type="line"/>
      <point x="408" y="457" type="line"/>
      <point x="566" y="298" type="line"/>
      <point x="452" y="204" type="line"/>
      <point x="304" y="366" type="line"/>
      <point x="144" y="203" type="line"/>
    </contour>
  </outline>
</glyph>
<glyph name="Thorn" format="1">
  <advance width="1185"/>
  <unicode hex="00DE"/>
  <outline>
    <contour>
      <point x="49" y="1131" type="line"/>
      <point x="64" y="1244" type="line"/>
      <point x="700" y="1244" type="line"/>
      <point x="686" y="1126" type="line"/>
      <point x="512" y="1074" type="line"/>
      <point x="512" y="1001" type="line"/>
      <point x="552" y="1005"/>
      <point x="593" y="1008"/>
      <point x="633" y="1008" type="curve" smooth="yes"/>
      <point x="921" y="1008"/>
      <point x="1141" y="946"/>
      <point x="1141" y="652" type="curve" smooth="yes"/>
      <point x="1141" y="414"/>
      <point x="941" y="251"/>
      <point x="670" y="251" type="curve" smooth="yes"/>
      <point x="639" y="251"/>
      <point x="606" y="252"/>
      <point x="572" y="256" type="curve"/>
      <point x="547" y="386" type="line"/>
      <point x="747" y="379"/>
      <point x="852" y="447"/>
      <point x="852" y="610" type="curve" smooth="yes"/>
      <point x="852" y="756"/>
      <point x="774" y="858"/>
      <point x="599" y="858" type="curve" smooth="yes"/>
      <point x="569" y="858"/>
      <point x="524" y="853"/>
      <point x="512" y="851" type="curve"/>
      <point x="512" y="172" type="line"/>
      <point x="720" y="122" type="line"/>
      <point x="707" y="0" type="line"/>
      <point x="52" y="0" type="line"/>
      <point x="62" y="108" type="line"/>
      <point x="234" y="170" type="line"/>
      <point x="234" y="1073" type="line"/>
    </contour>
  </outline>
</glyph>
<glyph name="germandbls" format="1">
  <advance width="1265"/>
  <unicode hex="00DF"/>
  <outline>
    <contour>
      <point x="46" y="0" type="line"/>
      <point x="58" y="116" type="line"/>
      <point x="211" y="173" type="line"/>
      <point x="211" y="742" type="line"/>
      <point x="64" y="742" type="line"/>
      <point x="73" y="849" type="line"/>
      <point x="211" y="872" type="line"/>
      <point x="227" y="1117.66"/>
      <point x="432" y="1306"/>
      <point x="691" y="1306" type="curve" smooth="yes"/>
      <point x="907" y="1306"/>
      <point x="1036" y="1220.61"/>
      <point x="1036" y="1054" type="curve" smooth="yes"/>
      <point x="1036" y="856"/>
      <point x="764" y="830"/>
      <point x="764" y="714" type="curve" smooth="yes"/>
      <point x="764" y="566"/>
      <point x="1224" y="554"/>
      <point x="1224" y="248" type="curve" smooth="yes"/>
      <point x="1224" y="74"/>
      <point x="1055" y="-34"/>
      <point x="855" y="-34" type="curve" smooth="yes"/>
      <point x="683" y="-34"/>
      <point x="535" y="46"/>
      <point x="535" y="154" type="curve" smooth="yes"/>
      <point x="535" y="246"/>
      <point x="601" y="295"/>
      <point x="697" y="302" type="curve"/>
      <point x="731" y="170"/>
      <point x="808" y="95"/>
      <point x="884" y="95" type="curve" smooth="yes"/>
      <point x="958" y="95"/>
      <point x="1004" y="110"/>
      <point x="1004" y="176" type="curve" smooth="yes"/>
      <point x="1004" y="304"/>
      <point x="565" y="346"/>
      <point x="565" y="630" type="curve" smooth="yes"/>
      <point x="565" y="852"/>
      <point x="789" y="901"/>
      <point x="789" y="1014" type="curve" smooth="yes"/>
      <point x="789" y="1105.66"/>
      <point x="734" y="1176"/>
      <point x="622" y="1176" type="curve" smooth="yes"/>
      <point x="542" y="1176"/>
      <point x="443" y="1122.82"/>
      <point x="443" y="932" type="curve" smooth="yes"/>
      <point x="443" y="0" type="line"/>
    </contour>
  </outline>
</glyph>
<glyph name="ae" format="1">
  <advance width="1319"/>
  <unicode hex="00E6"/>
  <outline>
    <contour>
      <point x="51" y="172" type="curve" smooth="yes"/>
      <point x="51" y="334"/>
      <point x="182" y="466"/>
      <point x="511" y="498" type="curve"/>
      <point x="511" y="574" type="line" smooth="yes"/>
      <point x="511" y="688"/>
      <point x="461" y="774"/>
      <point x="371" y="774" type="curve" smooth="yes"/>
      <point x="295" y="774"/>
      <point x="279" y="715"/>
      <point x="260" y="588" type="curve"/>
      <point x="189" y="581"/>
      <point x="89" y="604"/>
      <point x="89" y="712" type="curve" smooth="yes"/>
      <point x="89" y="833"/>
      <point x="341" y="924"/>
      <point x="481" y="924" type="curve" smooth="yes"/>
      <point x="591" y="924"/>
      <point x="655" y="894"/>
      <point x="691" y="830" type="curve"/>
      <point x="767" y="892"/>
      <point x="859" y="924"/>
      <point x="948" y="924" type="curve" smooth="yes"/>
      <point x="1130" y="924"/>
      <point x="1251" y="792"/>
      <point x="1251" y="580" type="curve" smooth="yes"/>
      <point x="1251" y="549"/>
      <point x="1238" y="455"/>
      <point x="1231" y="423" type="curve"/>
      <point x="751" y="412" type="line"/>
      <point x="759" y="268"/>
      <point x="849" y="142"/>
      <point x="1015" y="142" type="curve" smooth="yes"/>
      <point x="1088" y="142"/>
      <point x="1165" y="157"/>
      <point x="1253" y="205" type="curve"/>
      <point x="1272" y="113" type="line"/>
      <point x="1186" y="11"/>
      <point x="1030" y="-30"/>
      <point x="899" y="-30" type="curve" smooth="yes"/>
      <point x="749" y="-30"/>
      <point x="625" y="31"/>
      <point x="577" y="147" type="curve"/>
      <point x="517" y="11"/>
      <point x="375" y="-24"/>
      <point x="251" y="-24" type="curve" smooth="yes"/>
      <point x="147" y="-24"/>
      <point x="51" y="38"/>
    </contour>
    <contour>
      <point x="287" y="241" type="curve" smooth="yes"/>
      <point x="287" y="181"/>
      <point x="322" y="144"/>
      <point x="384" y="144" type="curve" smooth="yes"/>
      <point x="436" y="144"/>
      <point x="497" y="188"/>
      <point x="511" y="248" type="curve"/>
      <point x="511" y="404" type="line"/>
      <point x="323" y="377"/>
      <point x="287" y="311"/>
    </contour>
    <contour>
      <point x="750" y="512" type="curve"/>
      <point x="991" y="537" type="line"/>
      <point x="995" y="553"/>
      <point x="999" y="595"/>
      <point x="999" y="610" type="curve" smooth="yes"/>
      <point x="999" y="702"/>
      <point x="966" y="772"/>
      <point x="887" y="772" type="curve" smooth="yes"/>
      <point x="812" y="772"/>
      <point x="754" y="674"/>
    </contour>
  </outline>
</glyph>
<glyph name="igrave" format="1">
  <advance width="665"/>
  <unicode hex="00EC"/>
  <outline>
    <contour>
      <point x="49" y="0" type="line"/>
      <point x="59" y="128" type="line"/>
      <point x="212" y="173" type="line"/>
      <point x="212" y="651" type="line"/>
      <point x="63" y="731" type="line"/>
      <point x="85" y="858" type="line"/>
      <point x="413" y="882" type="line"/>
      <point x="453" y="840" type="line"/>
      <point x="453" y="173" type="line"/>
      <point x="614" y="127" type="line"/>
      <point x="603" y="0" type="line"/>
    </contour>
    <component base="grave" xOffset="71" yOffset="-274"/>
  </outline>
</glyph>
<glyph name="idieresis" format="1">
  <advance width="676"/>
  <unicode hex="00EF"/>
  <outline>
    <contour>
      <point x="49.2402" y="0" type="line"/>
      <point x="59.2402" y="128" type="line"/>
      <point x="212.24" y="173" type="line"/>
      <point x="212.24" y="651" type="line"/>
      <point x="63.2402" y="731" type="line"/>
      <point x="85.2402" y="858" type="line"/>
      <point x="413.24" y="882" type="line"/>
      <point x="453.24" y="840" type="line"/>
      <point x="453.24" y="173" type="line"/>
      <point x="614.24" y="127" type="line"/>
      <point x="603.24" y="0" type="line"/>
    </contour>
    <component base="dieresis" xOffset="24.2402" yOffset="-307"/>
  </outline>
</glyph>
<glyph name="eth" format="1">
  <advance width="960"/>
  <unicode hex="00F0"/>
  <outline>
    <contour>
      <point x="49" y="451" type="curve" smooth="yes"/>
      <point x="49" y="715"/>
      <point x="256" y="947"/>
      <point x="454" y="947" type="curve" smooth="yes"/>
      <point x="498" y="947"/>
      <point x="563" y="930"/>
      <point x="596" y="872" type="curve"/>
      <point x="601" y="876" type="line"/>
      <point x="586" y="925"/>
      <point x="549" y="998"/>
      <point x="517" y="1058" type="curve"/>
      <point x="309" y="1018" type="line"/>
      <point x="318" y="1119" type="line"/>
      <point x="471" y="1151" type="line"/>
      <point x="433" y="1212"/>
      <point x="391" y="1266"/>
      <point x="351" y="1302" type="curve"/>
      <point x="538" y="1302" type="line"/>
      <point x="570" y="1280"/>
      <point x="615" y="1243"/>
      <point x="659" y="1195" type="curve"/>
      <point x="816" y="1228" type="line"/>
      <point x="805" y="1119" type="line"/>
      <point x="730" y="1104" type="line"/>
      <point x="837" y="950"/>
      <point x="915" y="740"/>
      <point x="915" y="498" type="curve" smooth="yes"/>
      <point x="915" y="194"/>
      <point x="753" y="-27"/>
      <point x="483" y="-27" type="curve" smooth="yes"/>
      <point x="171" y="-27"/>
      <point x="49" y="207"/>
    </contour>
    <contour>
      <point x="305" y="498" type="curve"/>
      <point x="311" y="268"/>
      <point x="401" y="112"/>
      <point x="514" y="112" type="curve" smooth="yes"/>
      <point x="642" y="112"/>
      <point x="665" y="228"/>
      <point x="665" y="438" type="curve" smooth="yes"/>
      <point x="665" y="644"/>
      <point x="558" y="815"/>
      <point x="460" y="817" type="curve"/>
      <point x="358" y="817"/>
      <point x="305" y="707"/>
    </contour>
  </outline>
</glyph>
<glyph name="divide" format="1">
  <advance width="911"/>
  <unicode hex="00F7"/>
  <outline>
    <contour>
      <point x="45" y="432" type="line"/>
      <point x="57" y="578" type="line"/>
      <point x="868" y="578" type="line"/>
      <point x="858" y="432" type="line"/>
    </contour>
    <contour>
      <point x="283" y="223" type="curve" smooth="yes"/>
      <point x="283" y="287"/>
      <point x="333" y="356"/>
      <point x="447" y="356" type="curve" smooth="yes"/>
      <point x="567" y="356"/>
      <point x="617" y="288"/>
      <point x="617" y="224" type="curve" smooth="yes"/>
      <point x="617" y="148"/>
      <point x="564" y="84"/>
      <point x="447" y="84" type="curve" smooth="yes"/>
      <point x="327" y="84"/>
      <point x="283" y="153"/>
    </contour>
    <contour>
      <point x="283" y="786" type="curve" smooth="yes"/>
      <point x="283" y="850"/>
      <point x="333" y="918"/>
      <point x="447" y="918" type="curve" smooth="yes"/>
      <point x="567" y="918"/>
      <point x="617" y="850"/>
      <point x="617" y="786" type="curve" smooth="yes"/>
      <point x="617" y="710"/>
      <point x="564" y="647"/>
      <point x="447" y="647" type="curve" smooth="yes"/>
      <point x="327" y="647"/>
      <point x="283" y="716"/>
    </contour>
  </outline>
</glyph>
<glyph name="oslash" format="1">
  <advance width="1022"/>
  <unicode hex="00F8"/>
  <outline>
    <contour>
      <point x="43" y="-16" type="line"/>
      <point x="203" y="176" type="line"/>
      <point x="271" y="196" type="line"/>
      <point x="675" y="722" type="line"/>
      <point x="694" y="794" type="line"/>
      <point x="802" y="926" type="line"/>
      <point x="982" y="912" type="line"/>
      <point x="827" y="720" type="line"/>
      <point x="746" y="675" type="line"/>
      <point x="332" y="140" type="line"/>
      <point x="322" y="86" type="line"/>
      <point x="229" y="-30" type="line"/>
    </contour>
    <contour>
      <point x="318" y="512" type="curve" smooth="yes"/>
      <point x="318" y="288"/>
      <point x="377" y="119"/>
      <point x="537" y="119" type="curve" smooth="yes"/>
      <point x="649" y="119"/>
      <point x="697" y="215"/>
      <point x="697" y="358" type="curve" smooth="yes"/>
      <point x="697" y="548"/>
      <point x="657" y="770"/>
      <point x="487" y="770" type="curve" smooth="yes"/>
      <point x="363" y="770"/>
      <point x="318" y="659"/>
    </contour>
    <contour>
      <point x="61" y="446" type="curve" smooth="yes"/>
      <point x="61" y="751"/>
      <point x="304" y="927"/>
      <point x="527" y="927" type="curve" smooth="yes"/>
      <point x="801" y="927"/>
      <point x="956" y="759"/>
      <point x="956" y="466" type="curve" smooth="yes"/>
      <point x="956" y="168"/>
      <point x="766" y="-27"/>
      <point x="504" y="-27" type="curve" smooth="yes"/>
      <point x="188" y="-27"/>
      <point x="61" y="193"/>
    </contour>
  </outline>
</glyph>
<glyph name="thorn" format="1">
  <advance width="1085"/>
  <unicode hex="00FE"/>
  <outline>
    <contour>
      <point x="40" y="-373" type="line"/>
      <point x="53" y="-255" type="line"/>
      <point x="207" y="-201" type="line"/>
      <point x="206" y="1079" type="line"/>
      <point x="44" y="1157" type="line"/>
      <point x="62" y="1277" type="line"/>
      <point x="404" y="1301" type="line"/>
      <point x="446" y="1262" type="line"/>
      <point x="446" y="882" type="line"/>
      <point x="431" y="760" type="line"/>
      <point x="444" y="757" type="line"/>
      <point x="498" y="825"/>
      <point x="586" y="918"/>
      <point x="718" y="918" type="curve" smooth="yes"/>
      <point x="888" y="918"/>
      <point x="1040" y="780"/>
      <point x="1040" y="480" type="curve" smooth="yes"/>
      <point x="1040" y="166"/>
      <point x="838" y="-16"/>
      <point x="584" y="-16" type="curve" smooth="yes"/>
      <point x="552" y="-16"/>
      <point x="489" y="-14"/>
      <point x="456" y="0" type="curve"/>
      <point x="454" y="164" type="line"/>
      <point x="665" y="93"/>
      <point x="784" y="197"/>
      <point x="784" y="398" type="curve" smooth="yes"/>
      <point x="784" y="590"/>
      <point x="734" y="705"/>
      <point x="624" y="705" type="curve" smooth="yes"/>
      <point x="560" y="705"/>
      <point x="498" y="672"/>
      <point x="444" y="628" type="curve"/>
      <point x="444" y="-203" type="line"/>
      <point x="644" y="-253" type="line"/>
      <point x="627" y="-373" type="line"/>
    </contour>
  </outline>
</glyph>
<glyph name="Ccaron" format="1">
  <advance width="1232"/>
  <unicode hex="010C"/>
  <outline>
    <contour>
      <point x="482" y="1543" type="line"/>
      <point x="687" y="1578" type="line"/>
      <point x="776" y="1493" type="line"/>
      <point x="786" y="1493" type="line"/>
      <point x="870" y="1574" type="line"/>
      <point x="1013" y="1560" type="line"/>
      <point x="823" y="1344" type="line"/>
      <point x="676" y="1323" type="line"/>
    </contour>
    <component base="C"/>
  </outline>
</glyph>
<glyph name="ccaron" format="1">
  <advance width="835"/>
  <unicode hex="010D"/>
  <outline>
    <contour>
      <point x="240" y="1206" type="line"/>
      <point x="445" y="1241" type="line"/>
      <point x="534" y="1156" type="line"/>
      <point x="544" y="1156" type="line"/>
      <point x="628" y="1237" type="line"/>
      <point x="771" y="1223" type="line"/>
      <point x="581" y="1007" type="line"/>
      <point x="434" y="986" type="line"/>
    </contour>
    <component base="c"/>
  </outline>
</glyph>
<glyph name="Ecaron" format="1">
  <advance width="1236"/>
  <unicode hex="011A"/>
  <outline>
    <contour>
      <point x="394" y="1543" type="line"/>
      <point x="599" y="1578" type="line"/>
      <point x="688" y="1493" type="line"/>
      <point x="698" y="1493" type="line"/>
      <point x="782" y="1574" type="line"/>
      <point x="925" y="1560" type="line"/>
      <point x="735" y="1344" type="line"/>
      <point x="588" y="1323" type="line"/>
    </contour>
    <component base="E"/>
  </outline>
</glyph>
<glyph name="ecaron" format="1">
  <advance width="820"/>
  <unicode hex="011B"/>
  <outline>
    <contour>
      <point x="212" y="1200" type="line"/>
      <point x="417" y="1235" type="line"/>
      <point x="506" y="1150" type="line"/>
      <point x="516" y="1150" type="line"/>
      <point x="600" y="1231" type="line"/>
      <point x="743" y="1217" type="line"/>
      <point x="553" y="1001" type="line"/>
      <point x="406" y="980" type="line"/>
    </contour>
    <component base="e"/>
  </outline>
</glyph>
<glyph name="OE" format="1">
  <advance width="1770"/>
  <unicode hex="0152"/>
  <outline>
    <contour>
      <point x="32" y="619" type="curve" smooth="yes"/>
      <point x="32" y="1015"/>
      <point x="210" y="1270"/>
      <point x="634" y="1270" type="curve" smooth="yes"/>
      <point x="712" y="1270"/>
      <point x="774" y="1260"/>
      <point x="826" y="1242" type="curve"/>
      <point x="1684" y="1244" type="line"/>
      <point x="1654" y="875" type="line"/>
      <point x="1525" y="894" type="line"/>
      <point x="1464" y="1112" type="line"/>
      <point x="1064" y="1112" type="line"/>
      <point x="1064" y="694" type="line"/>
      <point x="1304" y="702" type="line"/>
      <point x="1334" y="763" type="line"/>
      <point x="1494" y="780" type="line"/>
      <point x="1461" y="462" type="line"/>
      <point x="1310" y="465" type="line"/>
      <point x="1284" y="554" type="line"/>
      <point x="1064" y="562" type="line"/>
      <point x="1064" y="137" type="line"/>
      <point x="1504" y="138" type="line"/>
      <point x="1626" y="377" type="line"/>
      <point x="1750" y="362" type="line"/>
      <point x="1720" y="0" type="line"/>
      <point x="780" y="0" type="line"/>
      <point x="715" y="-17"/>
      <point x="645" y="-27"/>
      <point x="563" y="-27" type="curve" smooth="yes"/>
      <point x="203" y="-27"/>
      <point x="32" y="229"/>
    </contour>
    <contour>
      <point x="366" y="674" type="curve" smooth="yes"/>
      <point x="366" y="482"/>
      <point x="417" y="137"/>
      <point x="636" y="137" type="curve" smooth="yes"/>
      <point x="683" y="137"/>
      <point x="733" y="151"/>
      <point x="784" y="181" type="curve"/>
      <point x="784" y="1092" type="line"/>
      <point x="726" y="1121"/>
      <point x="666" y="1140"/>
      <point x="608" y="1140" type="curve" smooth="yes"/>
      <point x="450" y="1140"/>
      <point x="366" y="1010"/>
    </contour>
  </outline>
</glyph>
<glyph name="oe" format="1">
  <advance width="1418"/>
  <unicode hex="0153"/>
  <outline>
    <contour>
      <point x="27" y="446" type="curve" smooth="yes"/>
      <point x="27" y="751"/>
      <point x="257" y="926"/>
      <point x="480" y="926" type="curve" smooth="yes"/>
      <point x="606" y="926"/>
      <point x="723" y="872"/>
      <point x="778" y="804" type="curve"/>
      <point x="848" y="871"/>
      <point x="948" y="924"/>
      <point x="1062" y="924" type="curve" smooth="yes"/>
      <point x="1244" y="924"/>
      <point x="1363" y="792"/>
      <point x="1363" y="580" type="curve" smooth="yes"/>
      <point x="1363" y="549"/>
      <point x="1351" y="458"/>
      <point x="1344" y="426" type="curve"/>
      <point x="864" y="421" type="line"/>
      <point x="868" y="273"/>
      <point x="965" y="146"/>
      <point x="1128" y="146" type="curve" smooth="yes"/>
      <point x="1201" y="146"/>
      <point x="1276" y="158"/>
      <point x="1364" y="206" type="curve"/>
      <point x="1386" y="113" type="line"/>
      <point x="1300" y="11"/>
      <point x="1143" y="-30"/>
      <point x="1012" y="-30" type="curve" smooth="yes"/>
      <point x="897" y="-30"/>
      <point x="807" y="16"/>
      <point x="737" y="86" type="curve"/>
      <point x="656" y="8"/>
      <point x="568" y="-28"/>
      <point x="458" y="-28" type="curve" smooth="yes"/>
      <point x="142" y="-28"/>
      <point x="27" y="193"/>
    </contour>
    <contour>
      <point x="284" y="512" type="curve" smooth="yes"/>
      <point x="284" y="288"/>
      <point x="346" y="122"/>
      <point x="490" y="122" type="curve" smooth="yes"/>
      <point x="586" y="122"/>
      <point x="638" y="215"/>
      <point x="638" y="358" type="curve" smooth="yes"/>
      <point x="638" y="548"/>
      <point x="600" y="772"/>
      <point x="440" y="772" type="curve" smooth="yes"/>
      <point x="316" y="772"/>
      <point x="284" y="659"/>
    </contour>
    <contour>
      <point x="863" y="522" type="curve"/>
      <point x="1105" y="540" type="line"/>
      <point x="1109" y="556"/>
      <point x="1112" y="595"/>
      <point x="1112" y="610" type="curve" smooth="yes"/>
      <point x="1112" y="702"/>
      <point x="1079" y="772"/>
      <point x="1000" y="772" type="curve" smooth="yes"/>
      <point x="925" y="772"/>
      <point x="867" y="684"/>
    </contour>
  </outline>
</glyph>
<glyph name="Rcaron" format="1">
  <advance width="1419"/>
  <unicode hex="0158"/>
  <outline>
    <contour>
      <point x="328" y="1543" type="line"/>
      <point x="533" y="1578" type="line"/>
      <point x="622" y="1493" type="line"/>
      <point x="632" y="1493" type="line"/>
      <point x="716" y="1574" type="line"/>
      <point x="859" y="1560" type="line"/>
      <point x="669" y="1344" type="line"/>
      <point x="522" y="1323" type="line"/>
    </contour>
    <component base="R"/>
  </outline>
</glyph>
<glyph name="rcaron" format="1">
  <advance width="813"/>
  <unicode hex="0159"/>
  <outline>
    <contour>
      <point x="141" y="1200" type="line"/>
      <point x="346" y="1235" type="line"/>
      <point x="435" y="1150" type="line"/>
      <point x="445" y="1150" type="line"/>
      <point x="529" y="1231" type="line"/>
      <point x="672" y="1217" type="line"/>
      <point x="482" y="1001" type="line"/>
      <point x="335" y="980" type="line"/>
    </contour>
    <component base="r"/>
  </outline>
</glyph>
<glyph name="Scaron" format="1">
  <advance width="984"/>
  <unicode hex="0160"/>
  <outline>
    <contour>
      <point x="248" y="1543" type="line"/>
      <point x="453" y="1578" type="line"/>
      <point x="542" y="1493" type="line"/>
      <point x="552" y="1493" type="line"/>
      <point x="636" y="1574" type="line"/>
      <point x="779" y="1560" type="line"/>
      <point x="589" y="1344" type="line"/>
      <point x="442" y="1323" type="line"/>
    </contour>
    <component base="S"/>
  </outline>
</glyph>
<glyph name="scaron" format="1">
  <advance width="784"/>
  <unicode hex="0161"/>
  <outline>
    <contour>
      <point x="136" y="1200" type="line"/>
      <point x="341" y="1235" type="line"/>
      <point x="430" y="1150" type="line"/>
      <point x="440" y="1150" type="line"/>
      <point x="524" y="1231" type="line"/>
      <point x="667" y="1217" type="line"/>
      <point x="477" y="1001" type="line"/>
      <point x="330" y="980" type="line"/>
    </contour>
    <component base="s"/>
  </outline>
</glyph>
<glyph name="Zcaron" format="1">
  <advance width="1136"/>
  <unicode hex="017D"/>
  <outline>
    <contour>
      <point x="292" y="1543" type="line"/>
      <point x="497" y="1578" type="line"/>
      <point x="586" y="1493" type="line"/>
      <point x="596" y="1493" type="line"/>
      <point x="680" y="1574" type="line"/>
      <point x="823" y="1560" type="line"/>
      <point x="633" y="1344" type="line"/>
      <point x="486" y="1323" type="line"/>
    </contour>
    <component base="Z"/>
  </outline>
</glyph>
<glyph name="zcaron" format="1">
  <advance width="866"/>
  <unicode hex="017E"/>
  <outline>
    <contour>
      <point x="147" y="1200" type="line"/>
      <point x="352" y="1235" type="line"/>
      <point x="441" y="1150" type="line"/>
      <point x="451" y="1150" type="line"/>
      <point x="535" y="1231" type="line"/>
      <point x="678" y="1217" type="line"/>
      <point x="488" y="1001" type="line"/>
      <point x="341" y="980" type="line"/>
    </contour>
    <component base="z"/>
  </outline>
</glyph>
<glyph name="circumflex" format="1">
  <advance width="677"/>
  <unicode hex="02C6"/>
  <outline>
    <contour>
      <point x="603" y="1344" type="line"/>
      <point x="434" y="1309" type="line"/>
      <point x="330" y="1394" type="line"/>
      <point x="320" y="1394" type="line"/>
      <point x="233" y="1303" type="line"/>
      <point x="72" y="1327" type="line"/>
      <point x="236" y="1543" type="line"/>
      <point x="423" y="1564" type="line"/>
    </contour>
  </outline>
</glyph>
<glyph name="dotaccent" format="1">
  <advance width="487"/>
  <unicode hex="02D9"/>
  <outline>
    <contour>
      <point x="76" y="1476" type="curve" smooth="yes"/>
      <point x="76" y="1540"/>
      <point x="128" y="1610"/>
      <point x="240" y="1610" type="curve" smooth="yes"/>
      <point x="360" y="1610"/>
      <point x="410" y="1541"/>
      <point x="410" y="1477" type="curve" smooth="yes"/>
      <point x="410" y="1401"/>
      <point x="357" y="1338"/>
      <point x="240" y="1338" type="curve" smooth="yes"/>
      <point x="120" y="1338"/>
      <point x="76" y="1406"/>
    </contour>
  </outline>
</glyph>
<glyph name="ring" format="1">
  <advance width="589"/>
  <unicode hex="02DA"/>
  <outline>
    <contour>
      <point x="77" y="1566" type="curve" smooth="yes"/>
      <point x="77" y="1659"/>
      <point x="154" y="1730"/>
      <point x="298" y="1730" type="curve" smooth="yes"/>
      <point x="444" y="1730"/>
      <point x="513" y="1673"/>
      <point x="513" y="1575" type="curve" smooth="yes"/>
      <point x="513" y="1486"/>
      <point x="441" y="1413"/>
      <point x="285" y="1413" type="curve" smooth="yes"/>
      <point x="143" y="1413"/>
      <point x="77" y="1464"/>
    </contour>
    <contour>
      <point x="243" y="1572" type="curve" smooth="yes"/>
      <point x="243" y="1520"/>
      <point x="275" y="1521"/>
      <point x="293" y="1521" type="curve" smooth="yes"/>
      <point x="297" y="1521"/>
      <point x="343" y="1517"/>
      <point x="343" y="1573" type="curve" smooth="yes"/>
      <point x="343" y="1623"/>
      <point x="301" y="1622"/>
      <point x="287" y="1622" type="curve" smooth="yes"/>
      <point x="277" y="1622"/>
      <point x="243" y="1617"/>
    </contour>
  </outline>
</glyph>
<glyph name="tilde" format="1">
  <advance width="706"/>
  <unicode hex="02DC"/>
  <outline>
    <contour>
      <point x="75.7109" y="1349" type="line"/>
      <point x="67.7109" y="1409"/>
      <point x="126.711" y="1593"/>
      <point x="278.711" y="1557" type="curve" smooth="yes"/>
      <point x="484.711" y="1508" type="line" smooth="yes"/>
      <point x="520.711" y="1500"/>
      <point x="547.711" y="1554"/>
      <point x="547.711" y="1554" type="curve"/>
      <point x="629.711" y="1548" type="line"/>
      <point x="629.711" y="1466"/>
      <point x="553.711" y="1309"/>
      <point x="403.711" y="1346" type="curve" smooth="yes"/>
      <point x="216.711" y="1392" type="line" smooth="yes"/>
      <point x="174.711" y="1402"/>
      <point x="157.711" y="1336"/>
      <point x="157.711" y="1336" type="curve"/>
    </contour>
  </outline>
</glyph>
<glyph name="Germandbls" format="1">
  <advance width="1485"/>
  <unicode hex="1E9E"/>
  <outline>
    <contour>
      <point x="43" y="0" type="line"/>
      <point x="54" y="104" type="line"/>
      <point x="212" y="166" type="line"/>
      <point x="212" y="740" type="line" smooth="yes"/>
      <point x="212" y="1104"/>
      <point x="514" y="1259"/>
      <point x="842" y="1259" type="curve" smooth="yes"/>
      <point x="1080" y="1259"/>
      <point x="1387" y="1198"/>
      <point x="1387" y="1015" type="curve" smooth="yes"/>
      <point x="1387" y="921"/>
      <point x="1342" y="862"/>
      <point x="1244" y="828" type="curve"/>
      <point x="1166" y="973"/>
      <point x="1082" y="1071"/>
      <point x="986" y="1071" type="curve" smooth="yes"/>
      <point x="921" y="1071"/>
      <point x="863" y="1010"/>
      <point x="863" y="934" type="curve" smooth="yes"/>
      <point x="863" y="704"/>
      <point x="1442" y="728"/>
      <point x="1442" y="334" type="curve" smooth="yes"/>
      <point x="1442" y="64"/>
      <point x="1172" y="-24"/>
      <point x="966" y="-24" type="curve" smooth="yes"/>
      <point x="780" y="-24"/>
      <point x="628" y="36"/>
      <point x="574" y="124" type="curve"/>
      <point x="597" y="432" type="line"/>
      <point x="733" y="410" type="line"/>
      <point x="772" y="228" type="line"/>
      <point x="811" y="170"/>
      <point x="902" y="128"/>
      <point x="990" y="128" type="curve" smooth="yes"/>
      <point x="1082" y="128"/>
      <point x="1154" y="154"/>
      <point x="1154" y="250" type="curve" smooth="yes"/>
      <point x="1154" y="474"/>
      <point x="591" y="438"/>
      <point x="591" y="813" type="curve" smooth="yes"/>
      <point x="591" y="969"/>
      <point x="698" y="1078"/>
      <point x="808" y="1102" type="curve"/>
      <point x="804" y="1109" type="line"/>
      <point x="786" y="1111"/>
      <point x="754" y="1112"/>
      <point x="738" y="1112" type="curve" smooth="yes"/>
      <point x="558" y="1112"/>
      <point x="487" y="976"/>
      <point x="487" y="762" type="curve" smooth="yes"/>
      <point x="488" y="0" type="line"/>
    </contour>
  </outline>
</glyph>
<glyph name="daggerdbl" format="1">
  <advance width="863"/>
  <unicode hex="2021"/>
  <outline>
    <contour>
      <point x="50" y="689" type="line"/>
      <point x="56" y="844" type="line"/>
      <point x="350" y="838" type="line"/>
      <point x="342" y="1255" type="line"/>
      <point x="516" y="1244" type="line"/>
      <point x="504" y="838" type="line"/>
      <point x="808" y="844" type="line"/>
      <point x="802" y="682" type="line"/>
      <point x="504" y="692" type="line"/>
      <point x="494" y="430" type="line"/>
      <point x="497" y="193" type="line"/>
      <point x="812" y="199" type="line"/>
      <point x="806" y="42" type="line"/>
      <point x="497" y="50" type="line"/>
      <point x="508" y="-362" type="line"/>
      <point x="334" y="-352" type="line"/>
      <point x="344" y="50" type="line"/>
      <point x="56" y="42" type="line"/>
      <point x="65" y="206" type="line"/>
      <point x="344" y="192" type="line"/>
      <point x="353" y="498" type="line"/>
      <point x="350" y="696" type="line"/>
    </contour>
  </outline>
</glyph>
<glyph name="fraction" format="1">
  <advance width="1569"/>
  <unicode hex="2044"/>
  <outline>
    <contour>
      <point x="62" y="22" type="line"/>
      <point x="544" y="598" type="line"/>
      <point x="1010" y="1218" type="line"/>
      <point x="1244" y="1216" type="line"/>
      <point x="1244" y="1164" type="line"/>
      <point x="772" y="601" type="line"/>
      <point x="340" y="-16" type="line"/>
    </contour>
  </outline>
</glyph>
<glyph name="Euro" format="1">
  <advance width="1268"/>
  <unicode hex="20AC"/>
  <outline>
    <contour>
      <point x="46" y="462" type="line"/>
      <point x="59" y="578" type="line"/>
      <point x="926" y="578" type="line"/>
      <point x="902" y="462" type="line"/>
    </contour>
    <contour>
      <point x="59" y="653" type="line"/>
      <point x="72" y="770" type="line"/>
      <point x="973" y="770" type="line"/>
      <point x="949" y="653" type="line"/>
    </contour>
    <contour>
      <point x="187" y="603" type="curve" smooth="yes"/>
      <point x="187" y="913"/>
      <point x="419" y="1268"/>
      <point x="847" y="1268" type="curve" smooth="yes"/>
      <point x="978" y="1268"/>
      <point x="1104" y="1241"/>
      <point x="1199" y="1168" type="curve"/>
      <point x="1169" y="826" type="line"/>
      <point x="1038" y="844" type="line"/>
      <point x="984" y="1048" type="line"/>
      <point x="923" y="1106"/>
      <point x="857" y="1135"/>
      <point x="755" y="1135" type="curve" smooth="yes"/>
      <point x="581" y="1135"/>
      <point x="477" y="985"/>
      <point x="477" y="717" type="curve"/>
      <point x="477" y="455"/>
      <point x="600" y="124"/>
      <point x="853" y="124" type="curve" smooth="yes"/>
      <point x="915" y="124"/>
      <point x="968" y="141"/>
      <point x="996" y="181" type="curve"/>
      <point x="1055" y="404" type="line"/>
      <point x="1187" y="425" type="line"/>
      <point x="1217" y="119" type="line"/>
      <point x="1083" y="5"/>
      <point x="969" y="-24"/>
      <point x="805" y="-24" type="curve" smooth="yes"/>
      <point x="401" y="-24"/>
      <point x="187" y="250"/>
    </contour>
  </outline>
</glyph>
<glyph name="trademark" format="1">
  <advance width="1273"/>
  <unicode hex="2122"/>
  <outline>
    <contour>
      <point x="572" y="701" type="line"/>
      <point x="579" y="762" type="line"/>
      <point x="655" y="791" type="line"/>
      <point x="684" y="1176" type="line"/>
      <point x="602" y="1198" type="line"/>
      <point x="607" y="1261" type="line"/>
      <point x="874" y="1261" type="line"/>
      <point x="907" y="1171" type="line"/>
      <point x="992" y="907" type="line"/>
      <point x="1081" y="1179" type="line"/>
      <point x="1112" y="1261" type="line"/>
      <point x="1372" y="1261" type="line"/>
      <point x="1365" y="1198" type="line"/>
      <point x="1291" y="1178" type="line"/>
      <point x="1319" y="788" type="line"/>
      <point x="1399" y="765" type="line"/>
      <point x="1394" y="701" type="line"/>
      <point x="1106" y="701" type="line"/>
      <point x="1114" y="762" type="line"/>
      <point x="1177" y="791" type="line"/>
      <point x="1152" y="1101" type="line"/>
      <point x="1031" y="720" type="line"/>
      <point x="909" y="707" type="line"/>
      <point x="777" y="1096" type="line"/>
      <point x="756" y="788" type="line"/>
      <point x="826" y="765" type="line"/>
      <point x="817" y="701" type="line"/>
    </contour>
    <contour>
      <point x="4" y="1261" type="line"/>
      <point x="573" y="1261" type="line"/>
      <point x="559" y="1067" type="line"/>
      <point x="481" y="1078" type="line"/>
      <point x="458" y="1190" type="line"/>
      <point x="357" y="1190" type="line"/>
      <point x="357" y="783" type="line"/>
      <point x="444" y="763" type="line"/>
      <point x="437" y="701" type="line"/>
      <point x="128" y="701" type="line"/>
      <point x="132" y="759" type="line"/>
      <point x="210" y="785" type="line"/>
      <point x="210" y="1190" type="line"/>
      <point x="111" y="1190" type="line"/>
      <point x="80" y="1066" type="line"/>
      <point x="6" y="1075" type="line"/>
    </contour>
  </outline>
</glyph>
<glyph name="lozenge" format="1">
  <advance width="865"/>
  <unicode hex="25CA"/>
  <outline>
    <contour>
      <point x="74" y="475" type="line"/>
      <point x="428" y="808" type="line"/>
      <point x="792" y="477" type="line"/>
      <point x="430" y="139" type="line"/>
    </contour>
  </outline>
</glyph>
<glyph name="Germandbls.alt" format="1">
  <advance width="1497"/>
  <outline>
    <contour>
      <point x="43" y="0" type="line"/>
      <point x="54" y="106" type="line"/>
      <point x="215" y="167" type="line"/>
      <point x="215" y="710" type="line" smooth="yes"/>
      <point x="215" y="1083"/>
      <point x="486" y="1272"/>
      <point x="848" y="1272" type="curve" smooth="yes"/>
      <point x="1078" y="1272"/>
      <point x="1271" y="1244"/>
      <point x="1365" y="1212" type="curve"/>
      <point x="1355" y="1102" type="line"/>
      <point x="1029" y="782" type="line"/>
      <point x="1206" y="695"/>
      <point x="1447" y="633"/>
      <point x="1447" y="360" type="curve" smooth="yes"/>
      <point x="1447" y="87"/>
      <point x="1176" y="-24"/>
      <point x="966" y="-24" type="curve" smooth="yes"/>
      <point x="778" y="-24"/>
      <point x="625" y="41"/>
      <point x="571" y="128" type="curve"/>
      <point x="595" y="444" type="line"/>
      <point x="735" y="422" type="line"/>
      <point x="775" y="234" type="line"/>
      <point x="814" y="174"/>
      <point x="901" y="129"/>
      <point x="991" y="129" type="curve" smooth="yes"/>
      <point x="1093" y="129"/>
      <point x="1157" y="186"/>
      <point x="1157" y="276" type="curve" smooth="yes"/>
      <point x="1157" y="462"/>
      <point x="835" y="587"/>
      <point x="653" y="646" type="curve"/>
      <point x="629" y="704" type="line"/>
      <point x="1009" y="1082" type="line"/>
      <point x="1009" y="1088" type="line"/>
      <point x="952" y="1110"/>
      <point x="822" y="1130"/>
      <point x="770" y="1130" type="curve" smooth="yes"/>
      <point x="562" y="1130"/>
      <point x="491" y="982"/>
      <point x="491" y="733" type="curve" smooth="yes"/>
      <point x="491" y="0" type="line"/>
    </contour>
  </outline>
</glyph>
<glyph name="acircumflex.sc" format="1">
  <advance width="1126"/>
  <outline>
    <contour>
      <point x="35" y="0" type="line"/>
      <point x="49" y="106" type="line"/>
      <point x="159" y="185" type="line"/>
      <point x="465" y="925.5" type="line"/>
      <point x="709" y="973.5" type="line"/>
      <point x="994.5" y="181" type="line"/>
      <point x="1092" y="112.5" type="line"/>
      <point x="1081.5" y="-1" type="line"/>
      <point x="583" y="-1" type="line"/>
      <point x="597" y="105" type="line"/>
      <point x="700.5" y="180.5" type="line"/>
      <point x="528.5" y="706" type="line"/>
      <point x="342" y="182" type="line"/>
      <point x="464.5" y="114" type="line"/>
      <point x="451.5" y="0" type="line"/>
    </contour>
    <contour>
      <point x="311.5" y="326" type="line"/>
      <point x="365.5" y="436.5" type="line"/>
      <point x="692" y="436.5" type="line"/>
      <point x="742" y="326" type="line"/>
    </contour>
    <contour>
      <point x="336" y="1053.5" type="line"/>
      <point x="496.5" y="1270.5" type="line"/>
      <point x="686.5" y="1278" type="line"/>
      <point x="852.5" y="1057.5" type="line"/>
      <point x="701.5" y="1034.5" type="line"/>
      <point x="588" y="1150" type="line"/>
      <point x="575.5" y="1150" type="line"/>
      <point x="472" y="1033.5" type="line"/>
    </contour>
  </outline>
</glyph>
<glyph name="adieresis.sc" format="1">
  <advance width="1126"/>
  <outline>
    <contour>
      <point x="35" y="0" type="line"/>
      <point x="49" y="106" type="line"/>
      <point x="159" y="185" type="line"/>
      <point x="465" y="925.5" type="line"/>
      <point x="709" y="973.5" type="line"/>
      <point x="994.5" y="181" type="line"/>
      <point x="1092" y="112.5" type="line"/>
      <point x="1081.5" y="-1" type="line"/>
      <point x="583" y="-1" type="line"/>
      <point x="597" y="105" type="line"/>
      <point x="700.5" y="180.5" type="line"/>
      <point x="528.5" y="706" type="line"/>
      <point x="342" y="182" type="line"/>
      <point x="464.5" y="114" type="line"/>
      <point x="451.5" y="0" type="line"/>
    </contour>
    <contour>
      <point x="311.5" y="326" type="line"/>
      <point x="365.5" y="436.5" type="line"/>
      <point x="692" y="436.5" type="line"/>
      <point x="742" y="326" type="line"/>
    </contour>
    <contour>
      <point x="328.5" y="1127.5" type="curve" smooth="yes"/>
      <point x="328.5" y="1174"/>
      <point x="366" y="1219.5"/>
      <point x="440" y="1219.5" type="curve" smooth="yes"/>
      <point x="519" y="1219.5"/>
      <point x="554.5" y="1174"/>
      <point x="554.5" y="1128.5" type="curve" smooth="yes"/>
      <point x="554.5" y="1074"/>
      <point x="517" y="1033"/>
      <point x="439.5" y="1033" type="curve" smooth="yes"/>
      <point x="360.5" y="1033"/>
      <point x="328.5" y="1077.5"/>
    </contour>
    <contour>
      <point x="617" y="1127.5" type="curve" smooth="yes"/>
      <point x="617" y="1174"/>
      <point x="654.5" y="1219.5"/>
      <point x="728.5" y="1219.5" type="curve" smooth="yes"/>
      <point x="807.5" y="1219.5"/>
      <point x="843.5" y="1174"/>
      <point x="843.5" y="1128.5" type="curve" smooth="yes"/>
      <point x="843.5" y="1074"/>
      <point x="805.5" y="1033"/>
      <point x="728" y="1033" type="curve" smooth="yes"/>
      <point x="649" y="1033"/>
      <point x="617" y="1077.5"/>
    </contour>
  </outline>
</glyph>
<glyph name="agrave.sc" format="1">
  <advance width="1612"/>
  <outline>
    <contour>
      <point x="25.5" y="0" type="line"/>
      <point x="39.5" y="106" type="line"/>
      <point x="149.5" y="185" type="line"/>
      <point x="455.5" y="925.5" type="line"/>
      <point x="699.5" y="973.5" type="line"/>
      <point x="985" y="181" type="line"/>
      <point x="1082.5" y="112.5" type="line"/>
      <point x="1072" y="-1" type="line"/>
      <point x="573.5" y="-1" type="line"/>
      <point x="587.5" y="105" type="line"/>
      <point x="691" y="180.5" type="line"/>
      <point x="519" y="706" type="line"/>
      <point x="332.5" y="182" type="line"/>
      <point x="455" y="114" type="line"/>
      <point x="442" y="0" type="line"/>
    </contour>
    <contour>
      <point x="302" y="326" type="line"/>
      <point x="356" y="436.5" type="line"/>
      <point x="682.5" y="436.5" type="line"/>
      <point x="732.5" y="326" type="line"/>
    </contour>
    <contour>
      <point x="282.5" y="1354" type="line"/>
      <point x="515" y="1378" type="line"/>
      <point x="653.5" y="1059" type="line"/>
      <point x="508.5" y="1028.5" type="line"/>
    </contour>
  </outline>
</glyph>
<glyph name="ampersand.sc" format="1">
  <advance width="1211"/>
  <outline>
    <contour>
      <point x="90" y="193.5" type="curve" smooth="yes"/>
      <point x="90" y="478"/>
      <point x="558" y="490"/>
      <point x="558" y="740" type="curve" smooth="yes"/>
      <point x="558" y="830"/>
      <point x="508.5" y="870"/>
      <point x="459.5" y="870" type="curve" smooth="yes"/>
      <point x="422" y="870"/>
      <point x="389.5" y="833.5"/>
      <point x="389.5" y="785.5" type="curve" smooth="yes"/>
      <point x="389.5" y="724"/>
      <point x="425.5" y="671.5"/>
      <point x="494" y="594.5" type="curve" smooth="yes"/>
      <point x="812" y="260" type="line" smooth="yes"/>
      <point x="898" y="168.5"/>
      <point x="976.5" y="136"/>
      <point x="1052" y="116" type="curve" smooth="yes"/>
      <point x="1080.5" y="108" type="line"/>
      <point x="1058" y="6.5" type="line"/>
      <point x="1027.5" y="-5.5"/>
      <point x="986" y="-15.5"/>
      <point x="916" y="-15.5" type="curve" smooth="yes"/>
      <point x="792.5" y="-15.5"/>
      <point x="694.5" y="73.5"/>
      <point x="613.5" y="158.5" type="curve" smooth="yes"/>
      <point x="295" y="499.5" type="line" smooth="yes"/>
      <point x="234.5" y="566.5"/>
      <point x="192.5" y="639.5"/>
      <point x="192.5" y="718.5" type="curve" smooth="yes"/>
      <point x="192.5" y="862.5"/>
      <point x="339.5" y="972"/>
      <point x="493.5" y="972" type="curve" smooth="yes"/>
      <point x="637.5" y="972"/>
      <point x="741" y="891.5"/>
      <point x="741" y="780.5" type="curve" smooth="yes"/>
      <point x="741" y="479.5"/>
      <point x="321.5" y="500.5"/>
      <point x="321.5" y="246.5" type="curve" smooth="yes"/>
      <point x="321.5" y="195"/>
      <point x="362.5" y="133"/>
      <point x="436.5" y="133" type="curve" smooth="yes"/>
      <point x="562" y="133"/>
      <point x="679" y="222"/>
      <point x="802.5" y="474.5" type="curve"/>
      <point x="718.5" y="529" type="line"/>
      <point x="736" y="631.5" type="line"/>
      <point x="1107" y="631.5" type="line"/>
      <point x="1091" y="529" type="line"/>
      <point x="947" y="478" type="line"/>
      <point x="739.5" y="128"/>
      <point x="580.5" y="-18.5"/>
      <point x="352.5" y="-18.5" type="curve" smooth="yes"/>
      <point x="185.5" y="-18.5"/>
      <point x="90" y="65"/>
    </contour>
  </outline>
</glyph>
<glyph name="atilde.sc" format="1">
  <advance width="1126"/>
  <outline>
    <contour>
      <point x="35" y="0" type="line"/>
      <point x="49" y="106" type="line"/>
      <point x="159" y="185" type="line"/>
      <point x="465" y="925.5" type="line"/>
      <point x="709" y="973.5" type="line"/>
      <point x="994.5" y="181" type="line"/>
      <point x="1092" y="112.5" type="line"/>
      <point x="1081.5" y="-1" type="line"/>
      <point x="583" y="-1" type="line"/>
      <point x="597" y="105" type="line"/>
      <point x="700.5" y="180.5" type="line"/>
      <point x="528.5" y="706" type="line"/>
      <point x="342" y="182" type="line"/>
      <point x="464.5" y="114" type="line"/>
      <point x="451.5" y="0" type="line"/>
    </contour>
    <contour>
      <point x="311.5" y="326" type="line"/>
      <point x="365.5" y="436.5" type="line"/>
      <point x="692" y="436.5" type="line"/>
      <point x="742" y="326" type="line"/>
    </contour>
    <contour>
      <point x="323.5" y="1037" type="line"/>
      <point x="327" y="1174"/>
      <point x="413" y="1268"/>
      <point x="544" y="1236.5" type="curve" smooth="yes"/>
      <point x="692" y="1211" type="line" smooth="yes"/>
      <point x="749.5" y="1195.5"/>
      <point x="786" y="1221.5"/>
      <point x="795.5" y="1256" type="curve"/>
      <point x="877.5" y="1249.5" type="line"/>
      <point x="870.5" y="1121"/>
      <point x="796" y="1014.5"/>
      <point x="658.5" y="1048.5" type="curve" smooth="yes"/>
      <point x="513" y="1074.5" type="line" smooth="yes"/>
      <point x="441.5" y="1094"/>
      <point x="413" y="1059"/>
      <point x="401.5" y="1027" type="curve"/>
    </contour>
  </outline>
</glyph>
<glyph name="b.sc" format="1">
  <advance width="1045"/>
  <outline>
    <contour>
      <point x="35" y="0" type="line"/>
      <point x="47.5" y="106" type="line"/>
      <point x="169" y="169" type="line"/>
      <point x="169" y="781" type="line"/>
      <point x="44" y="818" type="line"/>
      <point x="54" y="936" type="line"/>
      <point x="172" y="955.5"/>
      <point x="340" y="977"/>
      <point x="533.5" y="977" type="curve" smooth="yes"/>
      <point x="817.5" y="977"/>
      <point x="942" y="874.5"/>
      <point x="942" y="734" type="curve" smooth="yes"/>
      <point x="942" y="653"/>
      <point x="879" y="555.5"/>
      <point x="746.5" y="525.5" type="curve"/>
      <point x="746.5" y="517" type="line"/>
      <point x="893.5" y="511"/>
      <point x="1011" y="437"/>
      <point x="1011" y="310" type="curve" smooth="yes"/>
      <point x="1011" y="128.5"/>
      <point x="858.5" y="0"/>
      <point x="516" y="0" type="curve" smooth="yes"/>
    </contour>
    <contour>
      <point x="451" y="141" type="line"/>
      <point x="552" y="141" type="line" smooth="yes"/>
      <point x="670.5" y="141"/>
      <point x="733.5" y="193.5"/>
      <point x="733.5" y="287.5" type="curve" smooth="yes"/>
      <point x="733.5" y="370.5"/>
      <point x="670" y="441.5"/>
      <point x="545.5" y="441.5" type="curve" smooth="yes"/>
      <point x="451" y="441.5" type="line"/>
    </contour>
    <contour>
      <point x="451" y="533.5" type="line"/>
      <point x="611" y="533.5" type="line"/>
      <point x="659.5" y="564.5"/>
      <point x="679.5" y="610.5"/>
      <point x="679.5" y="678" type="curve" smooth="yes"/>
      <point x="679.5" y="761.5"/>
      <point x="640.5" y="845.5"/>
      <point x="508" y="845.5" type="curve" smooth="yes"/>
      <point x="490.5" y="845.5"/>
      <point x="470.5" y="844.5"/>
      <point x="451" y="841.5" type="curve"/>
    </contour>
  </outline>
</glyph>
<glyph name="d.sc" format="1">
  <advance width="1122"/>
  <outline>
    <contour>
      <point x="34.5" y="0" type="line"/>
      <point x="48" y="116" type="line"/>
      <point x="179" y="185" type="line"/>
      <point x="179" y="766" type="line"/>
      <point x="46.5" y="804" type="line"/>
      <point x="54.5" y="920.5" type="line"/>
      <point x="191.5" y="948.5"/>
      <point x="375" y="971"/>
      <point x="527.5" y="971" type="curve" smooth="yes"/>
      <point x="951" y="971"/>
      <point x="1085.5" y="754"/>
      <point x="1085.5" y="509" type="curve" smooth="yes"/>
      <point x="1085.5" y="224.5"/>
      <point x="869" y="0"/>
      <point x="485.5" y="0" type="curve" smooth="yes"/>
    </contour>
    <contour>
      <point x="459.5" y="153" type="line"/>
      <point x="504.5" y="153" type="line" smooth="yes"/>
      <point x="726.5" y="153"/>
      <point x="797" y="319"/>
      <point x="797" y="480" type="curve" smooth="yes"/>
      <point x="797" y="666"/>
      <point x="705.5" y="819"/>
      <point x="499.5" y="819" type="curve" smooth="yes"/>
      <point x="486" y="819"/>
      <point x="472" y="819"/>
      <point x="459.5" y="816.5" type="curve"/>
    </contour>
  </outline>
</glyph>
<glyph name="eacute.sc" format="1">
  <advance width="940"/>
  <outline>
    <contour>
      <point x="31" y="843" type="line"/>
      <point x="46" y="953" type="line"/>
      <point x="941" y="953" type="line"/>
      <point x="915.5" y="632.5" type="line"/>
      <point x="780.5" y="652" type="line"/>
      <point x="723.5" y="821" type="line"/>
      <point x="455.5" y="821" type="line"/>
      <point x="455.5" y="531" type="line"/>
      <point x="606.5" y="539" type="line"/>
      <point x="631" y="580.5" type="line"/>
      <point x="748.5" y="596.5" type="line"/>
      <point x="715" y="344" type="line"/>
      <point x="613" y="345.5" type="line"/>
      <point x="592.5" y="410.5" type="line"/>
      <point x="455.5" y="418.5" type="line"/>
      <point x="455.5" y="149.5" type="line"/>
      <point x="729.5" y="138" type="line"/>
      <point x="831" y="327" type="line"/>
      <point x="960.5" y="312" type="line"/>
      <point x="935.5" y="0" type="line"/>
      <point x="42.5" y="0" type="line"/>
      <point x="51.5" y="116" type="line"/>
      <point x="172" y="169" type="line"/>
      <point x="172" y="787" type="line"/>
    </contour>
    <contour>
      <point x="396" y="1057" type="line"/>
      <point x="530" y="1372" type="line"/>
      <point x="760.5" y="1347.5" type="line"/>
      <point x="538.5" y="1028" type="line"/>
    </contour>
  </outline>
</glyph>
<glyph name="ecircumflex.sc" format="1">
  <advance width="1002"/>
  <outline>
    <contour>
      <point x="35" y="843" type="line"/>
      <point x="50" y="953" type="line"/>
      <point x="945" y="953" type="line"/>
      <point x="919.5" y="632.5" type="line"/>
      <point x="784.5" y="652" type="line"/>
      <point x="727.5" y="821" type="line"/>
      <point x="459.5" y="821" type="line"/>
      <point x="459.5" y="531" type="line"/>
      <point x="610.5" y="539" type="line"/>
      <point x="635" y="580.5" type="line"/>
      <point x="752.5" y="596.5" type="line"/>
      <point x="719" y="344" type="line"/>
      <point x="617" y="345.5" type="line"/>
      <point x="596.5" y="410.5" type="line"/>
      <point x="459.5" y="418.5" type="line"/>
      <point x="459.5" y="149.5" type="line"/>
      <point x="733.5" y="138" type="line"/>
      <point x="835" y="327" type="line"/>
      <point x="964.5" y="312" type="line"/>
      <point x="939.5" y="0" type="line"/>
      <point x="46.5" y="0" type="line"/>
      <point x="55.5" y="116" type="line"/>
      <point x="176" y="169" type="line"/>
      <point x="176" y="787" type="line"/>
    </contour>
    <contour>
      <point x="268.5" y="1050" type="line"/>
      <point x="429" y="1267" type="line"/>
      <point x="619" y="1274.5" type="line"/>
      <point x="785" y="1054" type="line"/>
      <point x="634" y="1031" type="line"/>
      <point x="520.5" y="1146.5" type="line"/>
      <point x="508" y="1146.5" type="line"/>
      <point x="404.5" y="1030" type="line"/>
    </contour>
  </outline>
</glyph>
<glyph name="eth.sc" format="1">
  <advance width="1152"/>
  <outline>
    <contour>
      <point x="55.5" y="0" type="line"/>
      <point x="69" y="116" type="line"/>
      <point x="200" y="185" type="line"/>
      <point x="200" y="766" type="line"/>
      <point x="67.5" y="804" type="line"/>
      <point x="75.5" y="920.5" type="line"/>
      <point x="212.5" y="948.5"/>
      <point x="396" y="971"/>
      <point x="548.5" y="971" type="curve" smooth="yes"/>
      <point x="972" y="971"/>
      <point x="1106.5" y="754"/>
      <point x="1106.5" y="509" type="curve" smooth="yes"/>
      <point x="1106.5" y="224.5"/>
      <point x="890" y="0"/>
      <point x="506.5" y="0" type="curve" smooth="yes"/>
    </contour>
    <contour>
      <point x="62.5" y="378.5" type="line"/>
      <point x="75.5" y="516" type="line"/>
      <point x="655.5" y="557.5" type="line"/>
      <point x="644.5" y="437.5" type="line"/>
    </contour>
    <contour>
      <point x="480.5" y="153" type="line"/>
      <point x="525.5" y="153" type="line" smooth="yes"/>
      <point x="747.5" y="153"/>
      <point x="818" y="319"/>
      <point x="818" y="480" type="curve" smooth="yes"/>
      <point x="818" y="666"/>
      <point x="726.5" y="819"/>
      <point x="520.5" y="819" type="curve" smooth="yes"/>
      <point x="507" y="819"/>
      <point x="493" y="819"/>
      <point x="480.5" y="816.5" type="curve"/>
    </contour>
  </outline>
</glyph>
<glyph name="germandbls.sc.alt" format="1">
  <advance width="1246"/>
  <outline>
    <contour>
      <point x="16" y="0.5" type="line"/>
      <point x="26.5" y="105" type="line"/>
      <point x="140.5" y="151.5" type="line"/>
      <point x="140.5" y="558.5" type="line" smooth="yes"/>
      <point x="140.5" y="849"/>
      <point x="383.5" y="973"/>
      <point x="701" y="973" type="curve" smooth="yes"/>
      <point x="895.5" y="973"/>
      <point x="1073" y="952.5"/>
      <point x="1157" y="933" type="curve"/>
      <point x="1152.5" y="837.5" type="line"/>
      <point x="881.5" y="577" type="line"/>
      <point x="1079" y="495.5"/>
      <point x="1233" y="410.5"/>
      <point x="1233" y="255" type="curve" smooth="yes"/>
      <point x="1233" y="50.5"/>
      <point x="1007" y="-24.5"/>
      <point x="849.5" y="-24.5" type="curve" smooth="yes"/>
      <point x="669.5" y="-24.5"/>
      <point x="550.5" y="5"/>
      <point x="501" y="49.5" type="curve"/>
      <point x="536" y="333" type="line"/>
      <point x="675.5" y="311.5" type="line"/>
      <point x="704.5" y="158.5" type="line"/>
      <point x="735" y="127.5"/>
      <point x="777" y="109.5"/>
      <point x="847.5" y="109.5" type="curve" smooth="yes"/>
      <point x="927" y="109.5"/>
      <point x="981.5" y="145"/>
      <point x="981.5" y="202" type="curve" smooth="yes"/>
      <point x="982" y="301"/>
      <point x="755.5" y="392.5"/>
      <point x="605" y="456.5" type="curve"/>
      <point x="580.5" y="514" type="line"/>
      <point x="887.5" y="807.5" type="line"/>
      <point x="887.5" y="814" type="line"/>
      <point x="798" y="849.5"/>
      <point x="718" y="858"/>
      <point x="643.5" y="858" type="curve" smooth="yes"/>
      <point x="486" y="858"/>
      <point x="415" y="783.5"/>
      <point x="415" y="581.5" type="curve" smooth="yes"/>
      <point x="415" y="0.5" type="line"/>
    </contour>
  </outline>
</glyph>
<glyph name="i.sc" format="1">
  <advance width="633"/>
  <outline>
    <contour>
      <point x="35" y="841.5" type="line"/>
      <point x="50.5" y="954.5" type="line"/>
      <point x="91" y="954.5"/>
      <point x="519.5" y="954.5"/>
      <point x="596" y="954.5" type="curve"/>
      <point x="583" y="836.5" type="line"/>
      <point x="454" y="784" type="line"/>
      <point x="454" y="168.5" type="line"/>
      <point x="589.5" y="120" type="line"/>
      <point x="578" y="0" type="line"/>
      <point x="39.5" y="0" type="line"/>
      <point x="48.5" y="108" type="line"/>
      <point x="175" y="171" type="line"/>
      <point x="175" y="783.5" type="line"/>
    </contour>
  </outline>
</glyph>
<glyph name="idieresis.sc" format="1">
  <advance width="633"/>
  <outline>
    <contour>
      <point x="35" y="841.5" type="line"/>
      <point x="50.5" y="954.5" type="line"/>
      <point x="91" y="954.5"/>
      <point x="519.5" y="954.5"/>
      <point x="596" y="954.5" type="curve"/>
      <point x="583" y="836.5" type="line"/>
      <point x="454" y="784" type="line"/>
      <point x="454" y="168.5" type="line"/>
      <point x="589.5" y="120" type="line"/>
      <point x="578" y="0" type="line"/>
      <point x="39.5" y="0" type="line"/>
      <point x="48.5" y="108" type="line"/>
      <point x="175" y="171" type="line"/>
      <point x="175" y="783.5" type="line"/>
    </contour>
    <contour>
      <point x="69" y="1127.5" type="curve" smooth="yes"/>
      <point x="69" y="1174"/>
      <point x="106.5" y="1219.5"/>
      <point x="180.5" y="1219.5" type="curve" smooth="yes"/>
      <point x="259.5" y="1219.5"/>
      <point x="295.5" y="1174"/>
      <point x="295.5" y="1128.5" type="curve" smooth="yes"/>
      <point x="295.5" y="1074"/>
      <point x="257.5" y="1033"/>
      <point x="180" y="1033" type="curve" smooth="yes"/>
      <point x="101" y="1033"/>
      <point x="69" y="1077.5"/>
    </contour>
    <contour>
      <point x="357.5" y="1127.5" type="curve" smooth="yes"/>
      <point x="357.5" y="1174"/>
      <point x="395" y="1219.5"/>
      <point x="469" y="1219.5" type="curve" smooth="yes"/>
      <point x="548" y="1219.5"/>
      <point x="584.5" y="1174"/>
      <point x="584.5" y="1128.5" type="curve" smooth="yes"/>
      <point x="584.5" y="1074"/>
      <point x="546" y="1033"/>
      <point x="468.5" y="1033" type="curve" smooth="yes"/>
      <point x="389.5" y="1033"/>
      <point x="357.5" y="1077.5"/>
    </contour>
  </outline>
</glyph>
<glyph name="igrave.sc" format="1">
  <advance width="633"/>
  <outline>
    <contour>
      <point x="35" y="841.5" type="line"/>
      <point x="50.5" y="954.5" type="line"/>
      <point x="91" y="954.5"/>
      <point x="519.5" y="954.5"/>
      <point x="596" y="954.5" type="curve"/>
      <point x="583" y="836.5" type="line"/>
      <point x="454" y="784" type="line"/>
      <point x="454" y="168.5" type="line"/>
      <point x="589.5" y="120" type="line"/>
      <point x="578" y="0" type="line"/>
      <point x="39.5" y="0" type="line"/>
      <point x="48.5" y="108" type="line"/>
      <point x="175" y="171" type="line"/>
      <point x="175" y="783.5" type="line"/>
    </contour>
    <contour>
      <point x="49" y="1350.05" type="line"/>
      <point x="281.5" y="1374.05" type="line"/>
      <point x="420.5" y="1055.05" type="line"/>
      <point x="275.5" y="1024.55" type="line"/>
    </contour>
  </outline>
</glyph>
<glyph name="j.sc" format="1">
  <advance width="645"/>
  <outline>
    <contour>
      <point x="-9" y="-194" type="line"/>
      <point x="124" y="-78.5"/>
      <point x="191" y="18"/>
      <point x="191" y="176" type="curve" smooth="yes"/>
      <point x="191" y="783.5" type="line"/>
      <point x="48" y="841.5" type="line"/>
      <point x="62.5" y="954.5" type="line"/>
      <point x="611.5" y="954.5" type="line"/>
      <point x="596.5" y="841.5" type="line"/>
      <point x="471.5" y="789" type="line"/>
      <point x="471.5" y="319.5" type="line" smooth="yes"/>
      <point x="471.5" y="-39"/>
      <point x="391" y="-160.5"/>
      <point x="76.5" y="-326" type="curve"/>
    </contour>
  </outline>
</glyph>
<glyph name="m.sc" format="1">
  <advance width="1481"/>
  <outline>
    <contour>
      <point x="34" y="0" type="line"/>
      <point x="50" y="114" type="line"/>
      <point x="177.5" y="177" type="line"/>
      <point x="226.5" y="789" type="line"/>
      <point x="88" y="838.5" type="line"/>
      <point x="101" y="955" type="line"/>
      <point x="566.5" y="955" type="line"/>
      <point x="630.5" y="755.5" type="line"/>
      <point x="753" y="382.5" type="line"/>
      <point x="888" y="773" type="line"/>
      <point x="953.5" y="955" type="line"/>
      <point x="1405.5" y="955" type="line"/>
      <point x="1391.5" y="838.5" type="line"/>
      <point x="1276.5" y="792.5" type="line"/>
      <point x="1312.5" y="171.5" type="line"/>
      <point x="1446.5" y="120.5" type="line"/>
      <point x="1434.5" y="0" type="line"/>
      <point x="936" y="0" type="line"/>
      <point x="953" y="114" type="line"/>
      <point x="1057" y="167" type="line"/>
      <point x="1034" y="674" type="line"/>
      <point x="812" y="70.5" type="line"/>
      <point x="601.5" y="41.5" type="line"/>
      <point x="401" y="641.5" type="line"/>
      <point x="367.5" y="171.5" type="line"/>
      <point x="473.5" y="120.5" type="line"/>
      <point x="454.5" y="0" type="line"/>
    </contour>
  </outline>
</glyph>
<glyph name="n.sc" format="1">
  <advance width="1172"/>
  <outline>
    <contour>
      <point x="37" y="838" type="line"/>
      <point x="49.5" y="954.5" type="line"/>
      <point x="434.5" y="954.5" type="line"/>
      <point x="848" y="364" type="line"/>
      <point x="848" y="783.5" type="line"/>
      <point x="703" y="841.5" type="line"/>
      <point x="721" y="954.5" type="line"/>
      <point x="1162.5" y="954.5" type="line"/>
      <point x="1143.5" y="841.5" type="line"/>
      <point x="1016" y="789" type="line"/>
      <point x="1016" y="13" type="line"/>
      <point x="776" y="-24.5" type="line"/>
      <point x="352" y="593" type="line"/>
      <point x="352" y="162.5" type="line"/>
      <point x="494" y="114" type="line"/>
      <point x="482" y="0" type="line"/>
      <point x="38.5" y="0" type="line"/>
      <point x="47.5" y="106" type="line"/>
      <point x="176.5" y="169" type="line"/>
      <point x="176.5" y="770.5" type="line"/>
    </contour>
  </outline>
</glyph>
<glyph name="odieresis.sc" format="1">
  <advance width="1084"/>
  <outline>
    <contour>
      <point x="36.5" y="463.5" type="curve" smooth="yes"/>
      <point x="36.5" y="764"/>
      <point x="233" y="972"/>
      <point x="555.5" y="972" type="curve" smooth="yes"/>
      <point x="852.5" y="972"/>
      <point x="1047.5" y="792.5"/>
      <point x="1047.5" y="481" type="curve" smooth="yes"/>
      <point x="1047.5" y="178.5"/>
      <point x="831.5" y="-27"/>
      <point x="510.5" y="-27" type="curve" smooth="yes"/>
      <point x="204" y="-27"/>
      <point x="36.5" y="181.5"/>
    </contour>
    <contour>
      <point x="341.5" y="523" type="curve" smooth="yes"/>
      <point x="341.5" y="363"/>
      <point x="393" y="121"/>
      <point x="549.5" y="121" type="curve" smooth="yes"/>
      <point x="688" y="121"/>
      <point x="731" y="255.5"/>
      <point x="731" y="453" type="curve" smooth="yes"/>
      <point x="731" y="622.5"/>
      <point x="670.5" y="836.5"/>
      <point x="521" y="836.5" type="curve" smooth="yes"/>
      <point x="381" y="836.5"/>
      <point x="341.5" y="700.5"/>
    </contour>
    <contour>
      <point x="287" y="1132.5" type="curve" smooth="yes"/>
      <point x="287" y="1179"/>
      <point x="324.5" y="1224.5"/>
      <point x="398.5" y="1224.5" type="curve" smooth="yes"/>
      <point x="477.5" y="1224.5"/>
      <point x="513" y="1179"/>
      <point x="513" y="1133.5" type="curve" smooth="yes"/>
      <point x="513" y="1079"/>
      <point x="475.5" y="1038"/>
      <point x="398" y="1038" type="curve" smooth="yes"/>
      <point x="319" y="1038"/>
      <point x="287" y="1082.5"/>
    </contour>
    <contour>
      <point x="575.5" y="1132.5" type="curve" smooth="yes"/>
      <point x="575.5" y="1179"/>
      <point x="613" y="1224.5"/>
      <point x="687" y="1224.5" type="curve" smooth="yes"/>
      <point x="766" y="1224.5"/>
      <point x="802" y="1179"/>
      <point x="802" y="1133.5" type="curve" smooth="yes"/>
      <point x="802" y="1079"/>
      <point x="764" y="1038"/>
      <point x="686.5" y="1038" type="curve" smooth="yes"/>
      <point x="607.5" y="1038"/>
      <point x="575.5" y="1082.5"/>
    </contour>
  </outline>
</glyph>
<glyph name="otilde.sc" format="1">
  <advance width="1084"/>
  <outline>
    <contour>
      <point x="36.5" y="463.5" type="curve" smooth="yes"/>
      <point x="36.5" y="764"/>
      <point x="233" y="972"/>
      <point x="555.5" y="972" type="curve" smooth="yes"/>
      <point x="852.5" y="972"/>
      <point x="1047.5" y="792.5"/>
      <point x="1047.5" y="481" type="curve" smooth="yes"/>
      <point x="1047.5" y="178.5"/>
      <point x="831.5" y="-27"/>
      <point x="510.5" y="-27" type="curve" smooth="yes"/>
      <point x="204" y="-27"/>
      <point x="36.5" y="181.5"/>
    </contour>
    <contour>
      <point x="341.5" y="523" type="curve" smooth="yes"/>
      <point x="341.5" y="363"/>
      <point x="393" y="121"/>
      <point x="549.5" y="121" type="curve" smooth="yes"/>
      <point x="688" y="121"/>
      <point x="731" y="255.5"/>
      <point x="731" y="453" type="curve" smooth="yes"/>
      <point x="731" y="622.5"/>
      <point x="670.5" y="836.5"/>
      <point x="521" y="836.5" type="curve" smooth="yes"/>
      <point x="381" y="836.5"/>
      <point x="341.5" y="700.5"/>
    </contour>
    <contour>
      <point x="264" y="1047" type="line"/>
      <point x="267.5" y="1184"/>
      <point x="353.5" y="1278"/>
      <point x="484.5" y="1246.5" type="curve" smooth="yes"/>
      <point x="632.5" y="1221" type="line" smooth="yes"/>
      <point x="690" y="1205.5"/>
      <point x="726.5" y="1231.5"/>
      <point x="736" y="1266" type="curve"/>
      <point x="818" y="1259.5" type="line"/>
      <point x="811" y="1131"/>
      <point x="736.5" y="1024.5"/>
      <point x="599" y="1058.5" type="curve" smooth="yes"/>
      <point x="453.5" y="1084.5" type="line" smooth="yes"/>
      <point x="382" y="1104"/>
      <point x="353.5" y="1069"/>
      <point x="342" y="1037" type="curve"/>
    </contour>
  </outline>
</glyph>
<glyph name="p.sc" format="1">
  <advance width="1012"/>
  <outline>
    <contour>
      <point x="35" y="0" type="line"/>
      <point x="51.5" y="106" type="line"/>
      <point x="188.5" y="169" type="line"/>
      <point x="188.5" y="777" type="line"/>
      <point x="48" y="814" type="line"/>
      <point x="59.5" y="932" type="line"/>
      <point x="207" y="952"/>
      <point x="354" y="972"/>
      <point x="540" y="972" type="curve" smooth="yes"/>
      <point x="793.5" y="972"/>
      <point x="988.5" y="905.5"/>
      <point x="988.5" y="664.5" type="curve" smooth="yes"/>
      <point x="988.5" y="426.5"/>
      <point x="779.5" y="289.5"/>
      <point x="525.5" y="308.5" type="curve"/>
      <point x="500.5" y="427" type="line"/>
      <point x="537.5" y="427.5" type="line" smooth="yes"/>
      <point x="644.5" y="429"/>
      <point x="703.5" y="507.5"/>
      <point x="703.5" y="622.5" type="curve" smooth="yes"/>
      <point x="703.5" y="737.5"/>
      <point x="644" y="822"/>
      <point x="509.5" y="822" type="curve" smooth="yes"/>
      <point x="492" y="822"/>
      <point x="467.5" y="819.5"/>
      <point x="461.5" y="818.5" type="curve"/>
      <point x="461.5" y="177.5" type="line"/>
      <point x="650.5" y="123.5" type="line"/>
      <point x="631.5" y="0" type="line"/>
    </contour>
  </outline>
</glyph>
<glyph name="t.sc" format="1">
  <advance width="1037"/>
  <outline>
    <contour>
      <point x="38.5" y="954.5" type="line"/>
      <point x="1001" y="954.5" type="line"/>
      <point x="970" y="606" type="line"/>
      <point x="831" y="629" type="line"/>
      <point x="779.5" y="822.5" type="line"/>
      <point x="655" y="822.5" type="line"/>
      <point x="655" y="161" type="line"/>
      <point x="808.5" y="116.5" type="line"/>
      <point x="793.5" y="0" type="line"/>
      <point x="230.5" y="0" type="line"/>
      <point x="240.5" y="107" type="line"/>
      <point x="378.5" y="165" type="line"/>
      <point x="378.5" y="822.5" type="line"/>
      <point x="240.5" y="822.5" type="line"/>
      <point x="173.5" y="602" type="line"/>
      <point x="43" y="621.5" type="line"/>
    </contour>
  </outline>
</glyph>
<glyph name="thorn.sc" format="1">
  <advance width="1001"/>
  <outline>
    <contour>
      <point x="56.5" y="841.5" type="line"/>
      <point x="72" y="954.5" type="line"/>
      <point x="113.5" y="954.5"/>
      <point x="543" y="954.5"/>
      <point x="621" y="954.5" type="curve"/>
      <point x="608" y="856.5" type="line"/>
      <point x="475.5" y="809" type="line"/>
      <point x="475.5" y="148.5" type="line"/>
      <point x="611" y="105" type="line"/>
      <point x="599.5" y="0" type="line"/>
      <point x="61" y="0" type="line"/>
      <point x="70" y="108" type="line"/>
      <point x="196.5" y="171" type="line"/>
      <point x="196.5" y="783.5" type="line"/>
    </contour>
    <contour>
      <point x="326.5" y="762.5" type="line"/>
      <point x="396" y="768.5"/>
      <point x="469.5" y="772"/>
      <point x="551.5" y="772" type="curve" smooth="yes"/>
      <point x="779" y="772"/>
      <point x="955" y="713.5"/>
      <point x="955" y="499.5" type="curve" smooth="yes"/>
      <point x="955" y="298.5"/>
      <point x="760" y="183"/>
      <point x="527" y="198.5" type="curve"/>
      <point x="502" y="302" type="line"/>
      <point x="534" y="303" type="line" smooth="yes"/>
      <point x="628.5" y="307"/>
      <point x="684.5" y="372.5"/>
      <point x="684.5" y="472.5" type="curve" smooth="yes"/>
      <point x="684.5" y="569.5"/>
      <point x="635" y="642"/>
      <point x="521" y="642" type="curve" smooth="yes"/>
      <point x="503.5" y="642"/>
      <point x="479" y="639.5"/>
      <point x="473" y="638.5" type="curve"/>
    </contour>
  </outline>
</glyph>
<glyph name="three.osf" format="1">
  <advance width="819"/>
  <outline>
    <contour>
      <point x="-7" y="-129" type="curve" smooth="yes"/>
      <point x="-7" y="-75"/>
      <point x="38" y="-0.5"/>
      <point x="147" y="16" type="curve"/>
      <point x="166" y="-51.5"/>
      <point x="225.5" y="-184.5"/>
      <point x="327.5" y="-184.5" type="curve" smooth="yes"/>
      <point x="466" y="-184.5"/>
      <point x="517" y="-99.5"/>
      <point x="517" y="10" type="curve" smooth="yes"/>
      <point x="517" y="136"/>
      <point x="417.5" y="281.5"/>
      <point x="229" y="273" type="curve"/>
      <point x="211" y="366" type="line"/>
      <point x="376.5" y="416.5"/>
      <point x="484.5" y="520.5"/>
      <point x="484.5" y="662" type="curve" smooth="yes"/>
      <point x="484.5" y="741.5"/>
      <point x="438" y="811.5"/>
      <point x="349" y="811.5" type="curve" smooth="yes"/>
      <point x="248.5" y="811.5"/>
      <point x="178" y="747.5"/>
      <point x="134" y="641" type="curve"/>
      <point x="44" y="697.5" type="line"/>
      <point x="92" y="859"/>
      <point x="269" y="987"/>
      <point x="435.5" y="987" type="curve" smooth="yes"/>
      <point x="608" y="987"/>
      <point x="743.5" y="887.5"/>
      <point x="743.5" y="717" type="curve" smooth="yes"/>
      <point x="743.5" y="577"/>
      <point x="613" y="448.5"/>
      <point x="487.5" y="413.5" type="curve"/>
      <point x="487.5" y="396" type="line"/>
      <point x="684" y="379"/>
      <point x="777" y="229"/>
      <point x="777" y="84" type="curve" smooth="yes"/>
      <point x="777" y="-120"/>
      <point x="553" y="-302.5"/>
      <point x="285.5" y="-302.5" type="curve" smooth="yes"/>
      <point x="96" y="-302.5"/>
      <point x="-7" y="-216"/>
    </contour>
  </outline>
</glyph>
<glyph name="v.sc" format="1">
  <advance width="1138"/>
  <outline>
    <contour>
      <point x="35" y="838" type="line"/>
      <point x="50" y="954.5" type="line"/>
      <point x="564.5" y="954.5" type="line"/>
      <point x="548" y="838" type="line"/>
      <point x="452.5" y="789" type="line"/>
      <point x="619.5" y="294.5" type="line"/>
      <point x="788.5" y="786" type="line"/>
      <point x="690.5" y="838" type="line"/>
      <point x="701.5" y="954.5" type="line"/>
      <point x="1102.5" y="954.5" type="line"/>
      <point x="1091.5" y="838" type="line"/>
      <point x="997.5" y="789" type="line"/>
      <point x="680" y="14.5" type="line"/>
      <point x="447.5" y="-28.5" type="line"/>
      <point x="144" y="786" type="line"/>
    </contour>
  </outline>
</glyph>
<glyph name="w.sc" format="1">
  <advance width="1571"/>
  <outline>
    <contour>
      <point x="35" y="839" type="line"/>
      <point x="45" y="954.5" type="line"/>
      <point x="574.5" y="954.5" type="line"/>
      <point x="549" y="835" type="line"/>
      <point x="439" y="789" type="line"/>
      <point x="549.5" y="348.5" type="line"/>
      <point x="694.5" y="907.5" type="line"/>
      <point x="937" y="940" type="line"/>
      <point x="1083.5" y="364.5" type="line"/>
      <point x="1205" y="788.5" type="line"/>
      <point x="1096" y="836.5" type="line"/>
      <point x="1112" y="954.5" type="line"/>
      <point x="1536" y="954.5" type="line"/>
      <point x="1518" y="838" type="line"/>
      <point x="1415.5" y="792" type="line"/>
      <point x="1166" y="16" type="line"/>
      <point x="932.5" y="-28.5" type="line"/>
      <point x="773.5" y="546.5" type="line"/>
      <point x="625" y="16" type="line"/>
      <point x="385.5" y="-29" type="line"/>
      <point x="153" y="785" type="line"/>
    </contour>
  </outline>
</glyph>
<glyph name="ydieresis.sc" format="1">
  <advance width="1557"/>
  <outline>
    <contour>
      <point x="19.5" y="838.5" type="line"/>
      <point x="41" y="954.5" type="line"/>
      <point x="523" y="954.5" type="line"/>
      <point x="504" y="838.5" type="line"/>
      <point x="418" y="789" type="line"/>
      <point x="550.5" y="522.5" type="line"/>
      <point x="685" y="785.5" type="line"/>
      <point x="598.5" y="837.5" type="line"/>
      <point x="614.5" y="954" type="line"/>
      <point x="983.5" y="954" type="line"/>
      <point x="967.5" y="837.5" type="line"/>
      <point x="883.5" y="788.5" type="line"/>
      <point x="644.5" y="372" type="line"/>
      <point x="644.5" y="167.5" type="line"/>
      <point x="778.5" y="110" type="line"/>
      <point x="767" y="0" type="line"/>
      <point x="224" y="0" type="line"/>
      <point x="238" y="106" type="line"/>
      <point x="362.5" y="169" type="line"/>
      <point x="362.5" y="353" type="line"/>
      <point x="118.5" y="786.5" type="line"/>
    </contour>
    <contour>
      <point x="279" y="1140.5" type="curve" smooth="yes"/>
      <point x="279" y="1187"/>
      <point x="316.5" y="1232.5"/>
      <point x="390.5" y="1232.5" type="curve" smooth="yes"/>
      <point x="469.5" y="1232.5"/>
      <point x="505" y="1187"/>
      <point x="505" y="1141.5" type="curve" smooth="yes"/>
      <point x="505" y="1087"/>
      <point x="467.5" y="1046"/>
      <point x="390" y="1046" type="curve" smooth="yes"/>
      <point x="311" y="1046"/>
      <point x="279" y="1090.5"/>
    </contour>
    <contour>
      <point x="567.5" y="1140.5" type="curve" smooth="yes"/>
      <point x="567.5" y="1187"/>
      <point x="605" y="1232.5"/>
      <point x="679" y="1232.5" type="curve" smooth="yes"/>
      <point x="758" y="1232.5"/>
      <point x="794" y="1187"/>
      <point x="794" y="1141.5" type="curve" smooth="yes"/>
      <point x="794" y="1087"/>
      <point x="756" y="1046"/>
      <point x="678.5" y="1046" type="curve" smooth="yes"/>
      <point x="599.5" y="1046"/>
      <point x="567.5" y="1090.5"/>
    </contour>
  </outline>
</glyph>
<glyph name="yen.osf" format="1">
  <advance width="1118"/>
  <outline>
    <contour>
      <point x="94.5" y="838.5" type="line"/>
      <point x="116" y="954.5" type="line"/>
      <point x="589" y="954.5" type="line"/>
      <point x="570.5" y="838.5" type="line"/>
      <point x="487" y="789" type="line"/>
      <point x="614.5" y="476" type="line"/>
      <point x="757" y="786" type="line"/>
      <point x="663.5" y="837.5" type="line"/>
      <point x="679.5" y="954" type="line"/>
      <point x="1059" y="954" type="line"/>
      <point x="1043" y="837.5" type="line"/>
      <point x="945" y="788.5" type="line"/>
      <point x="734.5" y="400.5" type="line"/>
      <point x="1022.5" y="400.5" type="line"/>
      <point x="1012" y="292.5" type="line"/>
      <point x="700.5" y="292.5" type="line"/>
      <point x="700.5" y="167" type="line"/>
      <point x="841" y="109" type="line"/>
      <point x="829.5" y="0" type="line"/>
      <point x="303.5" y="0" type="line"/>
      <point x="317.5" y="104.5" type="line"/>
      <point x="446.5" y="168" type="line"/>
      <point x="446.5" y="292.5" type="line"/>
      <point x="133" y="292.5" type="line"/>
      <point x="148" y="400.5" type="line"/>
      <point x="408" y="400.5" type="line"/>
      <point x="197.5" y="787" type="line"/>
    </contour>
    <contour>
      <point x="133" y="499" type="line"/>
      <point x="148" y="608.5" type="line"/>
      <point x="468.5" y="608.5" type="line"/>
      <point x="526.5" y="499" type="line"/>
    </contour>
    <contour>
      <point x="698" y="499" type="line"/>
      <point x="758" y="608.5" type="line"/>
      <point x="1022.5" y="608.5" type="line"/>
      <point x="1012" y="499" type="line"/>
    </contour>
  </outline>
</glyph>
<glyph name="z.sc" format="1">
  <advance width="938"/>
  <outline>
    <contour>
      <point x="35.5" y="160" type="line"/>
      <point x="583" y="819.5" type="line"/>
      <point x="279.5" y="819.5" type="line"/>
      <point x="210" y="618" type="line"/>
      <point x="60" y="643" type="line"/>
      <point x="75" y="954.5" type="line"/>
      <point x="891.5" y="954.5" type="line"/>
      <point x="887.5" y="814" type="line"/>
      <point x="341" y="153" type="line"/>
      <point x="653" y="138" type="line"/>
      <point x="781" y="349" type="line"/>
      <point x="903.5" y="329.5" type="line"/>
      <point x="869.5" y="0" type="line"/>
      <point x="46" y="0" type="line"/>
    </contour>
  </outline>
</glyph>
